<svg width="492" height="380" version="1.1" viewBox="0 0 130.17 100.54" xmlns="http://www.w3.org/2000/svg"><g transform="translate(-4.8405 -.58158)"><g transform="translate(-.86745 15.614)"><g transform="matrix(.408 0 0 .408 97.415 -13.983)" stroke-width="2.4508"><g transform="translate(-72.041,-5.3583)" stroke-width="2.4508"><path d="m23.885 123.7c-0.67082 5.6017 1.4782 9.5326 4.0898 14.012 2.6116 4.4792 6.2116 9.1193 10.512 13.477 8.6003 8.7146 19.885 16.867 32.902 16.42l-0.49609-14.459c-5.8139 0.19965-15.108-4.5015-22.107-11.594-3.4997-3.5462-6.4545-7.9442-8.3125-11.131s-2.094-6.0784-2.2227-5.0039z" color="#000000" color-rendering="auto" dominant-baseline="auto" fill="#4d4d4d" image-rendering="auto" shape-rendering="auto" solid-color="#000000" stop-color="#000000" stroke-width="2.3897" style="font-feature-settings:normal;font-variant-alternates:normal;font-variant-caps:normal;font-variant-east-asian:normal;font-variant-ligatures:normal;font-variant-numeric:normal;font-variant-position:normal;font-variation-settings:normal;inline-size:0;isolation:auto;mix-blend-mode:normal;shape-margin:0;shape-padding:0;text-decoration-color:#000000;text-decoration-line:none;text-decoration-style:solid;text-indent:0;text-orientation:mixed;text-transform:none;white-space:normal"/></g><g fill="#f4e3d7"><g transform="rotate(-15.682,-55.475,258.88)" shape-rendering="auto" stroke-width="2.3897"><path d="m-5.1836 113.52c-6.6161-6.7e-4 -11.983 4.7786-11.984 10.676-0.0015 5.8972 5.3624 10.678 11.979 10.68 6.6161 2e-3 11.983-4.7747 11.986-10.672 3.783e-4 -2e-3 3.783e-4 -4e-3 0-6e-3 -2.454e-4 -2e-3 -9.083e-4 -4e-3 -0.00195-6e-3 -0.00386-5.8942-5.3648-10.671-11.979-10.672z" color="#000000" color-rendering="auto" dominant-baseline="auto" image-rendering="auto" solid-color="#000000" stop-color="#000000" style="font-feature-settings:normal;font-variant-alternates:normal;font-variant-caps:normal;font-variant-east-asian:normal;font-variant-ligatures:normal;font-variant-numeric:normal;font-variant-position:normal;font-variation-settings:normal;inline-size:0;isolation:auto;mix-blend-mode:normal;paint-order:stroke fill markers;shape-margin:0;shape-padding:0;text-decoration-color:#000000;text-decoration-line:none;text-decoration-style:solid;text-indent:0;text-orientation:mixed;text-transform:none;white-space:normal"/><path d="m6.7817 124.2c-0.00304 5.8875 5.7e-6 -5.8924 1.3e-6 -5e-3z" color="#000000" color-rendering="auto" dominant-baseline="auto" image-rendering="auto" solid-color="#000000" stop-color="#000000" style="font-feature-settings:normal;font-variant-alternates:normal;font-variant-caps:normal;font-variant-east-asian:normal;font-variant-ligatures:normal;font-variant-numeric:normal;font-variant-position:normal;font-variation-settings:normal;inline-size:0;isolation:auto;mix-blend-mode:normal;paint-order:stroke fill markers;shape-margin:0;shape-padding:0;text-decoration-color:#000000;text-decoration-line:none;text-decoration-style:solid;text-indent:0;text-orientation:mixed;text-transform:none;white-space:normal"/></g><g stroke-width="2.4508"><g transform="rotate(-77.743,-39.344,42.007)"><path d="m-116.78 34.967c-2.7317 0-4.9316 2.198-4.9316 4.9297v6.9863c0 2.7317 2.2 4.9316 4.9316 4.9316s4.9316-2.2 4.9316-4.9316v-6.9863c0-2.7317-2.2-4.9297-4.9316-4.9297z" color="#000000" color-rendering="auto" dominant-baseline="auto" fill="#f4e3d7" image-rendering="auto" shape-rendering="auto" solid-color="#000000" stop-color="#000000" stroke-width="2.3897" style="font-feature-settings:normal;font-variant-alternates:normal;font-variant-caps:normal;font-variant-east-asian:normal;font-variant-ligatures:normal;font-variant-numeric:normal;font-variant-position:normal;font-variation-settings:normal;inline-size:0;isolation:auto;mix-blend-mode:normal;paint-order:stroke fill markers;shape-margin:0;shape-padding:0;text-decoration-color:#000000;text-decoration-line:none;text-decoration-style:solid;text-indent:0;text-orientation:mixed;text-transform:none;white-space:normal"/></g><g transform="rotate(-48.52,-41.965,77.247)"><path d="m-72.047 80.547c-2.7317 0-4.9316 2.2-4.9316 4.9316v6.9863c0 2.7317 2.2 4.9297 4.9316 4.9297s4.9316-2.198 4.9316-4.9297v-6.9863c0-2.7317-2.2-4.9316-4.9316-4.9316z" color="#000000" color-rendering="auto" dominant-baseline="auto" fill="#f4e3d7" image-rendering="auto" shape-rendering="auto" solid-color="#000000" stop-color="#000000" stroke-width="2.3897" style="font-feature-settings:normal;font-variant-alternates:normal;font-variant-caps:normal;font-variant-east-asian:normal;font-variant-ligatures:normal;font-variant-numeric:normal;font-variant-position:normal;font-variation-settings:normal;inline-size:0;isolation:auto;mix-blend-mode:normal;paint-order:stroke fill markers;shape-margin:0;shape-padding:0;text-decoration-color:#000000;text-decoration-line:none;text-decoration-style:solid;text-indent:0;text-orientation:mixed;text-transform:none;white-space:normal"/></g><g transform="rotate(-5.6363,-90.447,729.07)"><path d="m18.326 101.36c-2.7317 0-4.9316 2.198-4.9316 4.9297v6.9863c0 2.7317 2.2 4.9316 4.9316 4.9316s4.9316-2.2 4.9316-4.9316v-6.9863c1e-6 -2.7317-2.2-4.9297-4.9316-4.9297z" color="#000000" color-rendering="auto" dominant-baseline="auto" fill="#f4e3d7" image-rendering="auto" shape-rendering="auto" solid-color="#000000" stop-color="#000000" stroke-width="2.3897" style="font-feature-settings:normal;font-variant-alternates:normal;font-variant-caps:normal;font-variant-east-asian:normal;font-variant-ligatures:normal;font-variant-numeric:normal;font-variant-position:normal;font-variation-settings:normal;inline-size:0;isolation:auto;mix-blend-mode:normal;paint-order:stroke fill markers;shape-margin:0;shape-padding:0;text-decoration-color:#000000;text-decoration-line:none;text-decoration-style:solid;text-indent:0;text-orientation:mixed;text-transform:none;white-space:normal"/></g><g transform="rotate(23.642,-23.22,-174.78)"><path d="m80.041 80.461c-2.7317 0-4.9316 2.2-4.9316 4.9316v6.9844c0 2.7317 2.2 4.9316 4.9316 4.9316 2.7317 0 4.9316-2.2 4.9316-4.9316v-6.9844c0-2.7317-2.2-4.9316-4.9316-4.9316z" color="#000000" color-rendering="auto" dominant-baseline="auto" fill="#f4e3d7" image-rendering="auto" shape-rendering="auto" solid-color="#000000" stop-color="#000000" stroke-width="2.3897" style="font-feature-settings:normal;font-variant-alternates:normal;font-variant-caps:normal;font-variant-east-asian:normal;font-variant-ligatures:normal;font-variant-numeric:normal;font-variant-position:normal;font-variation-settings:normal;inline-size:0;isolation:auto;mix-blend-mode:normal;paint-order:stroke fill markers;shape-margin:0;shape-padding:0;text-decoration-color:#000000;text-decoration-line:none;text-decoration-style:solid;text-indent:0;text-orientation:mixed;text-transform:none;white-space:normal"/></g></g></g></g><g shape-rendering="auto" stroke-width=".95072"><path d="m111.83 17.139-4.2225-0.0429c-10.359-0.10526-18.785 8.1499-18.889 18.51l-0.29111 28.653c-0.10525 10.359 8.1499 18.785 18.51 18.889l4.2225 0.04291c10.359 0.10525 18.785-8.15 18.889-18.51l0.29112-28.653c0.10525-10.359-8.1499-18.785-18.51-18.889z" color="#000000" color-rendering="auto" dominant-baseline="auto" fill="#f4e3d7" fill-rule="evenodd" image-rendering="auto" solid-color="#000000" stop-color="#000000" style="font-feature-settings:normal;font-variant-alternates:normal;font-variant-caps:normal;font-variant-east-asian:normal;font-variant-ligatures:normal;font-variant-numeric:normal;font-variant-position:normal;font-variation-settings:normal;inline-size:0;isolation:auto;mix-blend-mode:normal;shape-margin:0;shape-padding:0;text-decoration-color:#000000;text-decoration-line:none;text-decoration-style:solid;text-indent:0;text-orientation:mixed;text-transform:none;white-space:normal"/><path d="m115.21 27.334c1.0585 0 2.0368 0.25373 2.8424 0.761 0.80567 0.50728 1.5116 1.3789 1.5116 2.4823a1.3566 1.3566 0 0 1-1.3563 1.3571 1.3566 1.3566 0 0 1-1.3571-1.3571c0 0.06106 0.0353-0.01073-0.24383-0.18647-0.27912-0.17574-0.80003-0.34345-1.3969-0.34345-0.59686 0-1.1169 0.1677-1.3961 0.34345-0.27912 0.17574-0.24464 0.24753-0.24464 0.18647a1.3566 1.3566 0 0 1-1.3563 1.3571 1.3566 1.3566 0 0 1-1.3563-1.3571c0-1.1033 0.70598-1.975 1.5116-2.4823 0.80567-0.50728 1.7832-0.761 2.8416-0.761z" color="#000000" color-rendering="auto" dominant-baseline="auto" fill="#4d4d4d" image-rendering="auto" solid-color="#000000" stop-color="#000000" style="font-feature-settings:normal;font-variant-alternates:normal;font-variant-caps:normal;font-variant-east-asian:normal;font-variant-ligatures:normal;font-variant-numeric:normal;font-variant-position:normal;font-variation-settings:normal;inline-size:0;isolation:auto;mix-blend-mode:normal;paint-order:stroke fill markers;shape-margin:0;shape-padding:0;text-decoration-color:#000000;text-decoration-line:none;text-decoration-style:solid;text-indent:0;text-orientation:mixed;text-transform:none;white-space:normal"/><path d="m103.63 27.334c1.0585 0 2.0368 0.25373 2.8424 0.761 0.80567 0.50728 1.5116 1.3789 1.5116 2.4823a1.3566 1.3566 0 0 1-1.3571 1.3571 1.3566 1.3566 0 0 1-1.3563-1.3571c0 0.06106 0.0345-0.01073-0.24464-0.18647-0.27913-0.17574-0.79924-0.34345-1.3961-0.34345-0.59687 0-1.1178 0.1677-1.3969 0.34345s-0.24384 0.24753-0.24384 0.18647a1.3566 1.3566 0 0 1-1.3563 1.3571 1.3566 1.3566 0 0 1-1.3571-1.3571c0-1.1033 0.70597-1.975 1.5116-2.4823 0.80567-0.50728 1.7839-0.761 2.8424-0.761z" color="#000000" color-rendering="auto" dominant-baseline="auto" fill="#4d4d4d" image-rendering="auto" solid-color="#000000" stop-color="#000000" style="font-feature-settings:normal;font-variant-alternates:normal;font-variant-caps:normal;font-variant-east-asian:normal;font-variant-ligatures:normal;font-variant-numeric:normal;font-variant-position:normal;font-variation-settings:normal;inline-size:0;isolation:auto;mix-blend-mode:normal;paint-order:stroke fill markers;shape-margin:0;shape-padding:0;text-decoration-color:#000000;text-decoration-line:none;text-decoration-style:solid;text-indent:0;text-orientation:mixed;text-transform:none;white-space:normal"/></g><g fill-rule="evenodd" stroke-width=".95072"><path d="m88.574 49.931-0.14556 14.326c-0.10525 10.359 8.1499 18.785 18.51 18.889l4.2225 0.04291c10.359 0.10525 18.785-8.1499 18.889-18.51l0.14556-14.326-41.622-0.42288" color="#000000" color-rendering="auto" dominant-baseline="auto" fill="#73a9ad" image-rendering="auto" shape-rendering="auto" solid-color="#000000" stop-color="#000000" style="font-feature-settings:normal;font-variant-alternates:normal;font-variant-caps:normal;font-variant-east-asian:normal;font-variant-ligatures:normal;font-variant-numeric:normal;font-variant-position:normal;font-variation-settings:normal;inline-size:0;isolation:auto;mix-blend-mode:normal;shape-margin:0;shape-padding:0;text-decoration-color:#000000;text-decoration-line:none;text-decoration-style:solid;text-indent:0;text-orientation:mixed;text-transform:none;white-space:normal"/><path d="m130.18 51.741-0.013 1.8775-41.622-0.62042 0.01301-1.8775z" color="#000000" color-rendering="auto" dominant-baseline="auto" fill="#5a8387" image-rendering="auto" shape-rendering="auto" solid-color="#000000" stop-color="#000000" style="font-feature-settings:normal;font-variant-alternates:normal;font-variant-caps:normal;font-variant-east-asian:normal;font-variant-ligatures:normal;font-variant-numeric:normal;font-variant-position:normal;font-variation-settings:normal;inline-size:0;isolation:auto;mix-blend-mode:normal;shape-margin:0;shape-padding:0;text-decoration-color:#000000;text-decoration-line:none;text-decoration-style:solid;text-indent:0;text-orientation:mixed;text-transform:none;white-space:normal"/><path d="m102.86 53.362a6.5056 6.5056 0 0 0 6.4392 6.5714 6.5056 6.5056 0 0 0 6.5714-6.4392 6.5056 6.5056 0 0 0-6.4392-6.5714 6.5056 6.5056 0 0 0-6.5714 6.4392z" fill="#5a8387" style="paint-order:stroke fill markers"/><path d="m104.7 53.38a4.6667 4.6667 0 0 0 4.619 4.7139 4.6667 4.6667 0 0 0 4.7139-4.619 4.6667 4.6667 0 0 0-4.619-4.7139 4.6667 4.6667 0 0 0-4.7139 4.619z" fill="#7bb0ad" style="paint-order:stroke fill markers"/><path d="m106.66 53.401a2.7019 2.7019 0 0 0 2.6743 2.7293 2.7019 2.7019 0 0 0 2.7293-2.6743 2.7019 2.7019 0 0 0-2.6743-2.7293 2.7019 2.7019 0 0 0-2.7293 2.6743z" fill="#fdffff" style="paint-order:stroke fill markers"/></g><path d="m112.51 38.851a1.4351 1.4351 0 0 1 1.4352 1.4351c-1e-5 1.2106-0.83506 2.0913-1.7141 2.5858-0.87901 0.49448-1.9313 0.7371-3.0759 0.7371s-2.1969-0.24266-3.0759-0.7371c-0.87899-0.49444-1.7141-1.3753-1.7141-2.5858a1.4351 1.4351 0 0 1 1.4352-1.4351 1.4351 1.4351 0 0 1 1.4351 1.4328c-2e-3 -0.16017-0.0799-0.10006 0.25101 0.08607 0.33525 0.18858 0.96036 0.36895 1.6686 0.36895s1.3334-0.18037 1.6686-0.36895c0.33525-0.18858 0.25102-0.25198 0.25102-0.08367a1.4351 1.4351 0 0 1 1.4351-1.4351z" color="#000000" color-rendering="auto" dominant-baseline="auto" fill="#4d4d4d" image-rendering="auto" shape-rendering="auto" solid-color="#000000" stop-color="#000000" stroke-width=".97502" style="font-feature-settings:normal;font-variant-alternates:normal;font-variant-caps:normal;font-variant-east-asian:normal;font-variant-ligatures:normal;font-variant-numeric:normal;font-variant-position:normal;font-variation-settings:normal;inline-size:0;isolation:auto;mix-blend-mode:normal;paint-order:stroke fill markers;shape-margin:0;shape-padding:0;text-decoration-color:#000000;text-decoration-line:none;text-decoration-style:solid;text-indent:0;text-orientation:mixed;text-transform:none;white-space:normal"/><g transform="matrix(.38955 -.12131 .12131 .38955 77.428 -9.9721)" stroke-width="2.4508"><g transform="translate(-72.041,-5.3583)" stroke-width="2.4508"><path d="m23.885 123.7c-0.67082 5.6017 1.4782 9.5326 4.0898 14.012 2.6116 4.4792 6.2116 9.1193 10.512 13.477 8.6003 8.7146 19.885 16.867 32.902 16.42l-0.49609-14.459c-5.8139 0.19965-15.108-4.5015-22.107-11.594-3.4997-3.5462-6.4545-7.9442-8.3125-11.131s-2.094-6.0784-2.2227-5.0039z" color="#000000" color-rendering="auto" dominant-baseline="auto" fill="#4d4d4d" image-rendering="auto" shape-rendering="auto" solid-color="#000000" stop-color="#000000" stroke-width="2.3897" style="font-feature-settings:normal;font-variant-alternates:normal;font-variant-caps:normal;font-variant-east-asian:normal;font-variant-ligatures:normal;font-variant-numeric:normal;font-variant-position:normal;font-variation-settings:normal;inline-size:0;isolation:auto;mix-blend-mode:normal;shape-margin:0;shape-padding:0;text-decoration-color:#000000;text-decoration-line:none;text-decoration-style:solid;text-indent:0;text-orientation:mixed;text-transform:none;white-space:normal"/></g><g fill="#f4e3d7"><g transform="rotate(-15.682,-55.475,258.88)" shape-rendering="auto" stroke-width="2.3897"><path d="m-5.1836 113.52c-6.6161-6.7e-4 -11.983 4.7786-11.984 10.676-0.0015 5.8972 5.3624 10.678 11.979 10.68 6.6161 2e-3 11.983-4.7747 11.986-10.672 3.783e-4 -2e-3 3.783e-4 -4e-3 0-6e-3 -2.454e-4 -2e-3 -9.083e-4 -4e-3 -0.00195-6e-3 -0.00386-5.8942-5.3648-10.671-11.979-10.672z" color="#000000" color-rendering="auto" dominant-baseline="auto" image-rendering="auto" solid-color="#000000" stop-color="#000000" style="font-feature-settings:normal;font-variant-alternates:normal;font-variant-caps:normal;font-variant-east-asian:normal;font-variant-ligatures:normal;font-variant-numeric:normal;font-variant-position:normal;font-variation-settings:normal;inline-size:0;isolation:auto;mix-blend-mode:normal;paint-order:stroke fill markers;shape-margin:0;shape-padding:0;text-decoration-color:#000000;text-decoration-line:none;text-decoration-style:solid;text-indent:0;text-orientation:mixed;text-transform:none;white-space:normal"/><path d="m6.7817 124.2c-0.00304 5.8875 5.7e-6 -5.8924 1.3e-6 -5e-3z" color="#000000" color-rendering="auto" dominant-baseline="auto" image-rendering="auto" solid-color="#000000" stop-color="#000000" style="font-feature-settings:normal;font-variant-alternates:normal;font-variant-caps:normal;font-variant-east-asian:normal;font-variant-ligatures:normal;font-variant-numeric:normal;font-variant-position:normal;font-variation-settings:normal;inline-size:0;isolation:auto;mix-blend-mode:normal;paint-order:stroke fill markers;shape-margin:0;shape-padding:0;text-decoration-color:#000000;text-decoration-line:none;text-decoration-style:solid;text-indent:0;text-orientation:mixed;text-transform:none;white-space:normal"/></g><g stroke-width="2.4508"><g transform="rotate(-77.743,-39.344,42.007)"><path d="m-116.78 34.967c-2.7317 0-4.9316 2.198-4.9316 4.9297v6.9863c0 2.7317 2.2 4.9316 4.9316 4.9316s4.9316-2.2 4.9316-4.9316v-6.9863c0-2.7317-2.2-4.9297-4.9316-4.9297z" color="#000000" color-rendering="auto" dominant-baseline="auto" fill="#f4e3d7" image-rendering="auto" shape-rendering="auto" solid-color="#000000" stop-color="#000000" stroke-width="2.3897" style="font-feature-settings:normal;font-variant-alternates:normal;font-variant-caps:normal;font-variant-east-asian:normal;font-variant-ligatures:normal;font-variant-numeric:normal;font-variant-position:normal;font-variation-settings:normal;inline-size:0;isolation:auto;mix-blend-mode:normal;paint-order:stroke fill markers;shape-margin:0;shape-padding:0;text-decoration-color:#000000;text-decoration-line:none;text-decoration-style:solid;text-indent:0;text-orientation:mixed;text-transform:none;white-space:normal"/></g><g transform="rotate(-48.52,-41.965,77.247)"><path d="m-72.047 80.547c-2.7317 0-4.9316 2.2-4.9316 4.9316v6.9863c0 2.7317 2.2 4.9297 4.9316 4.9297s4.9316-2.198 4.9316-4.9297v-6.9863c0-2.7317-2.2-4.9316-4.9316-4.9316z" color="#000000" color-rendering="auto" dominant-baseline="auto" fill="#f4e3d7" image-rendering="auto" shape-rendering="auto" solid-color="#000000" stop-color="#000000" stroke-width="2.3897" style="font-feature-settings:normal;font-variant-alternates:normal;font-variant-caps:normal;font-variant-east-asian:normal;font-variant-ligatures:normal;font-variant-numeric:normal;font-variant-position:normal;font-variation-settings:normal;inline-size:0;isolation:auto;mix-blend-mode:normal;paint-order:stroke fill markers;shape-margin:0;shape-padding:0;text-decoration-color:#000000;text-decoration-line:none;text-decoration-style:solid;text-indent:0;text-orientation:mixed;text-transform:none;white-space:normal"/></g><g transform="rotate(-5.6363,-90.447,729.07)"><path d="m18.326 101.36c-2.7317 0-4.9316 2.198-4.9316 4.9297v6.9863c0 2.7317 2.2 4.9316 4.9316 4.9316s4.9316-2.2 4.9316-4.9316v-6.9863c1e-6 -2.7317-2.2-4.9297-4.9316-4.9297z" color="#000000" color-rendering="auto" dominant-baseline="auto" fill="#f4e3d7" image-rendering="auto" shape-rendering="auto" solid-color="#000000" stop-color="#000000" stroke-width="2.3897" style="font-feature-settings:normal;font-variant-alternates:normal;font-variant-caps:normal;font-variant-east-asian:normal;font-variant-ligatures:normal;font-variant-numeric:normal;font-variant-position:normal;font-variation-settings:normal;inline-size:0;isolation:auto;mix-blend-mode:normal;paint-order:stroke fill markers;shape-margin:0;shape-padding:0;text-decoration-color:#000000;text-decoration-line:none;text-decoration-style:solid;text-indent:0;text-orientation:mixed;text-transform:none;white-space:normal"/></g><g transform="rotate(23.642,-23.22,-174.78)"><path d="m80.041 80.461c-2.7317 0-4.9316 2.2-4.9316 4.9316v6.9844c0 2.7317 2.2 4.9316 4.9316 4.9316 2.7317 0 4.9316-2.2 4.9316-4.9316v-6.9844c0-2.7317-2.2-4.9316-4.9316-4.9316z" color="#000000" color-rendering="auto" dominant-baseline="auto" fill="#f4e3d7" image-rendering="auto" shape-rendering="auto" solid-color="#000000" stop-color="#000000" stroke-width="2.3897" style="font-feature-settings:normal;font-variant-alternates:normal;font-variant-caps:normal;font-variant-east-asian:normal;font-variant-ligatures:normal;font-variant-numeric:normal;font-variant-position:normal;font-variation-settings:normal;inline-size:0;isolation:auto;mix-blend-mode:normal;paint-order:stroke fill markers;shape-margin:0;shape-padding:0;text-decoration-color:#000000;text-decoration-line:none;text-decoration-style:solid;text-indent:0;text-orientation:mixed;text-transform:none;white-space:normal"/></g></g></g></g></g><g transform="translate(-141.83 -52.481)"><path d="m253.76 55.379-45.775 70.538-55.766-51.089z" fill="#e6e6e6" stroke-width="0" style="paint-order:fill markers stroke"/><path d="m168.98 108.11 20.426-9.0178-13.244-10.948z" fill="#808080" stroke-width="2.7216"/><path d="m194.07 83.272 13.904 42.642-55.766-51.089z" fill="#ccc" stroke-width="0" style="paint-order:fill markers stroke"/><path d="m253.76 55.379-86.079 33.616 1.3082 19.114 7.6955-10.865z" fill="#a4a4a4" stroke-width="0" style="paint-order:fill markers stroke"/><path d="m253.76 55.379-58.424 31.742 12.649 38.798 45.775-70.538" fill="#e6e6e6" stroke-width="2.7216"/></g><path d="m50.514 90.448c-0.36395-0.22191-0.5036-0.4815-0.57689-1.0725-0.03562-0.28706-0.0767-0.5326-0.09132-0.54566-0.02298-0.02058-0.32122-0.14747-1.2611-0.53684-0.18086-0.0749-0.24243-0.0579-0.46322 0.12785-0.44812 0.37706-0.72768 0.47852-1.251 0.45404-0.28012-0.01313-1.4098-1.1421-1.5239-1.5231-0.1203-0.40153 8.75e-4 -0.79658 0.38114-1.2406 0.27721-0.32384 0.2867-0.3532 0.1901-0.5883-0.05594-0.13609-0.18242-0.46025-0.28111-0.72033l-0.17943-0.47288-0.57342-0.09602c-0.96924-0.16228-1.2316-0.58253-1.1604-1.8576 0.03305-0.59088 0.06867-0.72908 0.24793-0.96416 0.2107-0.27624 0.42576-0.36948 1.145-0.49644 0.33086-0.05842 0.35456-0.08084 0.48202-0.45588 0.07371-0.21693 0.21107-0.54537 0.30518-0.72981l0.1711-0.33538-0.32471-0.46041c-0.38994-0.55292-0.44584-1.0205-0.1685-1.4099 0.3138-0.44068 1.1721-1.1804 1.4292-1.2318 0.31866-0.06377 0.77867 0.0946 1.1659 0.40125l0.30254 0.23964 0.50342-0.22854c0.27689-0.12568 0.63986-0.26939 0.8066-0.31935 0.32205-0.09649 0.3432-0.13239 0.42269-0.71743 0.06158-0.4533 0.33261-0.80241 0.72294-0.93122 0.43224-0.14265 1.7483-0.06648 2.0253 0.11716 0.29262 0.19405 0.45345 0.52228 0.50616 1.0328 0.04262 0.41329 0.04766 0.42007 0.40768 0.55512 0.20048 0.07516 0.56688 0.23763 0.8142 0.36099 0.24733 0.12335 0.46933 0.19247 0.49332 0.15364 0.024-0.0388 0.20949-0.18048 0.4122-0.31475 0.66764-0.44223 1.158-0.30283 1.9522 0.55501 0.70222 0.75847 0.7498 1.2172 0.19747 1.9045-0.27397 0.34093-0.27276 0.38826 0.02869 1.1238 0.10673 0.26042 0.21464 0.53369 0.23982 0.60725 0.02742 0.08013 0.16608 0.15344 0.34586 0.18288 0.16504 0.02698 0.39983 0.0678 0.52178 0.09056 0.12193 0.02277 0.3402 0.15995 0.48505 0.30482 0.31472 0.31472 0.40427 0.77439 0.32199 1.6525-0.04399 0.4696-0.09483 0.62266-0.28222 0.85003-0.23447 0.28444-0.67348 0.45512-1.1708 0.45512-0.17593 0-0.2498 0.0451-0.29041 0.17755-0.02998 0.09767-0.17974 0.45369-0.33287 0.79117l-0.27842 0.61358 0.16144 0.17558c0.47213 0.51349 0.61501 1.093 0.38101 1.5456-0.17927 0.34668-1.1859 1.2516-1.4589 1.3117-0.35182 0.07725-0.67678-0.01664-1.0554-0.30488-0.18279-0.13917-0.3718-0.27714-0.42005-0.30664-0.04825-0.02952-0.38562 0.0691-0.74972 0.21906-0.3641 0.14998-0.70571 0.27332-0.75915 0.27412-0.09865 6.65e-4 -0.1377 0.12351-0.20812 0.65045-0.05748 0.43001-0.21255 0.70283-0.51531 0.90661-0.23756 0.15991-0.3636 0.18048-1.1048 0.18022-0.69009-2.8e-4 -0.88086-0.02724-1.0889-0.15407zm2.304-5.2458c0.79213-0.32981 1.3703-0.96652 1.6272-1.7921 0.32333-1.0388 0.07038-2.0482-0.70815-2.8259-0.86782-0.8669-2.2054-1.0882-3.2762-0.54201-0.47672 0.2432-1.0237 0.8012-1.2788 1.3047-0.20743 0.40938-0.23115 0.53326-0.23115 1.2071 0 0.68932 0.02127 0.79414 0.25939 1.2782 0.65721 1.3362 2.2427 1.9383 3.6074 1.37zm13.008-2.6557c-0.39443-0.11642-0.62996-0.46717-0.77725-1.1573-0.07182-0.33663-0.14671-0.67099-0.16637-0.74303-0.02254-0.08241-0.18821-0.16677-0.447-0.22755-0.22619-0.05317-0.63273-0.1842-0.90337-0.2913l-0.49216-0.19474-0.52143 0.4778c-0.94436 0.8654-1.2658 0.84986-2.4216-0.11666-1.3638-1.1404-1.4193-1.367-0.62826-2.5665l0.34589-0.52452-0.21241-0.3365c-0.11682-0.18506-0.31343-0.56163-0.4369-0.83681l-0.22448-0.5003h-0.63305c-0.7933 0-1.2019-0.15119-1.4371-0.53186-0.1408-0.2278-0.18712-0.47685-0.25176-1.3534-0.04356-0.59082-0.05355-1.1764-0.02221-1.3014 0.10029-0.39962 0.42713-0.64058 1.0752-0.79278 0.32532-0.07638 0.6504-0.15472 0.72243-0.17411 0.0825-0.02225 0.16678-0.18737 0.22779-0.44654 0.05321-0.22619 0.18395-0.65523 0.29044-0.95347l0.19362-0.54219-0.31089-0.32589c-0.56778-0.59517-0.72923-0.86665-0.72923-1.2264 0-0.42459 0.05842-0.53001 0.76428-1.379 0.73425-0.88314 0.90065-1.0125 1.3552-1.0534 0.36985-0.03325 0.45848 0.0052 1.4038 0.60868 0.1527 0.09749 0.22258 0.07725 0.71026-0.20557 0.2975-0.17253 0.72275-0.39578 0.94506-0.4961l0.40418-0.18242 0.05535-0.6817c0.07397-0.91134 0.27401-1.2286 0.87255-1.3837 0.08681-0.02245 0.59251-0.0798 1.1237-0.12737 0.90293-0.08084 0.98938-0.07613 1.3249 0.07231 0.40208 0.17786 0.61112 0.53334 0.70985 1.207 0.07234 0.49376 0.15098 0.57315 0.70836 0.71522 0.26043 0.06638 0.69254 0.20325 0.9603 0.30414l0.48672 0.18343 0.43611-0.41245c0.63952-0.60486 0.99227-0.70045 1.5332-0.41556 0.3848 0.20264 1.6831 1.3367 1.8144 1.585 0.183 0.34583 0.07626 0.88182-0.28646 1.4385-0.1802 0.2766-0.32764 0.532-0.32764 0.56758 0 0.03557 0.10566 0.23639 0.23479 0.44624 0.12912 0.20986 0.32114 0.58667 0.42665 0.8373l0.19189 0.45581 0.72108 0.0464c1.1768 0.07564 1.3594 0.31089 1.5064 1.941 0.08718 0.96661 0.08344 1.0614-0.05329 1.3365-0.2075 0.41763-0.48255 0.58848-1.1892 0.73857l-0.61528 0.13069-0.16832 0.58675c-0.09257 0.32272-0.22574 0.72418-0.29593 0.89216-0.07021 0.168-0.12763 0.35471-0.12763 0.41486 0 0.06017 0.19662 0.3233 0.43693 0.58468 0.61454 0.66845 0.71936 1.0152 0.45902 1.5187-0.22048 0.42637-1.4213 1.7623-1.6805 1.8697-0.38266 0.15851-0.8018 0.05535-1.432-0.35222l-0.57365-0.37109-0.2819 0.16994c-0.15503 0.09347-0.57487 0.3083-0.93297 0.47739l-0.65106 0.30745-1.53e-4 0.65468c-2.9e-4 1.0955-0.28858 1.4504-1.2698 1.5621-1.0911 0.12432-1.6888 0.14675-1.9393 0.07278zm2.0667-6.707c2.1807-1.0255 2.6887-3.9014 0.99008-5.6041-0.61937-0.62076-1.3279-0.94716-2.1702-0.99963-1.1764-0.07341-1.9354 0.20494-2.7317 1.0018-0.73237 0.73291-0.95522 1.2337-1.0025 2.2533-0.03091 0.66656-0.01 0.86782 0.13501 1.2956 0.29422 0.86806 0.93148 1.6095 1.7319 2.0151 0.58649 0.29719 0.90679 0.35688 1.7453 0.32524 0.65075-0.02461 0.82511-0.06306 1.3021-0.28737zm-21.862-1.3687c-0.53348-0.23711-0.67071-0.56299-0.79105-1.8791-0.03067-0.3352-0.09604-0.63981-0.14531-0.67692-0.04928-0.03714-0.26714-0.13047-0.48417-0.20747-0.21701-0.07699-0.67263-0.26761-1.0125-0.42356-0.42342-0.19432-0.6506-0.26008-0.72191-0.20898-0.05723 0.04099-0.41387 0.31089-0.79257 0.59972-1.131 0.86267-1.3405 0.82297-2.7012-0.51112-1.0947-1.0733-1.3041-1.3591-1.3041-1.7798 0-0.37362 0.12636-0.60926 0.76113-1.4193l0.51696-0.6597-0.20784-0.40567c-0.1143-0.22313-0.31962-0.6898-0.45625-1.037l-0.24843-0.63133-0.75284-0.08779c-1.1357-0.13245-1.2822-0.17195-1.5058-0.40643-0.33366-0.34977-0.37397-0.57377-0.37397-2.0783 0-2.174 0.06645-2.2647 1.8081-2.4697l0.74278-0.08741 0.21304-0.63134c0.11716-0.34724 0.32027-0.86665 0.45135-1.1542l0.23832-0.52292-0.46807-0.58191c-0.53754-0.66829-0.6737-0.89741-0.69744-1.1738-0.0503-0.58555-0.03229-0.61478 1.0752-1.74 0.59108-0.60056 1.1913-1.1472 1.3338-1.2148 0.52237-0.24788 0.83035-0.14448 1.7527 0.58851l0.57044 0.45333 0.66273-0.33261c0.36452-0.18294 0.91318-0.41314 1.2194-0.51159 0.62257-0.20018 0.57234-0.11122 0.69332-1.2281 0.06867-0.63408 0.19864-0.92474 0.52456-1.1733l0.2723-0.2077h1.6184c1.5554 0 1.6288 0.0071 1.8865 0.18052 0.3651 0.24577 0.47201 0.50544 0.59009 1.4333 0.05552 0.43623 0.10345 0.79913 0.10652 0.80646 0.0033 0.0072 0.24531 0.09155 0.53827 0.1872 0.29297 0.09564 0.82614 0.31556 1.1848 0.48874l0.6521 0.31483 0.43533-0.3442c1.0441-0.82552 1.2958-0.90827 1.8887-0.62131 0.41673 0.20173 2.1299 1.9326 2.2885 2.312 0.23865 0.57117 0.17478 0.75497-0.6075 1.7486l-0.43136 0.54787 0.29661 0.63585c0.16313 0.34972 0.35809 0.83119 0.43319 1.0699 0.07516 0.23873 0.16267 0.46346 0.19453 0.49942 0.03185 0.03595 0.43588 0.11502 0.89785 0.17569 0.95242 0.1251 1.0671 0.17079 1.3462 0.53687 0.2001 0.26234 0.2005 0.26623 0.2005 1.9296v1.6668l-0.24407 0.27797c-0.277 0.31551-0.51533 0.39647-1.5304 0.52009-0.39 0.04748-0.71241 0.09278-0.7165 0.10066-0.0042 0.0079-0.08914 0.26291-0.18901 0.56674-0.09986 0.30383-0.30126 0.79125-0.44752 1.0831-0.14625 0.29189-0.26594 0.5623-0.26594 0.60088 0 0.03858 0.20903 0.33526 0.46449 0.65927 1.0516 1.3335 1.0231 1.4778-0.60716 3.0797-1.4214 1.3967-1.5995 1.4303-2.7567 0.51994-0.33681-0.26497-0.65164-0.51208-0.69964-0.54912-0.05279-0.04073-0.34909 0.05422-0.74972 0.24052-0.36433 0.16937-0.87555 0.37269-1.1359 0.45185-0.26043 0.07918-0.49595 0.17576-0.52342 0.21466-0.02741 0.03889-0.07302 0.32396-0.10132 0.63348-0.16808 1.8399-0.30443 1.9455-2.5097 1.9407-1.0255-0.0026-1.5112-0.03354-1.6795-0.10832zm2.8701-7.8159c1.4689-0.39095 2.6183-1.5218 3.0543-3.005 0.19427-0.66102 0.17721-1.7346-0.03844-2.4164-0.4336-1.3713-1.6936-2.5359-3.1034-2.8682-2.4248-0.57172-4.8177 1.0611-5.205 3.5517-0.31596 2.0325 1.0438 4.1276 3.0538 4.7052 0.58685 0.16862 1.6686 0.1844 2.2388 0.03265z" fill="#333" stroke-width=".99999"/></g></svg>
