<svg width="385mm" height="290mm" version="1.1" viewBox="0 0 385 290" xmlns="http://www.w3.org/2000/svg"><g transform="matrix(3.5934 .77953 -.77953 3.5934 -233.61 -163.22)" stroke-width=".27196"><path d="m145.87 18.203-22.043 58.208-48.356-28.205z" fill="#e6e6e6" stroke-width="0" style="paint-order:fill markers stroke"/><path d="m92.821 69.648 13.36-9.7284-11.298-5.8408z" fill="#808080"/><path d="m107.07 47.747 16.749 28.664-48.356-28.205z" fill="#ccc" stroke-width="0" style="paint-order:fill markers stroke"/><path d="m145.87 18.203-56.991 37.824 3.9457 13.621 3.8617-9.0669z" fill="#a4a4a4" stroke-width="0" style="paint-order:fill markers stroke"/><g transform="matrix(.24441 -.1097 .1097 .24441 121.1 62.019)"><g transform="matrix(.59525 0 0 .59525 -5.775 -177.91)" stroke-width="1.7055"><g transform="translate(-72.041,-5.3583)" stroke-width="1.7055"><path d="m23.885 123.7c-0.67082 5.6017 1.4782 9.5326 4.0898 14.012 2.6116 4.4792 6.2116 9.1193 10.512 13.477 8.6003 8.7146 19.885 16.867 32.902 16.42l-0.49609-14.459c-5.8139 0.19965-15.108-4.5015-22.107-11.594-3.4997-3.5462-6.4545-7.9442-8.3125-11.131s-2.094-6.0784-2.2227-5.0039z" color="#000000" color-rendering="auto" dominant-baseline="auto" fill="#4d4d4d" image-rendering="auto" shape-rendering="auto" solid-color="#000000" stop-color="#000000" stroke-width="3.1195" style="font-feature-settings:normal;font-variant-alternates:normal;font-variant-caps:normal;font-variant-east-asian:normal;font-variant-ligatures:normal;font-variant-numeric:normal;font-variant-position:normal;font-variation-settings:normal;inline-size:0;isolation:auto;mix-blend-mode:normal;shape-margin:0;shape-padding:0;text-decoration-color:#000000;text-decoration-line:none;text-decoration-style:solid;text-indent:0;text-orientation:mixed;text-transform:none;white-space:normal"/></g><g fill="#f4e3d7"><g transform="rotate(-15.682,-55.475,258.88)" shape-rendering="auto" stroke-width="3.1195"><path d="m-5.1836 113.52c-6.6161-6.7e-4 -11.983 4.7786-11.984 10.676-0.0015 5.8972 5.3624 10.678 11.979 10.68 6.6161 2e-3 11.983-4.7747 11.986-10.672 3.783e-4 -2e-3 3.783e-4 -4e-3 0-6e-3 -2.454e-4 -2e-3 -9.083e-4 -4e-3 -0.00195-6e-3 -0.00386-5.8942-5.3648-10.671-11.979-10.672z" color="#000000" color-rendering="auto" dominant-baseline="auto" image-rendering="auto" solid-color="#000000" stop-color="#000000" style="font-feature-settings:normal;font-variant-alternates:normal;font-variant-caps:normal;font-variant-east-asian:normal;font-variant-ligatures:normal;font-variant-numeric:normal;font-variant-position:normal;font-variation-settings:normal;inline-size:0;isolation:auto;mix-blend-mode:normal;paint-order:stroke fill markers;shape-margin:0;shape-padding:0;text-decoration-color:#000000;text-decoration-line:none;text-decoration-style:solid;text-indent:0;text-orientation:mixed;text-transform:none;white-space:normal"/><path d="m6.7817 124.2c-0.00304 5.8875 5.7e-6 -5.8924 1.3e-6 -5e-3z" color="#000000" color-rendering="auto" dominant-baseline="auto" image-rendering="auto" solid-color="#000000" stop-color="#000000" style="font-feature-settings:normal;font-variant-alternates:normal;font-variant-caps:normal;font-variant-east-asian:normal;font-variant-ligatures:normal;font-variant-numeric:normal;font-variant-position:normal;font-variation-settings:normal;inline-size:0;isolation:auto;mix-blend-mode:normal;paint-order:stroke fill markers;shape-margin:0;shape-padding:0;text-decoration-color:#000000;text-decoration-line:none;text-decoration-style:solid;text-indent:0;text-orientation:mixed;text-transform:none;white-space:normal"/></g><g transform="rotate(-77.743,-39.344,42.007)" stroke-width="1.7055"><path d="m-116.78 34.967c-2.7317 0-4.9316 2.198-4.9316 4.9297v6.9863c0 2.7317 2.2 4.9316 4.9316 4.9316s4.9316-2.2 4.9316-4.9316v-6.9863c0-2.7317-2.2-4.9297-4.9316-4.9297z" color="#000000" color-rendering="auto" dominant-baseline="auto" fill="#f4e3d7" image-rendering="auto" shape-rendering="auto" solid-color="#000000" stop-color="#000000" stroke-width="3.1195" style="font-feature-settings:normal;font-variant-alternates:normal;font-variant-caps:normal;font-variant-east-asian:normal;font-variant-ligatures:normal;font-variant-numeric:normal;font-variant-position:normal;font-variation-settings:normal;inline-size:0;isolation:auto;mix-blend-mode:normal;paint-order:stroke fill markers;shape-margin:0;shape-padding:0;text-decoration-color:#000000;text-decoration-line:none;text-decoration-style:solid;text-indent:0;text-orientation:mixed;text-transform:none;white-space:normal"/></g><g transform="rotate(-48.52,-41.965,77.247)" stroke-width="1.7055"><path d="m-72.047 80.547c-2.7317 0-4.9316 2.2-4.9316 4.9316v6.9863c0 2.7317 2.2 4.9297 4.9316 4.9297s4.9316-2.198 4.9316-4.9297v-6.9863c0-2.7317-2.2-4.9316-4.9316-4.9316z" color="#000000" color-rendering="auto" dominant-baseline="auto" fill="#f4e3d7" image-rendering="auto" shape-rendering="auto" solid-color="#000000" stop-color="#000000" stroke-width="3.1195" style="font-feature-settings:normal;font-variant-alternates:normal;font-variant-caps:normal;font-variant-east-asian:normal;font-variant-ligatures:normal;font-variant-numeric:normal;font-variant-position:normal;font-variation-settings:normal;inline-size:0;isolation:auto;mix-blend-mode:normal;paint-order:stroke fill markers;shape-margin:0;shape-padding:0;text-decoration-color:#000000;text-decoration-line:none;text-decoration-style:solid;text-indent:0;text-orientation:mixed;text-transform:none;white-space:normal"/></g><g transform="rotate(-5.6363,-90.447,729.07)" stroke-width="1.7055"><path d="m18.326 101.36c-2.7317 0-4.9316 2.198-4.9316 4.9297v6.9863c0 2.7317 2.2 4.9316 4.9316 4.9316s4.9316-2.2 4.9316-4.9316v-6.9863c1e-6 -2.7317-2.2-4.9297-4.9316-4.9297z" color="#000000" color-rendering="auto" dominant-baseline="auto" fill="#f4e3d7" image-rendering="auto" shape-rendering="auto" solid-color="#000000" stop-color="#000000" stroke-width="3.1195" style="font-feature-settings:normal;font-variant-alternates:normal;font-variant-caps:normal;font-variant-east-asian:normal;font-variant-ligatures:normal;font-variant-numeric:normal;font-variant-position:normal;font-variation-settings:normal;inline-size:0;isolation:auto;mix-blend-mode:normal;paint-order:stroke fill markers;shape-margin:0;shape-padding:0;text-decoration-color:#000000;text-decoration-line:none;text-decoration-style:solid;text-indent:0;text-orientation:mixed;text-transform:none;white-space:normal"/></g><g transform="rotate(23.642,-23.22,-174.78)" stroke-width="1.7055"><path d="m80.041 80.461c-2.7317 0-4.9316 2.2-4.9316 4.9316v6.9844c0 2.7317 2.2 4.9316 4.9316 4.9316 2.7317 0 4.9316-2.2 4.9316-4.9316v-6.9844c0-2.7317-2.2-4.9316-4.9316-4.9316z" color="#000000" color-rendering="auto" dominant-baseline="auto" fill="#f4e3d7" image-rendering="auto" shape-rendering="auto" solid-color="#000000" stop-color="#000000" stroke-width="3.1195" style="font-feature-settings:normal;font-variant-alternates:normal;font-variant-caps:normal;font-variant-east-asian:normal;font-variant-ligatures:normal;font-variant-numeric:normal;font-variant-position:normal;font-variation-settings:normal;inline-size:0;isolation:auto;mix-blend-mode:normal;paint-order:stroke fill markers;shape-margin:0;shape-padding:0;text-decoration-color:#000000;text-decoration-line:none;text-decoration-style:solid;text-indent:0;text-orientation:mixed;text-transform:none;white-space:normal"/></g></g></g><g transform="matrix(-.59525 0 0 .59525 30.175 -177.91)" stroke-width="1.7055"><g transform="translate(-72.041,-5.3583)" stroke-width="1.7055"><path d="m23.885 123.7c-0.67082 5.6017 1.4782 9.5326 4.0898 14.012 2.6116 4.4792 6.2116 9.1193 10.512 13.477 8.6003 8.7146 19.885 16.867 32.902 16.42l-0.49609-14.459c-5.8139 0.19965-15.108-4.5015-22.107-11.594-3.4997-3.5462-6.4545-7.9442-8.3125-11.131s-2.094-6.0784-2.2227-5.0039z" color="#000000" color-rendering="auto" dominant-baseline="auto" fill="#4d4d4d" image-rendering="auto" shape-rendering="auto" solid-color="#000000" stop-color="#000000" stroke-width="3.1195" style="font-feature-settings:normal;font-variant-alternates:normal;font-variant-caps:normal;font-variant-east-asian:normal;font-variant-ligatures:normal;font-variant-numeric:normal;font-variant-position:normal;font-variation-settings:normal;inline-size:0;isolation:auto;mix-blend-mode:normal;shape-margin:0;shape-padding:0;text-decoration-color:#000000;text-decoration-line:none;text-decoration-style:solid;text-indent:0;text-orientation:mixed;text-transform:none;white-space:normal"/></g><g fill="#f4e3d7"><g transform="rotate(-15.682,-55.475,258.88)" shape-rendering="auto" stroke-width="3.1195"><path d="m-5.1836 113.52c-6.6161-6.7e-4 -11.983 4.7786-11.984 10.676-0.0015 5.8972 5.3624 10.678 11.979 10.68 6.6161 2e-3 11.983-4.7747 11.986-10.672 3.783e-4 -2e-3 3.783e-4 -4e-3 0-6e-3 -2.454e-4 -2e-3 -9.083e-4 -4e-3 -0.00195-6e-3 -0.00386-5.8942-5.3648-10.671-11.979-10.672z" color="#000000" color-rendering="auto" dominant-baseline="auto" image-rendering="auto" solid-color="#000000" stop-color="#000000" style="font-feature-settings:normal;font-variant-alternates:normal;font-variant-caps:normal;font-variant-east-asian:normal;font-variant-ligatures:normal;font-variant-numeric:normal;font-variant-position:normal;font-variation-settings:normal;inline-size:0;isolation:auto;mix-blend-mode:normal;paint-order:stroke fill markers;shape-margin:0;shape-padding:0;text-decoration-color:#000000;text-decoration-line:none;text-decoration-style:solid;text-indent:0;text-orientation:mixed;text-transform:none;white-space:normal"/><path d="m6.7817 124.2c-0.00304 5.8875 5.7e-6 -5.8924 1.3e-6 -5e-3z" color="#000000" color-rendering="auto" dominant-baseline="auto" image-rendering="auto" solid-color="#000000" stop-color="#000000" style="font-feature-settings:normal;font-variant-alternates:normal;font-variant-caps:normal;font-variant-east-asian:normal;font-variant-ligatures:normal;font-variant-numeric:normal;font-variant-position:normal;font-variation-settings:normal;inline-size:0;isolation:auto;mix-blend-mode:normal;paint-order:stroke fill markers;shape-margin:0;shape-padding:0;text-decoration-color:#000000;text-decoration-line:none;text-decoration-style:solid;text-indent:0;text-orientation:mixed;text-transform:none;white-space:normal"/></g><g transform="rotate(-77.743,-39.344,42.007)" stroke-width="1.7055"><path d="m-116.78 34.967c-2.7317 0-4.9316 2.198-4.9316 4.9297v6.9863c0 2.7317 2.2 4.9316 4.9316 4.9316s4.9316-2.2 4.9316-4.9316v-6.9863c0-2.7317-2.2-4.9297-4.9316-4.9297z" color="#000000" color-rendering="auto" dominant-baseline="auto" fill="#f4e3d7" image-rendering="auto" shape-rendering="auto" solid-color="#000000" stop-color="#000000" stroke-width="3.1195" style="font-feature-settings:normal;font-variant-alternates:normal;font-variant-caps:normal;font-variant-east-asian:normal;font-variant-ligatures:normal;font-variant-numeric:normal;font-variant-position:normal;font-variation-settings:normal;inline-size:0;isolation:auto;mix-blend-mode:normal;paint-order:stroke fill markers;shape-margin:0;shape-padding:0;text-decoration-color:#000000;text-decoration-line:none;text-decoration-style:solid;text-indent:0;text-orientation:mixed;text-transform:none;white-space:normal"/></g><g transform="rotate(-48.52,-41.965,77.247)" stroke-width="1.7055"><path d="m-72.047 80.547c-2.7317 0-4.9316 2.2-4.9316 4.9316v6.9863c0 2.7317 2.2 4.9297 4.9316 4.9297s4.9316-2.198 4.9316-4.9297v-6.9863c0-2.7317-2.2-4.9316-4.9316-4.9316z" color="#000000" color-rendering="auto" dominant-baseline="auto" fill="#f4e3d7" image-rendering="auto" shape-rendering="auto" solid-color="#000000" stop-color="#000000" stroke-width="3.1195" style="font-feature-settings:normal;font-variant-alternates:normal;font-variant-caps:normal;font-variant-east-asian:normal;font-variant-ligatures:normal;font-variant-numeric:normal;font-variant-position:normal;font-variation-settings:normal;inline-size:0;isolation:auto;mix-blend-mode:normal;paint-order:stroke fill markers;shape-margin:0;shape-padding:0;text-decoration-color:#000000;text-decoration-line:none;text-decoration-style:solid;text-indent:0;text-orientation:mixed;text-transform:none;white-space:normal"/></g><g transform="rotate(-5.6363,-90.447,729.07)" stroke-width="1.7055"><path d="m18.326 101.36c-2.7317 0-4.9316 2.198-4.9316 4.9297v6.9863c0 2.7317 2.2 4.9316 4.9316 4.9316s4.9316-2.2 4.9316-4.9316v-6.9863c1e-6 -2.7317-2.2-4.9297-4.9316-4.9297z" color="#000000" color-rendering="auto" dominant-baseline="auto" fill="#f4e3d7" image-rendering="auto" shape-rendering="auto" solid-color="#000000" stop-color="#000000" stroke-width="3.1195" style="font-feature-settings:normal;font-variant-alternates:normal;font-variant-caps:normal;font-variant-east-asian:normal;font-variant-ligatures:normal;font-variant-numeric:normal;font-variant-position:normal;font-variation-settings:normal;inline-size:0;isolation:auto;mix-blend-mode:normal;paint-order:stroke fill markers;shape-margin:0;shape-padding:0;text-decoration-color:#000000;text-decoration-line:none;text-decoration-style:solid;text-indent:0;text-orientation:mixed;text-transform:none;white-space:normal"/></g><g transform="rotate(23.642,-23.22,-174.78)" stroke-width="1.7055"><path d="m80.041 80.461c-2.7317 0-4.9316 2.2-4.9316 4.9316v6.9844c0 2.7317 2.2 4.9316 4.9316 4.9316 2.7317 0 4.9316-2.2 4.9316-4.9316v-6.9844c0-2.7317-2.2-4.9316-4.9316-4.9316z" color="#000000" color-rendering="auto" dominant-baseline="auto" fill="#f4e3d7" image-rendering="auto" shape-rendering="auto" solid-color="#000000" stop-color="#000000" stroke-width="3.1195" style="font-feature-settings:normal;font-variant-alternates:normal;font-variant-caps:normal;font-variant-east-asian:normal;font-variant-ligatures:normal;font-variant-numeric:normal;font-variant-position:normal;font-variation-settings:normal;inline-size:0;isolation:auto;mix-blend-mode:normal;paint-order:stroke fill markers;shape-margin:0;shape-padding:0;text-decoration-color:#000000;text-decoration-line:none;text-decoration-style:solid;text-indent:0;text-orientation:mixed;text-transform:none;white-space:normal"/></g></g></g><g shape-rendering="auto" stroke-width="1.0152"><path d="m9.1371-132.5 6.1602-0.0626c15.114-0.15356 27.405 11.891 27.559 27.005l0.42472 41.802c0.15356 15.114-11.891 27.405-27.005 27.559l-6.1602 0.0626c-15.114 0.15356-27.405-11.891-27.559-27.005l-0.42472-41.802c-0.15356-15.114 11.891-27.405 27.005-27.559z" color="#000000" color-rendering="auto" dominant-baseline="auto" fill="#f4e3d7" fill-rule="evenodd" image-rendering="auto" solid-color="#000000" stop-color="#000000" style="font-feature-settings:normal;font-variant-alternates:normal;font-variant-caps:normal;font-variant-east-asian:normal;font-variant-ligatures:normal;font-variant-numeric:normal;font-variant-position:normal;font-variation-settings:normal;inline-size:0;isolation:auto;mix-blend-mode:normal;shape-margin:0;shape-padding:0;text-decoration-color:#000000;text-decoration-line:none;text-decoration-style:solid;text-indent:0;text-orientation:mixed;text-transform:none;white-space:normal"/><path d="m4.2103-117.63c-1.5442 0-2.9715 0.37017-4.147 1.1102-1.1754 0.74013-2.2054 2.0118-2.2054 3.6215a1.9791 1.9791 0 0 0 1.9787 1.9799 1.9791 1.9791 0 0 0 1.9799-1.9799c0 0.0891-0.0515-0.0156 0.35575-0.27205 0.40724-0.25641 1.1672-0.50108 2.038-0.50108 0.87079 0 1.6296 0.24467 2.0369 0.50108s0.35692 0.36113 0.35692 0.27205a1.9791 1.9791 0 0 0 1.9787 1.9799 1.9791 1.9791 0 0 0 1.9787-1.9799c0-1.6097-1.03-2.8814-2.2054-3.6215-1.1754-0.74007-2.6015-1.1102-4.1458-1.1102z" color="#000000" color-rendering="auto" dominant-baseline="auto" fill="#4d4d4d" image-rendering="auto" solid-color="#000000" stop-color="#000000" style="font-feature-settings:normal;font-variant-alternates:normal;font-variant-caps:normal;font-variant-east-asian:normal;font-variant-ligatures:normal;font-variant-numeric:normal;font-variant-position:normal;font-variation-settings:normal;inline-size:0;isolation:auto;mix-blend-mode:normal;paint-order:stroke fill markers;shape-margin:0;shape-padding:0;text-decoration-color:#000000;text-decoration-line:none;text-decoration-style:solid;text-indent:0;text-orientation:mixed;text-transform:none;white-space:normal"/><path d="m21.105-117.63c-1.5442 0-2.9715 0.37017-4.147 1.1102-1.1754 0.74013-2.2055 2.0118-2.2055 3.6215a1.9791 1.9791 0 0 0 1.9799 1.9799 1.9791 1.9791 0 0 0 1.9787-1.9799c0 0.0891-0.0503-0.0156 0.35692-0.27205 0.40723-0.25641 1.166-0.50108 2.0369-0.50108 0.87085 0 1.6308 0.24467 2.038 0.50108 0.40723 0.25641 0.35575 0.36113 0.35575 0.27205a1.9791 1.9791 0 0 0 1.9787 1.9799 1.9791 1.9791 0 0 0 1.9799-1.9799c0-1.6097-1.03-2.8814-2.2054-3.6215-1.1754-0.74007-2.6027-1.1102-4.147-1.1102z" color="#000000" color-rendering="auto" dominant-baseline="auto" fill="#4d4d4d" image-rendering="auto" solid-color="#000000" stop-color="#000000" style="font-feature-settings:normal;font-variant-alternates:normal;font-variant-caps:normal;font-variant-east-asian:normal;font-variant-ligatures:normal;font-variant-numeric:normal;font-variant-position:normal;font-variation-settings:normal;inline-size:0;isolation:auto;mix-blend-mode:normal;paint-order:stroke fill markers;shape-margin:0;shape-padding:0;text-decoration-color:#000000;text-decoration-line:none;text-decoration-style:solid;text-indent:0;text-orientation:mixed;text-transform:none;white-space:normal"/></g><g fill-rule="evenodd" stroke-width="1.0152"><path d="m43.069-84.663 0.21235 20.902c0.15357 15.114-11.891 27.405-27.005 27.559l-6.1602 0.0626c-15.114 0.15356-27.405-11.891-27.559-27.005l-0.21236-20.902 60.721-0.61697" color="#000000" color-rendering="auto" dominant-baseline="auto" fill="#73a9ad" image-rendering="auto" shape-rendering="auto" solid-color="#000000" stop-color="#000000" style="font-feature-settings:normal;font-variant-alternates:normal;font-variant-caps:normal;font-variant-east-asian:normal;font-variant-ligatures:normal;font-variant-numeric:normal;font-variant-position:normal;font-variation-settings:normal;inline-size:0;isolation:auto;mix-blend-mode:normal;shape-margin:0;shape-padding:0;text-decoration-color:#000000;text-decoration-line:none;text-decoration-style:solid;text-indent:0;text-orientation:mixed;text-transform:none;white-space:normal"/><path d="m-17.638-82.02 0.019 2.7392 60.721-0.90513-0.019-2.7392z" color="#000000" color-rendering="auto" dominant-baseline="auto" fill="#5a8387" image-rendering="auto" shape-rendering="auto" solid-color="#000000" stop-color="#000000" style="font-feature-settings:normal;font-variant-alternates:normal;font-variant-caps:normal;font-variant-east-asian:normal;font-variant-ligatures:normal;font-variant-numeric:normal;font-variant-position:normal;font-variation-settings:normal;inline-size:0;isolation:auto;mix-blend-mode:normal;shape-margin:0;shape-padding:0;text-decoration-color:#000000;text-decoration-line:none;text-decoration-style:solid;text-indent:0;text-orientation:mixed;text-transform:none;white-space:normal"/><path d="m22.227-79.657a9.4912 9.4912 0 0 1-9.3948 9.5877 9.4912 9.4912 0 0 1-9.5876-9.3948 9.4912 9.4912 0 0 1 9.3948-9.5877 9.4912 9.4912 0 0 1 9.5876 9.3948z" fill="#5a8387" style="paint-order:stroke fill markers"/><path d="m19.544-79.627a6.8084 6.8084 0 0 1-6.7388 6.8775 6.8084 6.8084 0 0 1-6.8775-6.7388 6.8084 6.8084 0 0 1 6.7388-6.8775 6.8084 6.8084 0 0 1 6.8775 6.7388z" fill="#7bb0ad" style="paint-order:stroke fill markers"/><path d="m16.678-79.603a3.942 3.942 0 0 1-3.9017 3.9818 3.942 3.942 0 0 1-3.9818-3.9017 3.942 3.942 0 0 1 3.9017-3.9818 3.942 3.942 0 0 1 3.9818 3.9017z" fill="#fdffff" style="paint-order:stroke fill markers"/></g><path d="m8.1478-100.82a2.0939 2.0939 0 0 0-2.0938 2.0938c0 1.7662 1.2184 3.0512 2.5008 3.7726s2.8177 1.0754 4.4876 1.0754 3.2052-0.35402 4.4876-1.0754c1.2824-0.72138 2.5008-2.0065 2.5008-3.7726a2.0939 2.0939 0 0 0-2.0938-2.0938 2.0939 2.0939 0 0 0-2.0938 2.0903c3e-3 -0.23368 0.11651-0.14598-0.36622 0.12556-0.48911 0.27513-1.4011 0.53828-2.4344 0.53828s-1.9454-0.26315-2.4344-0.53828c-0.4891-0.27513-0.36621-0.36762-0.36621-0.12207a2.0939 2.0939 0 0 0-2.0938-2.0938z" color="#000000" color-rendering="auto" dominant-baseline="auto" fill="#4d4d4d" image-rendering="auto" shape-rendering="auto" solid-color="#000000" stop-color="#000000" stroke-width="1.0152" style="font-feature-settings:normal;font-variant-alternates:normal;font-variant-caps:normal;font-variant-east-asian:normal;font-variant-ligatures:normal;font-variant-numeric:normal;font-variant-position:normal;font-variation-settings:normal;inline-size:0;isolation:auto;mix-blend-mode:normal;paint-order:stroke fill markers;shape-margin:0;shape-padding:0;text-decoration-color:#000000;text-decoration-line:none;text-decoration-style:solid;text-indent:0;text-orientation:mixed;text-transform:none;white-space:normal"/></g><path d="m145.87 18.203-37.281 32.129 15.238 26.08 22.043-58.208" fill="#e6e6e6"/></g><g transform="matrix(2.7144 0 0 2.7144 -132.03 -83.078)" stroke-width="0"><path d="m127.58 35.37-14.395-4.7059c-0.3039-0.09934-0.61816-0.06668-0.88128 0.0668-0.26312 0.13347-0.47511 0.36776-0.57445 0.67166l-2.5105 7.6796c-0.0993 0.30389-0.0667 0.61815 0.0668 0.88128 0.13347 0.26313 0.36776 0.47511 0.67165 0.57445l14.395 4.7059c0.3039 0.09934 0.61816 0.06668 0.88128-0.0668 0.26313-0.13348 0.47511-0.36776 0.57445-0.67166l2.5105-7.6796c0.0993-0.3039 0.0667-0.61816-0.0668-0.88128-0.13348-0.26313-0.36777-0.47511-0.67166-0.57445z" fill="#ac9d93" style="paint-order:fill markers stroke"/><path d="m109.97 40.485c-0.30389-0.09934-0.53811-0.31132-0.67159-0.57444-0.0854-0.1683-0.12927-0.35748-0.124-0.55153 0 0 7.367-2.921 9.1155-3.6121 1.2216-0.54037 1.484-0.45641 2.2047 0.62414 1.0416 1.5648 5.185 8.3707 5.185 8.3707-0.1111 0.16461-0.26094 0.29504-0.43288 0.38226-0.26312 0.13347-0.57744 0.16613-0.88134 0.06679z" fill="#917c6f" fill-opacity=".22936" style="paint-order:fill markers stroke"/><path d="m113.18 30.664c-0.30389-0.09934-0.6181-0.06665-0.88122 0.06683-0.1683 0.08537-0.31546 0.21209-0.42583 0.37179 0 0 4.2191 6.7085 5.2218 8.2989 0.66651 1.1576 0.92785 1.2448 2.1477 0.79866 1.7647-0.64736 9.1282-3.6917 9.1282-3.6917 8e-3 -0.19845-0.0363-0.3922-0.1235-0.56414-0.13348-0.26312-0.36781-0.47514-0.67171-0.57448z" fill="#917c6f" style="paint-order:fill markers stroke"/></g><rect transform="scale(-1,1)" x="-221.95" y="193.01" width="28.656" height="96.992" rx="2.6458" ry="2.6458" fill="#fca" style="paint-order:fill markers stroke"/><rect transform="scale(-1,1)" x="-261.48" y="177.35" width="28.656" height="112.65" rx="2.6458" ry="2.6458" fill="#e9afaf" style="paint-order:fill markers stroke"/><rect transform="scale(-1,1)" x="-181.44" y="216.92" width="28.656" height="73.078" rx="2.6458" ry="2.6458" fill="#aaf" style="paint-order:fill markers stroke"/><rect x="315.83" y="131.83" width="28.656" height="158.17" rx="2.6458" ry="2.6458" fill="#87aade" style="paint-order:fill markers stroke"/><rect x="276.3" y="154.92" width="28.656" height="135.08" rx="2.6458" ry="2.6458" fill="#939dac" style="paint-order:fill markers stroke"/><rect x="356.34" y="100.67" width="28.656" height="189.33" rx="2.6458" ry=".26458" fill="#afdde9" style="paint-order:fill markers stroke"/><path d="m207.09 170.48c51.787-5.5486 98.026-70.283 98.026-70.283" fill="none" stroke="#000" stroke-linecap="round" stroke-width="3.9688"/><path transform="matrix(.38014 .058957 -.05919 .38529 174.23 72.712)" d="m348.96 58.079-41.248-23.169 40.689-24.137z" stroke="#000" stroke-linecap="round" stroke-linejoin="round" stroke-width="10.249" style="paint-order:fill markers stroke"/></svg>
