<svg width="492" height="380" version="1.1" viewBox="0 0 130.18 100.54" xmlns="http://www.w3.org/2000/svg"><g stroke-width="0"><rect transform="matrix(-.84803 -.52994 -.52994 .84803 0 0)" x="-31.454" y="-9.367" width="9.0827" height="42.594" ry="0" fill="#f95" style="paint-order:markers fill stroke"/><rect transform="matrix(-.84803 -.52994 -.52994 .84803 0 0)" x="-31.454" y="30.696" width="9.0827" height="5.0113" ry="0" fill="#ffe680" style="paint-order:markers fill stroke"/><path d="m27.787 6.3188-3.8512-2.4067-22.572 36.121 3.8512 2.4067z" fill="#ff7f2a" style="paint-order:markers fill stroke"/><path d="m6.5561 40.294-3.8512-2.4067-2.6557 4.2497 3.8512 2.4067z" fill="#ffd42a" style="paint-order:markers fill stroke"/><path d="m23.892 3.9743 3.8908-1.9704 3.9058-1.9434-0.03706 4.3789-0.06771 4.377-3.8538-2.4085z" fill="#e9c6af" style="paint-order:markers fill stroke"/><path d="m28.721 1.5548 1.4816-0.75033 1.4873-0.74004-0.014113 1.6675-0.025785 1.6668-1.4675-0.91714z" fill="#2b1100" style="paint-order:markers fill stroke"/></g><g stroke-width=".17928"><path d="m122.55 41.647c2.4977-0.0029 2.5698-0.36298 0.70424-3.5146l-1.4548-2.4576 0.51167-0.60176c0.69409-0.81636 1.6054-1.4113 2.2885-1.494 0.54158-0.06557 0.63507 0.01511 2.1408 1.8468 0.86596 1.0534 1.6957 2.0012 1.8441 2.1064 0.40693 0.28839 0.77424-0.21794 1.1858-1.6346 0.72869-2.5084 0.32875-4.8219-1.1619-6.7217-1.3158-1.6769-3.5362-2.6947-5.5831-2.5592-1.1787 0.07794-3.1032-0.38112-4.1014-0.97831-1.0897-0.65202-15.684-12.379-16.132-12.964-0.56716-0.73825-1.0292-2.3011-1.1481-3.8834-0.18803-2.5025-1.0765-4.3226-2.8363-5.8095-2.2964-1.9403-6.5683-2.1626-6.6161-0.34424-0.0084 0.32104 0.51907 1.215 1.596 2.7046 1.7669 2.444 1.8067 2.6123 0.86014 3.6339-0.79948 0.86284-2.6369 1.6797-3.0643 1.3624-0.11391-0.084561-0.96203-1.091-1.8847-2.2365-0.94945-1.1788-1.8161-2.0941-1.9967-2.1089-1.1374-0.093441-2.0575 3.5674-1.5408 6.1308 0.20785 1.0312 1.2269 2.9339 1.9991 3.7327 1.4799 1.5309 3.6923 2.3097 5.9334 2.0887 0.90484-0.08919 1.4693-0.01819 2.7754 0.34934l1.6396 0.46132 15.518 12.423 0.73425 1.3707c0.47493 0.88662 0.83228 1.9121 1.0118 2.904 0.53715 2.9667 2.0831 4.9358 4.535 5.776 0.78612 0.26939 1.5844 0.41787 2.2424 0.41709z" fill="#555"/><path d="m123.11 34.322s0.80632-0.65928 1.4895-0.742c0.54159-0.06557 0.63507 0.01511 2.1408 1.8468 0.86596 1.0534 1.6957 2.0012 1.8441 2.1064 0.40693 0.28839 0.77424-0.21794 1.1858-1.6346 0.7287-2.5084 0.32875-4.8219-1.1619-6.7217-1.3158-1.6769-3.5362-2.6947-5.5831-2.5592-1.1787 0.07794-3.1032-0.38112-4.1014-0.97831-1.0897-0.65202-15.684-12.379-16.132-12.964-0.56716-0.73825-1.0292-2.3011-1.1481-3.8834-0.18803-2.5025-1.0766-4.3226-2.8363-5.8095-2.2964-1.9403-6.5683-2.1626-6.6161-0.34424-0.0084 0.32104 0.46119 1.2586 1.596 2.7046 2.0111 2.5626 1.517 2.7591 0.10806 4.3001-1.3036 1.4257 29.215 24.679 29.215 24.679z" fill="#4e4e4e"/></g><g transform="matrix(.59525 0 0 .59525 47.11 -41.29)" stroke-width="1.68"><g transform="translate(-72.041,-5.3583)"><path d="m23.885 123.7c-0.67082 5.6017 1.4782 9.5326 4.0898 14.012 2.6116 4.4792 6.2116 9.1193 10.512 13.477 8.6003 8.7146 19.885 16.867 32.902 16.42l-0.49609-14.459c-5.8139 0.19965-15.108-4.5015-22.107-11.594-3.4997-3.5462-6.4545-7.9442-8.3125-11.131s-2.094-6.0784-2.2227-5.0039z" color="#000000" color-rendering="auto" dominant-baseline="auto" fill="#4d4d4d" image-rendering="auto" shape-rendering="auto" solid-color="#000000" stop-color="#000000" style="font-feature-settings:normal;font-variant-alternates:normal;font-variant-caps:normal;font-variant-east-asian:normal;font-variant-ligatures:normal;font-variant-numeric:normal;font-variant-position:normal;font-variation-settings:normal;inline-size:0;isolation:auto;mix-blend-mode:normal;shape-margin:0;shape-padding:0;text-decoration-color:#000000;text-decoration-line:none;text-decoration-style:solid;text-indent:0;text-orientation:mixed;text-transform:none;white-space:normal"/></g><g fill="#f4e3d7"><g transform="rotate(-15.682,-55.475,258.88)" shape-rendering="auto" stroke-width="1.68"><path d="m-5.1836 113.52c-6.6161-6.7e-4 -11.983 4.7786-11.984 10.676-0.0015 5.8972 5.3624 10.678 11.979 10.68 6.6161 2e-3 11.983-4.7747 11.986-10.672 3.783e-4 -2e-3 3.783e-4 -4e-3 0-6e-3 -2.454e-4 -2e-3 -9.083e-4 -4e-3 -0.00195-6e-3 -0.00386-5.8942-5.3648-10.671-11.979-10.672z" color="#000000" color-rendering="auto" dominant-baseline="auto" image-rendering="auto" solid-color="#000000" stop-color="#000000" style="font-feature-settings:normal;font-variant-alternates:normal;font-variant-caps:normal;font-variant-east-asian:normal;font-variant-ligatures:normal;font-variant-numeric:normal;font-variant-position:normal;font-variation-settings:normal;inline-size:0;isolation:auto;mix-blend-mode:normal;paint-order:stroke fill markers;shape-margin:0;shape-padding:0;text-decoration-color:#000000;text-decoration-line:none;text-decoration-style:solid;text-indent:0;text-orientation:mixed;text-transform:none;white-space:normal"/><path d="m6.7817 124.2c-0.00304 5.8875 5.7e-6 -5.8924 1.3e-6 -5e-3z" color="#000000" color-rendering="auto" dominant-baseline="auto" image-rendering="auto" solid-color="#000000" stop-color="#000000" style="font-feature-settings:normal;font-variant-alternates:normal;font-variant-caps:normal;font-variant-east-asian:normal;font-variant-ligatures:normal;font-variant-numeric:normal;font-variant-position:normal;font-variation-settings:normal;inline-size:0;isolation:auto;mix-blend-mode:normal;paint-order:stroke fill markers;shape-margin:0;shape-padding:0;text-decoration-color:#000000;text-decoration-line:none;text-decoration-style:solid;text-indent:0;text-orientation:mixed;text-transform:none;white-space:normal"/></g><g transform="rotate(-77.743,-39.344,42.007)" stroke-width="1.68"><path d="m-116.78 34.967c-2.7317 0-4.9316 2.198-4.9316 4.9297v6.9863c0 2.7317 2.2 4.9316 4.9316 4.9316s4.9316-2.2 4.9316-4.9316v-6.9863c0-2.7317-2.2-4.9297-4.9316-4.9297z" color="#000000" color-rendering="auto" dominant-baseline="auto" fill="#f4e3d7" image-rendering="auto" shape-rendering="auto" solid-color="#000000" stop-color="#000000" style="font-feature-settings:normal;font-variant-alternates:normal;font-variant-caps:normal;font-variant-east-asian:normal;font-variant-ligatures:normal;font-variant-numeric:normal;font-variant-position:normal;font-variation-settings:normal;inline-size:0;isolation:auto;mix-blend-mode:normal;paint-order:stroke fill markers;shape-margin:0;shape-padding:0;text-decoration-color:#000000;text-decoration-line:none;text-decoration-style:solid;text-indent:0;text-orientation:mixed;text-transform:none;white-space:normal"/></g><g transform="rotate(-48.52,-41.965,77.247)"><path d="m-72.047 80.547c-2.7317 0-4.9316 2.2-4.9316 4.9316v6.9863c0 2.7317 2.2 4.9297 4.9316 4.9297s4.9316-2.198 4.9316-4.9297v-6.9863c0-2.7317-2.2-4.9316-4.9316-4.9316z" color="#000000" color-rendering="auto" dominant-baseline="auto" fill="#f4e3d7" image-rendering="auto" shape-rendering="auto" solid-color="#000000" stop-color="#000000" style="font-feature-settings:normal;font-variant-alternates:normal;font-variant-caps:normal;font-variant-east-asian:normal;font-variant-ligatures:normal;font-variant-numeric:normal;font-variant-position:normal;font-variation-settings:normal;inline-size:0;isolation:auto;mix-blend-mode:normal;paint-order:stroke fill markers;shape-margin:0;shape-padding:0;text-decoration-color:#000000;text-decoration-line:none;text-decoration-style:solid;text-indent:0;text-orientation:mixed;text-transform:none;white-space:normal"/></g><g transform="rotate(-5.6363,-90.447,729.07)" stroke-width="1.68"><path d="m18.326 101.36c-2.7317 0-4.9316 2.198-4.9316 4.9297v6.9863c0 2.7317 2.2 4.9316 4.9316 4.9316s4.9316-2.2 4.9316-4.9316v-6.9863c1e-6 -2.7317-2.2-4.9297-4.9316-4.9297z" color="#000000" color-rendering="auto" dominant-baseline="auto" fill="#f4e3d7" image-rendering="auto" shape-rendering="auto" solid-color="#000000" stop-color="#000000" style="font-feature-settings:normal;font-variant-alternates:normal;font-variant-caps:normal;font-variant-east-asian:normal;font-variant-ligatures:normal;font-variant-numeric:normal;font-variant-position:normal;font-variation-settings:normal;inline-size:0;isolation:auto;mix-blend-mode:normal;paint-order:stroke fill markers;shape-margin:0;shape-padding:0;text-decoration-color:#000000;text-decoration-line:none;text-decoration-style:solid;text-indent:0;text-orientation:mixed;text-transform:none;white-space:normal"/></g><g transform="rotate(23.642,-23.22,-174.78)" stroke-width="1.68"><path d="m80.041 80.461c-2.7317 0-4.9316 2.2-4.9316 4.9316v6.9844c0 2.7317 2.2 4.9316 4.9316 4.9316 2.7317 0 4.9316-2.2 4.9316-4.9316v-6.9844c0-2.7317-2.2-4.9316-4.9316-4.9316z" color="#000000" color-rendering="auto" dominant-baseline="auto" fill="#f4e3d7" image-rendering="auto" shape-rendering="auto" solid-color="#000000" stop-color="#000000" style="font-feature-settings:normal;font-variant-alternates:normal;font-variant-caps:normal;font-variant-east-asian:normal;font-variant-ligatures:normal;font-variant-numeric:normal;font-variant-position:normal;font-variation-settings:normal;inline-size:0;isolation:auto;mix-blend-mode:normal;paint-order:stroke fill markers;shape-margin:0;shape-padding:0;text-decoration-color:#000000;text-decoration-line:none;text-decoration-style:solid;text-indent:0;text-orientation:mixed;text-transform:none;white-space:normal"/></g></g></g><g transform="matrix(-.59525 0 0 .59525 83.06 -41.29)" stroke-width="1.68"><g transform="translate(-72.041,-5.3583)"><path d="m23.885 123.7c-0.67082 5.6017 1.4782 9.5326 4.0898 14.012 2.6116 4.4792 6.2116 9.1193 10.512 13.477 8.6003 8.7146 19.885 16.867 32.902 16.42l-0.49609-14.459c-5.8139 0.19965-15.108-4.5015-22.107-11.594-3.4997-3.5462-6.4545-7.9442-8.3125-11.131s-2.094-6.0784-2.2227-5.0039z" color="#000000" color-rendering="auto" dominant-baseline="auto" fill="#4d4d4d" image-rendering="auto" shape-rendering="auto" solid-color="#000000" stop-color="#000000" style="font-feature-settings:normal;font-variant-alternates:normal;font-variant-caps:normal;font-variant-east-asian:normal;font-variant-ligatures:normal;font-variant-numeric:normal;font-variant-position:normal;font-variation-settings:normal;inline-size:0;isolation:auto;mix-blend-mode:normal;shape-margin:0;shape-padding:0;text-decoration-color:#000000;text-decoration-line:none;text-decoration-style:solid;text-indent:0;text-orientation:mixed;text-transform:none;white-space:normal"/></g><g fill="#f4e3d7"><g transform="rotate(-15.682,-55.475,258.88)" shape-rendering="auto" stroke-width="1.68"><path d="m-5.1836 113.52c-6.6161-6.7e-4 -11.983 4.7786-11.984 10.676-0.0015 5.8972 5.3624 10.678 11.979 10.68 6.6161 2e-3 11.983-4.7747 11.986-10.672 3.783e-4 -2e-3 3.783e-4 -4e-3 0-6e-3 -2.454e-4 -2e-3 -9.083e-4 -4e-3 -0.00195-6e-3 -0.00386-5.8942-5.3648-10.671-11.979-10.672z" color="#000000" color-rendering="auto" dominant-baseline="auto" image-rendering="auto" solid-color="#000000" stop-color="#000000" style="font-feature-settings:normal;font-variant-alternates:normal;font-variant-caps:normal;font-variant-east-asian:normal;font-variant-ligatures:normal;font-variant-numeric:normal;font-variant-position:normal;font-variation-settings:normal;inline-size:0;isolation:auto;mix-blend-mode:normal;paint-order:stroke fill markers;shape-margin:0;shape-padding:0;text-decoration-color:#000000;text-decoration-line:none;text-decoration-style:solid;text-indent:0;text-orientation:mixed;text-transform:none;white-space:normal"/><path d="m6.7817 124.2c-0.00304 5.8875 5.7e-6 -5.8924 1.3e-6 -5e-3z" color="#000000" color-rendering="auto" dominant-baseline="auto" image-rendering="auto" solid-color="#000000" stop-color="#000000" style="font-feature-settings:normal;font-variant-alternates:normal;font-variant-caps:normal;font-variant-east-asian:normal;font-variant-ligatures:normal;font-variant-numeric:normal;font-variant-position:normal;font-variation-settings:normal;inline-size:0;isolation:auto;mix-blend-mode:normal;paint-order:stroke fill markers;shape-margin:0;shape-padding:0;text-decoration-color:#000000;text-decoration-line:none;text-decoration-style:solid;text-indent:0;text-orientation:mixed;text-transform:none;white-space:normal"/></g><g transform="rotate(-77.743,-39.344,42.007)" stroke-width="1.68"><path d="m-116.78 34.967c-2.7317 0-4.9316 2.198-4.9316 4.9297v6.9863c0 2.7317 2.2 4.9316 4.9316 4.9316s4.9316-2.2 4.9316-4.9316v-6.9863c0-2.7317-2.2-4.9297-4.9316-4.9297z" color="#000000" color-rendering="auto" dominant-baseline="auto" fill="#f4e3d7" image-rendering="auto" shape-rendering="auto" solid-color="#000000" stop-color="#000000" style="font-feature-settings:normal;font-variant-alternates:normal;font-variant-caps:normal;font-variant-east-asian:normal;font-variant-ligatures:normal;font-variant-numeric:normal;font-variant-position:normal;font-variation-settings:normal;inline-size:0;isolation:auto;mix-blend-mode:normal;paint-order:stroke fill markers;shape-margin:0;shape-padding:0;text-decoration-color:#000000;text-decoration-line:none;text-decoration-style:solid;text-indent:0;text-orientation:mixed;text-transform:none;white-space:normal"/></g><g transform="rotate(-48.52,-41.965,77.247)"><path d="m-72.047 80.547c-2.7317 0-4.9316 2.2-4.9316 4.9316v6.9863c0 2.7317 2.2 4.9297 4.9316 4.9297s4.9316-2.198 4.9316-4.9297v-6.9863c0-2.7317-2.2-4.9316-4.9316-4.9316z" color="#000000" color-rendering="auto" dominant-baseline="auto" fill="#f4e3d7" image-rendering="auto" shape-rendering="auto" solid-color="#000000" stop-color="#000000" style="font-feature-settings:normal;font-variant-alternates:normal;font-variant-caps:normal;font-variant-east-asian:normal;font-variant-ligatures:normal;font-variant-numeric:normal;font-variant-position:normal;font-variation-settings:normal;inline-size:0;isolation:auto;mix-blend-mode:normal;paint-order:stroke fill markers;shape-margin:0;shape-padding:0;text-decoration-color:#000000;text-decoration-line:none;text-decoration-style:solid;text-indent:0;text-orientation:mixed;text-transform:none;white-space:normal"/></g><g transform="rotate(-5.6363,-90.447,729.07)" stroke-width="1.68"><path d="m18.326 101.36c-2.7317 0-4.9316 2.198-4.9316 4.9297v6.9863c0 2.7317 2.2 4.9316 4.9316 4.9316s4.9316-2.2 4.9316-4.9316v-6.9863c1e-6 -2.7317-2.2-4.9297-4.9316-4.9297z" color="#000000" color-rendering="auto" dominant-baseline="auto" fill="#f4e3d7" image-rendering="auto" shape-rendering="auto" solid-color="#000000" stop-color="#000000" style="font-feature-settings:normal;font-variant-alternates:normal;font-variant-caps:normal;font-variant-east-asian:normal;font-variant-ligatures:normal;font-variant-numeric:normal;font-variant-position:normal;font-variation-settings:normal;inline-size:0;isolation:auto;mix-blend-mode:normal;paint-order:stroke fill markers;shape-margin:0;shape-padding:0;text-decoration-color:#000000;text-decoration-line:none;text-decoration-style:solid;text-indent:0;text-orientation:mixed;text-transform:none;white-space:normal"/></g><g transform="rotate(23.642,-23.22,-174.78)" stroke-width="1.68"><path d="m80.041 80.461c-2.7317 0-4.9316 2.2-4.9316 4.9316v6.9844c0 2.7317 2.2 4.9316 4.9316 4.9316 2.7317 0 4.9316-2.2 4.9316-4.9316v-6.9844c0-2.7317-2.2-4.9316-4.9316-4.9316z" color="#000000" color-rendering="auto" dominant-baseline="auto" fill="#f4e3d7" image-rendering="auto" shape-rendering="auto" solid-color="#000000" stop-color="#000000" style="font-feature-settings:normal;font-variant-alternates:normal;font-variant-caps:normal;font-variant-east-asian:normal;font-variant-ligatures:normal;font-variant-numeric:normal;font-variant-position:normal;font-variation-settings:normal;inline-size:0;isolation:auto;mix-blend-mode:normal;paint-order:stroke fill markers;shape-margin:0;shape-padding:0;text-decoration-color:#000000;text-decoration-line:none;text-decoration-style:solid;text-indent:0;text-orientation:mixed;text-transform:none;white-space:normal"/></g></g></g><g shape-rendering="auto"><path d="m62.022 4.1138 6.1602-0.06259c15.114-0.15356 27.405 11.891 27.559 27.005l0.42472 41.802c0.15356 15.114-11.891 27.405-27.005 27.559l-6.1602 0.0626c-15.114 0.15355-27.405-11.891-27.559-27.005l-0.42472-41.802c-0.15356-15.114 11.891-27.405 27.005-27.559z" color="#000000" color-rendering="auto" dominant-baseline="auto" fill="#f4e3d7" fill-rule="evenodd" image-rendering="auto" solid-color="#000000" stop-color="#000000" style="font-feature-settings:normal;font-variant-alternates:normal;font-variant-caps:normal;font-variant-east-asian:normal;font-variant-ligatures:normal;font-variant-numeric:normal;font-variant-position:normal;font-variation-settings:normal;inline-size:0;isolation:auto;mix-blend-mode:normal;shape-margin:0;shape-padding:0;text-decoration-color:#000000;text-decoration-line:none;text-decoration-style:solid;text-indent:0;text-orientation:mixed;text-transform:none;white-space:normal"/><path d="m57.096 18.99c-1.5443 0-2.9715 0.37018-4.147 1.1103-1.1754 0.74013-2.2055 2.0118-2.2055 3.6215a1.9791 1.9791 0 0 0 1.9787 1.9799 1.9791 1.9791 0 0 0 1.9799-1.9799c0 0.08908-0.05148-0.01566 0.35576-0.27205 0.40723-0.25641 1.1672-0.50108 2.038-0.50108s1.6296 0.24467 2.0369 0.50108c0.40727 0.25641 0.35692 0.36113 0.35692 0.27205a1.9791 1.9791 0 0 0 1.9787 1.9799 1.9791 1.9791 0 0 0 1.9787-1.9799c0-1.6097-1.03-2.8814-2.2055-3.6215-1.1754-0.74007-2.6015-1.1103-4.1458-1.1103z" color="#000000" color-rendering="auto" dominant-baseline="auto" fill="#4d4d4d" image-rendering="auto" solid-color="#000000" stop-color="#000000" style="font-feature-settings:normal;font-variant-alternates:normal;font-variant-caps:normal;font-variant-east-asian:normal;font-variant-ligatures:normal;font-variant-numeric:normal;font-variant-position:normal;font-variation-settings:normal;inline-size:0;isolation:auto;mix-blend-mode:normal;paint-order:stroke fill markers;shape-margin:0;shape-padding:0;text-decoration-color:#000000;text-decoration-line:none;text-decoration-style:solid;text-indent:0;text-orientation:mixed;text-transform:none;white-space:normal"/><path d="m73.991 18.99c-1.5443 0-2.9715 0.37018-4.147 1.1103-1.1754 0.74013-2.2055 2.0118-2.2055 3.6215a1.9791 1.9791 0 0 0 1.9799 1.9799 1.9791 1.9791 0 0 0 1.9787-1.9799c0 0.08908-0.0503-0.01566 0.35692-0.27205 0.40724-0.25641 1.166-0.50108 2.0369-0.50108 0.87085 0 1.6308 0.24467 2.038 0.50108 0.40723 0.25641 0.35575 0.36113 0.35575 0.27205a1.9791 1.9791 0 0 0 1.9787 1.9799 1.9791 1.9791 0 0 0 1.9799-1.9799c0-1.6097-1.03-2.8814-2.2055-3.6215-1.1754-0.74007-2.6027-1.1103-4.147-1.1103z" color="#000000" color-rendering="auto" dominant-baseline="auto" fill="#4d4d4d" image-rendering="auto" solid-color="#000000" stop-color="#000000" style="font-feature-settings:normal;font-variant-alternates:normal;font-variant-caps:normal;font-variant-east-asian:normal;font-variant-ligatures:normal;font-variant-numeric:normal;font-variant-position:normal;font-variation-settings:normal;inline-size:0;isolation:auto;mix-blend-mode:normal;paint-order:stroke fill markers;shape-margin:0;shape-padding:0;text-decoration-color:#000000;text-decoration-line:none;text-decoration-style:solid;text-indent:0;text-orientation:mixed;text-transform:none;white-space:normal"/></g><g fill-rule="evenodd"><path d="m95.954 51.955 0.21235 20.902c0.15357 15.114-11.891 27.405-27.005 27.559l-6.1602 0.0626c-15.114 0.15356-27.405-11.891-27.559-27.005l-0.21237-20.902 60.721-0.61697" color="#000000" color-rendering="auto" dominant-baseline="auto" fill="#73a9ad" image-rendering="auto" shape-rendering="auto" solid-color="#000000" stop-color="#000000" style="font-feature-settings:normal;font-variant-alternates:normal;font-variant-caps:normal;font-variant-east-asian:normal;font-variant-ligatures:normal;font-variant-numeric:normal;font-variant-position:normal;font-variation-settings:normal;inline-size:0;isolation:auto;mix-blend-mode:normal;shape-margin:0;shape-padding:0;text-decoration-color:#000000;text-decoration-line:none;text-decoration-style:solid;text-indent:0;text-orientation:mixed;text-transform:none;white-space:normal"/><path d="m35.248 54.598 0.01897 2.7392 60.721-0.90513-0.01899-2.7392z" color="#000000" color-rendering="auto" dominant-baseline="auto" fill="#5a8387" image-rendering="auto" shape-rendering="auto" solid-color="#000000" stop-color="#000000" style="font-feature-settings:normal;font-variant-alternates:normal;font-variant-caps:normal;font-variant-east-asian:normal;font-variant-ligatures:normal;font-variant-numeric:normal;font-variant-position:normal;font-variation-settings:normal;inline-size:0;isolation:auto;mix-blend-mode:normal;shape-margin:0;shape-padding:0;text-decoration-color:#000000;text-decoration-line:none;text-decoration-style:solid;text-indent:0;text-orientation:mixed;text-transform:none;white-space:normal"/><path d="m75.113 56.961a9.4912 9.4912 0 0 1-9.3948 9.5877 9.4912 9.4912 0 0 1-9.5877-9.3948 9.4912 9.4912 0 0 1 9.3948-9.5877 9.4912 9.4912 0 0 1 9.5877 9.3948z" fill="#5a8387" style="paint-order:stroke fill markers"/><path d="m72.43 56.991a6.8084 6.8084 0 0 1-6.7388 6.8775 6.8084 6.8084 0 0 1-6.8775-6.7388 6.8084 6.8084 0 0 1 6.7388-6.8775 6.8084 6.8084 0 0 1 6.8775 6.7388z" fill="#7bb0ad" style="paint-order:stroke fill markers"/><path d="m69.564 57.015a3.942 3.942 0 0 1-3.9017 3.9818 3.942 3.942 0 0 1-3.9818-3.9017 3.942 3.942 0 0 1 3.9017-3.9818 3.942 3.942 0 0 1 3.9818 3.9017z" fill="#fdffff" style="paint-order:stroke fill markers"/></g><path d="m61.033 35.794a2.0939 2.0939 0 0 0-2.0938 2.0938c1e-6 1.7662 1.2184 3.0512 2.5008 3.7726s2.8177 1.0754 4.4876 1.0754c1.6699 0 3.2052-0.35402 4.4876-1.0754 1.2824-0.72138 2.5008-2.0065 2.5008-3.7726a2.0939 2.0939 0 0 0-2.0938-2.0938 2.0939 2.0939 0 0 0-2.0938 2.0903c3e-3 -0.23368 0.11651-0.14598-0.36622 0.12556-0.48911 0.27513-1.4011 0.53828-2.4344 0.53828-1.0333 0-1.9454-0.26315-2.4344-0.53828-0.4891-0.27513-0.36621-0.36762-0.36621-0.12207a2.0939 2.0939 0 0 0-2.0938-2.0938z" color="#000000" color-rendering="auto" dominant-baseline="auto" fill="#4d4d4d" image-rendering="auto" shape-rendering="auto" solid-color="#000000" stop-color="#000000" style="font-feature-settings:normal;font-variant-alternates:normal;font-variant-caps:normal;font-variant-east-asian:normal;font-variant-ligatures:normal;font-variant-numeric:normal;font-variant-position:normal;font-variation-settings:normal;inline-size:0;isolation:auto;mix-blend-mode:normal;paint-order:stroke fill markers;shape-margin:0;shape-padding:0;text-decoration-color:#000000;text-decoration-line:none;text-decoration-style:solid;text-indent:0;text-orientation:mixed;text-transform:none;white-space:normal"/></svg>
