<svg width="185" height="228" version="1.1" viewBox="0 0 48.948 60.325" xml:space="preserve" xmlns="http://www.w3.org/2000/svg"><g transform="translate(-95.199 -50.421)"><g transform="matrix(-.19148 .0074422 .0074422 .19148 135.9 45.342)" stroke-width="5.2185"><path d="m23.885 123.7c-0.67082 5.6017 1.4782 9.5326 4.0898 14.012 2.6116 4.4792 6.2116 9.1193 10.512 13.477 8.6003 8.7146 19.885 16.867 32.902 16.42l-0.49609-14.459c-5.8139 0.19965-15.108-4.5015-22.107-11.594-3.4997-3.5462-6.4545-7.9442-8.3125-11.131s-2.094-6.0784-2.2227-5.0039z" color="#000000" color-rendering="auto" dominant-baseline="auto" fill="#4d4d4d" image-rendering="auto" shape-rendering="auto" solid-color="#000000" stop-color="#000000" stroke-width="7.8094" style="font-feature-settings:normal;font-variant-alternates:normal;font-variant-caps:normal;font-variant-east-asian:normal;font-variant-ligatures:normal;font-variant-numeric:normal;font-variant-position:normal;font-variation-settings:normal;inline-size:0;isolation:auto;mix-blend-mode:normal;shape-margin:0;shape-padding:0;text-decoration-color:#000000;text-decoration-line:none;text-decoration-style:solid;text-indent:0;text-orientation:mixed;text-transform:none;white-space:normal"/></g><g transform="matrix(.19086 .017082 .017082 -.19086 96.226 104.05)" stroke-width="5.2185"><path d="m23.885 123.7c-0.67082 5.6017 1.4782 9.5326 4.0898 14.012 2.6116 4.4792 6.2116 9.1193 10.512 13.477 8.6003 8.7146 19.885 16.867 32.902 16.42l-0.49609-14.459c-5.8139 0.19965-15.108-4.5015-22.107-11.594-3.4997-3.5462-6.4545-7.9442-8.3125-11.131s-2.094-6.0784-2.2227-5.0039z" color="#000000" color-rendering="auto" dominant-baseline="auto" fill="#4d4d4d" image-rendering="auto" shape-rendering="auto" solid-color="#000000" stop-color="#000000" stroke-width="7.8094" style="font-feature-settings:normal;font-variant-alternates:normal;font-variant-caps:normal;font-variant-east-asian:normal;font-variant-ligatures:normal;font-variant-numeric:normal;font-variant-position:normal;font-variation-settings:normal;inline-size:0;isolation:auto;mix-blend-mode:normal;shape-margin:0;shape-padding:0;text-decoration-color:#000000;text-decoration-line:none;text-decoration-style:solid;text-indent:0;text-orientation:mixed;text-transform:none;white-space:normal"/></g><g transform="matrix(.48127 -.018706 .018706 .48127 86.406 32.71)" stroke-width="2.0763"><g shape-rendering="auto"><path d="m58.953 62.678 4.1176-0.04183c10.102-0.10264 18.318 7.9475 18.42 18.05l0.28388 27.941c0.10264 10.102-7.9475 18.318-18.05 18.42l-4.1176 0.0418c-10.102 0.10268-18.318-7.9475-18.42-18.05l-0.28388-27.941c-0.10264-10.102 7.9475-18.318 18.05-18.42z" color="#000000" color-rendering="auto" dominant-baseline="auto" fill="#f4e3d7" fill-rule="evenodd" image-rendering="auto" solid-color="#000000" stop-color="#000000" style="font-feature-settings:normal;font-variant-alternates:normal;font-variant-caps:normal;font-variant-east-asian:normal;font-variant-ligatures:normal;font-variant-numeric:normal;font-variant-position:normal;font-variation-settings:normal;inline-size:0;isolation:auto;mix-blend-mode:normal;shape-margin:0;shape-padding:0;text-decoration-color:#000000;text-decoration-line:none;text-decoration-style:solid;text-indent:0;text-orientation:mixed;text-transform:none;white-space:normal"/><path d="m55.66 72.62c-1.0322 0-1.9862 0.24743-2.7718 0.7421-0.78566 0.49468-1.4741 1.3447-1.4741 2.4206a1.3229 1.3229 0 0 0 1.3226 1.3234 1.3229 1.3229 0 0 0 1.3234-1.3234c0 0.05954-0.03441-0.01046 0.23778-0.18184 0.27219-0.17138 0.78016-0.33492 1.3622-0.33492s1.0892 0.16354 1.3614 0.33492c0.27219 0.17138 0.23856 0.24138 0.23856 0.18184a1.3229 1.3229 0 0 0 1.3226 1.3234 1.3229 1.3229 0 0 0 1.3226-1.3234c0-1.0759-0.68844-1.9259-1.4741-2.4206-0.78566-0.49468-1.7389-0.7421-2.771-0.7421z" color="#000000" color-rendering="auto" dominant-baseline="auto" fill="#4d4d4d" image-rendering="auto" solid-color="#000000" stop-color="#000000" style="font-feature-settings:normal;font-variant-alternates:normal;font-variant-caps:normal;font-variant-east-asian:normal;font-variant-ligatures:normal;font-variant-numeric:normal;font-variant-position:normal;font-variation-settings:normal;inline-size:0;isolation:auto;mix-blend-mode:normal;paint-order:stroke fill markers;shape-margin:0;shape-padding:0;text-decoration-color:#000000;text-decoration-line:none;text-decoration-style:solid;text-indent:0;text-orientation:mixed;text-transform:none;white-space:normal"/><path d="m66.953 72.62c-1.0322 0-1.9862 0.24743-2.7718 0.7421-0.78566 0.49468-1.4741 1.3447-1.4741 2.4206a1.3229 1.3229 0 0 0 1.3234 1.3234 1.3229 1.3229 0 0 0 1.3226-1.3234c0 0.05954-0.03362-0.01046 0.23856-0.18184 0.2722-0.17138 0.77939-0.33492 1.3614-0.33492 0.58205 0 1.09 0.16354 1.3622 0.33492 0.27219 0.17138 0.23778 0.24138 0.23778 0.18184a1.3229 1.3229 0 0 0 1.3226 1.3234 1.3229 1.3229 0 0 0 1.3234-1.3234c0-1.0759-0.68844-1.9259-1.4741-2.4206-0.78566-0.49468-1.7396-0.7421-2.7718-0.7421z" color="#000000" color-rendering="auto" dominant-baseline="auto" fill="#4d4d4d" image-rendering="auto" solid-color="#000000" stop-color="#000000" style="font-feature-settings:normal;font-variant-alternates:normal;font-variant-caps:normal;font-variant-east-asian:normal;font-variant-ligatures:normal;font-variant-numeric:normal;font-variant-position:normal;font-variation-settings:normal;inline-size:0;isolation:auto;mix-blend-mode:normal;paint-order:stroke fill markers;shape-margin:0;shape-padding:0;text-decoration-color:#000000;text-decoration-line:none;text-decoration-style:solid;text-indent:0;text-orientation:mixed;text-transform:none;white-space:normal"/></g><g fill-rule="evenodd"><path d="m81.632 94.656 0.14194 13.97c0.10264 10.102-7.9475 18.318-18.05 18.42l-4.1176 0.0418c-10.102 0.10268-18.318-7.9474-18.42-18.05l-0.14194-13.97 40.588-0.41238" color="#000000" color-rendering="auto" dominant-baseline="auto" fill="#73a9ad" image-rendering="auto" shape-rendering="auto" solid-color="#000000" stop-color="#000000" style="font-feature-settings:normal;font-variant-alternates:normal;font-variant-caps:normal;font-variant-east-asian:normal;font-variant-ligatures:normal;font-variant-numeric:normal;font-variant-position:normal;font-variation-settings:normal;inline-size:0;isolation:auto;mix-blend-mode:normal;shape-margin:0;shape-padding:0;text-decoration-color:#000000;text-decoration-line:none;text-decoration-style:solid;text-indent:0;text-orientation:mixed;text-transform:none;white-space:normal"/><path d="m41.057 96.421 0.01268 1.8309 40.588-0.60501-0.01269-1.8309z" color="#000000" color-rendering="auto" dominant-baseline="auto" fill="#5a8387" image-rendering="auto" shape-rendering="auto" solid-color="#000000" stop-color="#000000" style="font-feature-settings:normal;font-variant-alternates:normal;font-variant-caps:normal;font-variant-east-asian:normal;font-variant-ligatures:normal;font-variant-numeric:normal;font-variant-position:normal;font-variation-settings:normal;inline-size:0;isolation:auto;mix-blend-mode:normal;shape-margin:0;shape-padding:0;text-decoration-color:#000000;text-decoration-line:none;text-decoration-style:solid;text-indent:0;text-orientation:mixed;text-transform:none;white-space:normal"/><path d="m67.703 98.001a6.344 6.344 0 0 1-6.2793 6.4082 6.344 6.344 0 0 1-6.4082-6.2793 6.344 6.344 0 0 1 6.2793-6.4082 6.344 6.344 0 0 1 6.4082 6.2793z" fill="#5a8387" style="paint-order:stroke fill markers"/><path d="m65.91 98.019a4.5508 4.5508 0 0 1-4.5043 4.5968 4.5508 4.5508 0 0 1-4.5968-4.5043 4.5508 4.5508 0 0 1 4.5043-4.5968 4.5508 4.5508 0 0 1 4.5968 4.5043z" fill="#7bb0ad" style="paint-order:stroke fill markers"/><path d="m63.994 98.039a2.6348 2.6348 0 0 1-2.6079 2.6615 2.6348 2.6348 0 0 1-2.6615-2.6079 2.6348 2.6348 0 0 1 2.6079-2.6615 2.6348 2.6348 0 0 1 2.6615 2.6079z" fill="#fdffff" style="paint-order:stroke fill markers"/></g><path d="m58.292 83.851a1.3995 1.3995 0 0 0-1.3995 1.3995c1e-6 1.1805 0.81432 2.0394 1.6715 2.5216 0.85718 0.4822 1.8833 0.71879 2.9995 0.71879 1.1162 0 2.1423-0.23663 2.9995-0.71879 0.85716-0.48216 1.6715-1.3411 1.6715-2.5216a1.3995 1.3995 0 0 0-1.3995-1.3995 1.3995 1.3995 0 0 0-1.3995 1.3972c2e-3 -0.15619 0.07787-0.09757-0.24478 0.08393-0.32692 0.1839-0.9365 0.35979-1.6272 0.35979-0.6907 0-1.3003-0.17589-1.6272-0.35979-0.32692-0.1839-0.24478-0.24572-0.24478-0.08159a1.3995 1.3995 0 0 0-1.3995-1.3995z" color="#000000" color-rendering="auto" dominant-baseline="auto" fill="#4d4d4d" image-rendering="auto" shape-rendering="auto" solid-color="#000000" stop-color="#000000" style="font-feature-settings:normal;font-variant-alternates:normal;font-variant-caps:normal;font-variant-east-asian:normal;font-variant-ligatures:normal;font-variant-numeric:normal;font-variant-position:normal;font-variation-settings:normal;inline-size:0;isolation:auto;mix-blend-mode:normal;paint-order:stroke fill markers;shape-margin:0;shape-padding:0;text-decoration-color:#000000;text-decoration-line:none;text-decoration-style:solid;text-indent:0;text-orientation:mixed;text-transform:none;white-space:normal"/></g><g transform="translate(-17.059 18.029)" stroke-width="0"><path d="m156.6 64.482-41.11-0.12119c-0.86786-0.0025-1.6522 0.34446-2.2201 0.9091-0.56795 0.56462-0.91961 1.3468-0.92215 2.2147l-0.0647 21.931c-2e-3 0.86781 0.3444 1.6522 0.90909 2.2201 0.56462 0.56798 1.3469 0.91961 2.2147 0.92217l41.11 0.12119c0.86786 0.0025 1.6522-0.34446 2.2201-0.9091 0.56798-0.56464 0.91961-1.3469 0.92216-2.2147l0.0647-21.931c2e-3 -0.86782-0.34441-1.6522-0.90909-2.2201-0.56464-0.56797-1.3469-0.9196-2.2147-0.92216z" fill="#ececec" style="paint-order:fill markers stroke"/><path d="m115.41 92.405c-0.86783-0.0026-1.6499-0.35424-2.2145-0.92219-0.36121-0.36326-0.63262-0.81515-0.7812-1.3207 0 0 16.584-13.701 20.522-16.947 2.7031-2.4165 3.451-2.419 6.2154-0.23087 3.9978 3.1705 20.387 17.284 20.387 17.284-0.14933 0.51797-0.42729 0.98005-0.79843 1.349-0.56795 0.56462-1.3524 0.91167-2.2203 0.90912z" fill="#b3b3b3" fill-opacity=".22936" style="paint-order:fill markers stroke"/><path d="m115.49 64.361c-0.86784-0.0026-1.652 0.34449-2.2199 0.90912-0.36329 0.36114-0.63742 0.8114-0.78898 1.3161 0 0 16.503 13.799 20.422 17.068 2.6888 2.4324 3.4367 2.4394 6.214 0.26751 4.0164-3.1468 20.488-17.163 20.488-17.163-0.14521-0.5192-0.42156-0.98254-0.79046-1.3537-0.56464-0.56796-1.347-0.91964-2.2149-0.92219z" fill="#ccc" style="paint-order:fill markers stroke"/></g><g transform="matrix(.17197 -.084533 -.084533 -.17197 121.46 98.295)" fill="#f4e3d7"><g transform="rotate(-15.682,-55.475,258.88)" shape-rendering="auto" stroke-width="7.8094"><path d="m-5.1836 113.52c-6.6161-6.7e-4 -11.983 4.7786-11.984 10.676-0.0015 5.8972 5.3624 10.678 11.979 10.68 6.6161 2e-3 11.983-4.7747 11.986-10.672 3.783e-4 -2e-3 3.783e-4 -4e-3 0-6e-3 -2.454e-4 -2e-3 -9.083e-4 -4e-3 -0.00195-6e-3 -0.00386-5.8942-5.3648-10.671-11.979-10.672z" color="#000000" color-rendering="auto" dominant-baseline="auto" image-rendering="auto" solid-color="#000000" stop-color="#000000" style="font-feature-settings:normal;font-variant-alternates:normal;font-variant-caps:normal;font-variant-east-asian:normal;font-variant-ligatures:normal;font-variant-numeric:normal;font-variant-position:normal;font-variation-settings:normal;inline-size:0;isolation:auto;mix-blend-mode:normal;paint-order:stroke fill markers;shape-margin:0;shape-padding:0;text-decoration-color:#000000;text-decoration-line:none;text-decoration-style:solid;text-indent:0;text-orientation:mixed;text-transform:none;white-space:normal"/><path d="m6.7817 124.2c-0.00304 5.8875 5.7e-6 -5.8924 1.3e-6 -5e-3z" color="#000000" color-rendering="auto" dominant-baseline="auto" image-rendering="auto" solid-color="#000000" stop-color="#000000" style="font-feature-settings:normal;font-variant-alternates:normal;font-variant-caps:normal;font-variant-east-asian:normal;font-variant-ligatures:normal;font-variant-numeric:normal;font-variant-position:normal;font-variation-settings:normal;inline-size:0;isolation:auto;mix-blend-mode:normal;paint-order:stroke fill markers;shape-margin:0;shape-padding:0;text-decoration-color:#000000;text-decoration-line:none;text-decoration-style:solid;text-indent:0;text-orientation:mixed;text-transform:none;white-space:normal"/></g><g transform="rotate(-77.743,-39.344,42.007)" stroke-width="5.2185"><path d="m-116.78 34.967c-2.7317 0-4.9316 2.198-4.9316 4.9297v6.9863c0 2.7317 2.2 4.9316 4.9316 4.9316s4.9316-2.2 4.9316-4.9316v-6.9863c0-2.7317-2.2-4.9297-4.9316-4.9297z" color="#000000" color-rendering="auto" dominant-baseline="auto" fill="#f4e3d7" image-rendering="auto" shape-rendering="auto" solid-color="#000000" stop-color="#000000" stroke-width="7.8094" style="font-feature-settings:normal;font-variant-alternates:normal;font-variant-caps:normal;font-variant-east-asian:normal;font-variant-ligatures:normal;font-variant-numeric:normal;font-variant-position:normal;font-variation-settings:normal;inline-size:0;isolation:auto;mix-blend-mode:normal;paint-order:stroke fill markers;shape-margin:0;shape-padding:0;text-decoration-color:#000000;text-decoration-line:none;text-decoration-style:solid;text-indent:0;text-orientation:mixed;text-transform:none;white-space:normal"/></g><g transform="rotate(-48.52,-41.965,77.247)" stroke-width="5.2185"><path d="m-72.047 80.547c-2.7317 0-4.9316 2.2-4.9316 4.9316v6.9863c0 2.7317 2.2 4.9297 4.9316 4.9297s4.9316-2.198 4.9316-4.9297v-6.9863c0-2.7317-2.2-4.9316-4.9316-4.9316z" color="#000000" color-rendering="auto" dominant-baseline="auto" fill="#f4e3d7" image-rendering="auto" shape-rendering="auto" solid-color="#000000" stop-color="#000000" stroke-width="7.8094" style="font-feature-settings:normal;font-variant-alternates:normal;font-variant-caps:normal;font-variant-east-asian:normal;font-variant-ligatures:normal;font-variant-numeric:normal;font-variant-position:normal;font-variation-settings:normal;inline-size:0;isolation:auto;mix-blend-mode:normal;paint-order:stroke fill markers;shape-margin:0;shape-padding:0;text-decoration-color:#000000;text-decoration-line:none;text-decoration-style:solid;text-indent:0;text-orientation:mixed;text-transform:none;white-space:normal"/></g><g transform="rotate(-5.6363,-90.447,729.07)" stroke-width="5.2185"><path d="m18.326 101.36c-2.7317 0-4.9316 2.198-4.9316 4.9297v6.9863c0 2.7317 2.2 4.9316 4.9316 4.9316s4.9316-2.2 4.9316-4.9316v-6.9863c1e-6 -2.7317-2.2-4.9297-4.9316-4.9297z" color="#000000" color-rendering="auto" dominant-baseline="auto" fill="#f4e3d7" image-rendering="auto" shape-rendering="auto" solid-color="#000000" stop-color="#000000" stroke-width="7.8094" style="font-feature-settings:normal;font-variant-alternates:normal;font-variant-caps:normal;font-variant-east-asian:normal;font-variant-ligatures:normal;font-variant-numeric:normal;font-variant-position:normal;font-variation-settings:normal;inline-size:0;isolation:auto;mix-blend-mode:normal;paint-order:stroke fill markers;shape-margin:0;shape-padding:0;text-decoration-color:#000000;text-decoration-line:none;text-decoration-style:solid;text-indent:0;text-orientation:mixed;text-transform:none;white-space:normal"/></g><g transform="rotate(23.642,-23.22,-174.78)" stroke-width="5.2185"><path d="m80.041 80.461c-2.7317 0-4.9316 2.2-4.9316 4.9316v6.9844c0 2.7317 2.2 4.9316 4.9316 4.9316 2.7317 0 4.9316-2.2 4.9316-4.9316v-6.9844c0-2.7317-2.2-4.9316-4.9316-4.9316z" color="#000000" color-rendering="auto" dominant-baseline="auto" fill="#f4e3d7" image-rendering="auto" shape-rendering="auto" solid-color="#000000" stop-color="#000000" stroke-width="7.8094" style="font-feature-settings:normal;font-variant-alternates:normal;font-variant-caps:normal;font-variant-east-asian:normal;font-variant-ligatures:normal;font-variant-numeric:normal;font-variant-position:normal;font-variation-settings:normal;inline-size:0;isolation:auto;mix-blend-mode:normal;paint-order:stroke fill markers;shape-margin:0;shape-padding:0;text-decoration-color:#000000;text-decoration-line:none;text-decoration-style:solid;text-indent:0;text-orientation:mixed;text-transform:none;white-space:normal"/></g></g><g transform="matrix(-.18636 -.04459 -.04459 .18636 135.9 45.342)" fill="#f4e3d7" shape-rendering="auto" stroke-width="7.8094"><path d="m-5.1836 113.52c-6.6161-6.7e-4 -11.983 4.7786-11.984 10.676-0.0015 5.8972 5.3624 10.678 11.979 10.68 6.6161 2e-3 11.983-4.7747 11.986-10.672 3.783e-4 -2e-3 3.783e-4 -4e-3 0-6e-3 -2.454e-4 -2e-3 -9.083e-4 -4e-3 -0.00195-6e-3 -0.00386-5.8942-5.3648-10.671-11.979-10.672z" color="#000000" color-rendering="auto" dominant-baseline="auto" image-rendering="auto" solid-color="#000000" stop-color="#000000" style="font-feature-settings:normal;font-variant-alternates:normal;font-variant-caps:normal;font-variant-east-asian:normal;font-variant-ligatures:normal;font-variant-numeric:normal;font-variant-position:normal;font-variation-settings:normal;inline-size:0;isolation:auto;mix-blend-mode:normal;paint-order:stroke fill markers;shape-margin:0;shape-padding:0;text-decoration-color:#000000;text-decoration-line:none;text-decoration-style:solid;text-indent:0;text-orientation:mixed;text-transform:none;white-space:normal"/><path d="m6.7817 124.2c-0.00304 5.8875 5.7e-6 -5.8924 1.3e-6 -5e-3z" color="#000000" color-rendering="auto" dominant-baseline="auto" image-rendering="auto" solid-color="#000000" stop-color="#000000" style="font-feature-settings:normal;font-variant-alternates:normal;font-variant-caps:normal;font-variant-east-asian:normal;font-variant-ligatures:normal;font-variant-numeric:normal;font-variant-position:normal;font-variation-settings:normal;inline-size:0;isolation:auto;mix-blend-mode:normal;paint-order:stroke fill markers;shape-margin:0;shape-padding:0;text-decoration-color:#000000;text-decoration-line:none;text-decoration-style:solid;text-indent:0;text-orientation:mixed;text-transform:none;white-space:normal"/></g><path d="m122.76 54.82c0.25899-1.2906 0.90569-2.3479 1.9435-3.177 1.7006-1.3586 4.0026-1.5659 5.8815-0.52956 0.9193 0.50705 1.0981 0.69568 3.4775 3.6689 2.5034 3.128 2.6105 3.2805 2.9332 4.1755 0.54696 1.5167 0.34289 3.3368-0.52347 4.6677-0.70178 1.0783-1.8384 1.9287-3.0278 2.2651l-0.32223 0.09123-0.15273-0.20795c-0.45051-0.61332-0.57448-1.4131-0.33464-2.1588 0.074-0.23003 0.0973-0.25736 0.27946-0.32669 0.67327-0.25623 1.1936-0.74794 1.5112-1.428 0.14381-0.308 0.16234-0.38973 0.20187-0.88997 0.0483-0.61321 7e-3 -0.88972-0.20638-1.37-0.092-0.20748-0.67944-0.98393-2.1462-2.8371-1.1108-1.4033-2.1288-2.6649-2.2623-2.8035-0.99834-1.0363-2.5589-1.1466-3.6727-0.25992-1.023 0.81455-1.3122 2.1395-0.73339 3.3593 0.0801 0.16881 0.83454 1.1589 2.0317 2.6663 1.0474 1.3188 1.9019 2.4132 1.8988 2.432-4e-3 0.01887-0.0643 0.1936-0.13651 0.38868-0.17769 0.48129-0.34554 1.92-0.28109 2.4069 0.0233 0.17568 0.0416 0.32787 0.0403 0.33822-0.01 0.08978-0.70785-0.45492-1.0818-0.84443-0.47596-0.49582-4.5225-5.6305-4.7123-5.9794-0.48498-0.89168-0.6974-1.725-0.69353-2.7205 2e-3 -0.4373 0.0129-0.55582 0.088-0.92694zm6.9527 8.0387c0.32798-1.0859 0.90335-1.941 1.7758-2.6395 0.51502-0.41194 0.93418-0.65126 1.5148-0.8639 0.63329-0.23187 0.65513-0.23112 0.84443 0.02979 0.31839 0.43889 0.48081 1.0543 0.41992 1.591-0.0439 0.38721-0.17872 0.78816-0.27228 0.8096-0.18744 0.04302-0.75185 0.36642-0.95683 0.54821-0.2835 0.25138-0.58921 0.69889-0.73304 1.0729-0.0836 0.21738-0.12004 0.41626-0.15045 0.81412-0.0349 0.4636-0.0271 0.56937 0.0663 0.88488 0.0584 0.19702 0.19221 0.50324 0.29754 0.68026 0.19968 0.33558 3.9988 5.1153 4.3275 5.4445 0.96961 0.97111 2.505 1.0553 3.5982 0.19711 1.0949-0.85933 1.3595-2.396 0.61728-3.5847-0.0752-0.12046-0.96598-1.2617-1.9795-2.5359l-1.8427-2.3169 0.12783-0.34012c0.18484-0.49178 0.34994-1.6527 0.31457-2.2123-0.0148-0.23023-0.0345-0.46946-0.0444-0.53163-0.0171-0.10808-3e-3 -0.10255 0.33299 0.12826 0.19297 0.13274 0.50377 0.39832 0.69068 0.59021 0.1869 0.19187 1.3048 1.5663 2.4841 3.0543 1.7467 2.2037 2.1831 2.7826 2.3538 3.1217 0.52877 1.0508 0.70091 1.95 0.58287 3.0446-0.0772 0.7156-0.18608 1.1163-0.46846 1.7221-0.68511 1.4719-1.986 2.5397-3.5832 2.9412-1.3862 0.34842-2.9481 0.08993-4.1495-0.68678-0.715-0.46218-0.88892-0.65408-3.134-3.4581-1.1872-1.4826-2.2807-2.8862-2.4301-3.119-0.18581-0.28953-0.34239-0.62108-0.49548-1.049-0.41131-1.1498-0.44622-2.2203-0.10892-3.3372z" fill="#666"/><g fill="#f4e3d7" stroke-width="5.2185"><g transform="matrix(-.17871 -.069143 -.069143 .17871 142.48 48.179)"><path d="m18.326 101.36c-2.7317 0-4.9316 2.198-4.9316 4.9297v6.9863c0 2.7317 2.2 4.9316 4.9316 4.9316s4.9316-2.2 4.9316-4.9316v-6.9863c1e-6 -2.7317-2.2-4.9297-4.9316-4.9297z" color="#000000" color-rendering="auto" dominant-baseline="auto" fill="#f4e3d7" image-rendering="auto" shape-rendering="auto" solid-color="#000000" stop-color="#000000" stroke-width="7.8094" style="font-feature-settings:normal;font-variant-alternates:normal;font-variant-caps:normal;font-variant-east-asian:normal;font-variant-ligatures:normal;font-variant-numeric:normal;font-variant-position:normal;font-variation-settings:normal;inline-size:0;isolation:auto;mix-blend-mode:normal;paint-order:stroke fill markers;shape-margin:0;shape-padding:0;text-decoration-color:#000000;text-decoration-line:none;text-decoration-style:solid;text-indent:0;text-orientation:mixed;text-transform:none;white-space:normal"/></g><g transform="matrix(-.013648 -.19113 -.19113 .013648 140.2 45.432)"><path d="m-113.94 35.46c-2.572-0.92039-5.3838 0.40787-6.3042 2.9798l-2.3539 6.5778c-0.92039 2.572 0.40976 5.3845 2.9816 6.3049 2.5719 0.92036 5.3845-0.40976 6.3049-2.9816l2.3539-6.5778c0.92039-2.572-0.4104-5.3827-2.9823-6.3031z" color="#000000" color-rendering="auto" dominant-baseline="auto" fill="#f4e3d7" image-rendering="auto" shape-rendering="auto" solid-color="#000000" stop-color="#000000" stroke-width="7.8094" style="font-feature-settings:normal;font-variant-alternates:normal;font-variant-caps:normal;font-variant-east-asian:normal;font-variant-ligatures:normal;font-variant-numeric:normal;font-variant-position:normal;font-variation-settings:normal;inline-size:0;isolation:auto;mix-blend-mode:normal;paint-order:stroke fill markers;shape-margin:0;shape-padding:0;text-decoration-color:#000000;text-decoration-line:none;text-decoration-style:solid;text-indent:0;text-orientation:mixed;text-transform:none;white-space:normal"/></g><g transform="matrix(-.087848 -.1703 -.1703 .087848 141.37 47.161)"><path d="m-72.047 80.547c-2.7317 0-4.9316 2.2-4.9316 4.9316v6.9863c0 2.7317 2.2 4.9297 4.9316 4.9297s4.9316-2.198 4.9316-4.9297v-6.9863c0-2.7317-2.2-4.9316-4.9316-4.9316z" color="#000000" color-rendering="auto" dominant-baseline="auto" fill="#f4e3d7" image-rendering="auto" shape-rendering="auto" solid-color="#000000" stop-color="#000000" stroke-width="7.8094" style="font-feature-settings:normal;font-variant-alternates:normal;font-variant-caps:normal;font-variant-east-asian:normal;font-variant-ligatures:normal;font-variant-numeric:normal;font-variant-position:normal;font-variation-settings:normal;inline-size:0;isolation:auto;mix-blend-mode:normal;paint-order:stroke fill markers;shape-margin:0;shape-padding:0;text-decoration-color:#000000;text-decoration-line:none;text-decoration-style:solid;text-indent:0;text-orientation:mixed;text-transform:none;white-space:normal"/></g><g transform="matrix(-.15937 .10639 .10639 .15937 133.62 45.107)"><path d="m80.041 80.461c-2.7317 0-4.9316 2.2-4.9316 4.9316v6.9844c0 2.7317 2.2 4.9316 4.9316 4.9316 2.7317 0 4.9316-2.2 4.9316-4.9316v-6.9844c0-2.7317-2.2-4.9316-4.9316-4.9316z" color="#000000" color-rendering="auto" dominant-baseline="auto" fill="#f4e3d7" image-rendering="auto" shape-rendering="auto" solid-color="#000000" stop-color="#000000" stroke-width="7.8094" style="font-feature-settings:normal;font-variant-alternates:normal;font-variant-caps:normal;font-variant-east-asian:normal;font-variant-ligatures:normal;font-variant-numeric:normal;font-variant-position:normal;font-variation-settings:normal;inline-size:0;isolation:auto;mix-blend-mode:normal;paint-order:stroke fill markers;shape-margin:0;shape-padding:0;text-decoration-color:#000000;text-decoration-line:none;text-decoration-style:solid;text-indent:0;text-orientation:mixed;text-transform:none;white-space:normal"/></g></g></g></svg>
