<svg width="487.53" height="260.48" version="1.1" viewBox="0 0 128.99 68.919" xmlns="http://www.w3.org/2000/svg"><g transform="matrix(-.39786 0 0 .39786 34.888 -28.073)" stroke-width="2.5134"><g transform="translate(-72.041,-5.3583)"><path d="m23.885 123.7c-0.67082 5.6017 1.4782 9.5326 4.0898 14.012 2.6116 4.4792 6.2116 9.1193 10.512 13.477 8.6003 8.7146 19.885 16.867 32.902 16.42l-0.49609-14.459c-5.8139 0.19965-15.108-4.5015-22.107-11.594-3.4997-3.5462-6.4545-7.9442-8.3125-11.131s-2.094-6.0784-2.2227-5.0039z" color="#000000" color-rendering="auto" dominant-baseline="auto" fill="#4d4d4d" image-rendering="auto" shape-rendering="auto" solid-color="#000000" stop-color="#000000" style="font-feature-settings:normal;font-variant-alternates:normal;font-variant-caps:normal;font-variant-east-asian:normal;font-variant-ligatures:normal;font-variant-numeric:normal;font-variant-position:normal;font-variation-settings:normal;inline-size:0;isolation:auto;mix-blend-mode:normal;shape-margin:0;shape-padding:0;text-decoration-color:#000000;text-decoration-line:none;text-decoration-style:solid;text-indent:0;text-orientation:mixed;text-transform:none;white-space:normal"/></g><g fill="#f4e3d7"><g transform="rotate(-15.682,-55.475,258.88)" shape-rendering="auto" stroke-width="2.5134"><path d="m-5.1836 113.52c-6.6161-6.7e-4 -11.983 4.7786-11.984 10.676-0.0015 5.8972 5.3624 10.678 11.979 10.68 6.6161 2e-3 11.983-4.7747 11.986-10.672 3.783e-4 -2e-3 3.783e-4 -4e-3 0-6e-3 -2.454e-4 -2e-3 -9.083e-4 -4e-3 -0.00195-6e-3 -0.00386-5.8942-5.3648-10.671-11.979-10.672z" color="#000000" color-rendering="auto" dominant-baseline="auto" image-rendering="auto" solid-color="#000000" stop-color="#000000" style="font-feature-settings:normal;font-variant-alternates:normal;font-variant-caps:normal;font-variant-east-asian:normal;font-variant-ligatures:normal;font-variant-numeric:normal;font-variant-position:normal;font-variation-settings:normal;inline-size:0;isolation:auto;mix-blend-mode:normal;paint-order:stroke fill markers;shape-margin:0;shape-padding:0;text-decoration-color:#000000;text-decoration-line:none;text-decoration-style:solid;text-indent:0;text-orientation:mixed;text-transform:none;white-space:normal"/><path d="m6.7817 124.2c-0.00304 5.8875 5.7e-6 -5.8924 1.3e-6 -5e-3z" color="#000000" color-rendering="auto" dominant-baseline="auto" image-rendering="auto" solid-color="#000000" stop-color="#000000" style="font-feature-settings:normal;font-variant-alternates:normal;font-variant-caps:normal;font-variant-east-asian:normal;font-variant-ligatures:normal;font-variant-numeric:normal;font-variant-position:normal;font-variation-settings:normal;inline-size:0;isolation:auto;mix-blend-mode:normal;paint-order:stroke fill markers;shape-margin:0;shape-padding:0;text-decoration-color:#000000;text-decoration-line:none;text-decoration-style:solid;text-indent:0;text-orientation:mixed;text-transform:none;white-space:normal"/></g><g transform="rotate(-77.743,-39.344,42.007)" stroke-width="2.5134"><path d="m-116.78 34.967c-2.7317 0-4.9316 2.198-4.9316 4.9297v6.9863c0 2.7317 2.2 4.9316 4.9316 4.9316s4.9316-2.2 4.9316-4.9316v-6.9863c0-2.7317-2.2-4.9297-4.9316-4.9297z" color="#000000" color-rendering="auto" dominant-baseline="auto" fill="#f4e3d7" image-rendering="auto" shape-rendering="auto" solid-color="#000000" stop-color="#000000" style="font-feature-settings:normal;font-variant-alternates:normal;font-variant-caps:normal;font-variant-east-asian:normal;font-variant-ligatures:normal;font-variant-numeric:normal;font-variant-position:normal;font-variation-settings:normal;inline-size:0;isolation:auto;mix-blend-mode:normal;paint-order:stroke fill markers;shape-margin:0;shape-padding:0;text-decoration-color:#000000;text-decoration-line:none;text-decoration-style:solid;text-indent:0;text-orientation:mixed;text-transform:none;white-space:normal"/></g><g transform="rotate(-48.52,-41.965,77.247)"><path d="m-72.047 80.547c-2.7317 0-4.9316 2.2-4.9316 4.9316v6.9863c0 2.7317 2.2 4.9297 4.9316 4.9297s4.9316-2.198 4.9316-4.9297v-6.9863c0-2.7317-2.2-4.9316-4.9316-4.9316z" color="#000000" color-rendering="auto" dominant-baseline="auto" fill="#f4e3d7" image-rendering="auto" shape-rendering="auto" solid-color="#000000" stop-color="#000000" style="font-feature-settings:normal;font-variant-alternates:normal;font-variant-caps:normal;font-variant-east-asian:normal;font-variant-ligatures:normal;font-variant-numeric:normal;font-variant-position:normal;font-variation-settings:normal;inline-size:0;isolation:auto;mix-blend-mode:normal;paint-order:stroke fill markers;shape-margin:0;shape-padding:0;text-decoration-color:#000000;text-decoration-line:none;text-decoration-style:solid;text-indent:0;text-orientation:mixed;text-transform:none;white-space:normal"/></g><g transform="rotate(-5.6363,-90.447,729.07)" stroke-width="2.5134"><path d="m18.326 101.36c-2.7317 0-4.9316 2.198-4.9316 4.9297v6.9863c0 2.7317 2.2 4.9316 4.9316 4.9316s4.9316-2.2 4.9316-4.9316v-6.9863c1e-6 -2.7317-2.2-4.9297-4.9316-4.9297z" color="#000000" color-rendering="auto" dominant-baseline="auto" fill="#f4e3d7" image-rendering="auto" shape-rendering="auto" solid-color="#000000" stop-color="#000000" style="font-feature-settings:normal;font-variant-alternates:normal;font-variant-caps:normal;font-variant-east-asian:normal;font-variant-ligatures:normal;font-variant-numeric:normal;font-variant-position:normal;font-variation-settings:normal;inline-size:0;isolation:auto;mix-blend-mode:normal;paint-order:stroke fill markers;shape-margin:0;shape-padding:0;text-decoration-color:#000000;text-decoration-line:none;text-decoration-style:solid;text-indent:0;text-orientation:mixed;text-transform:none;white-space:normal"/></g><g transform="rotate(23.642,-23.22,-174.78)" stroke-width="2.5134"><path d="m80.041 80.461c-2.7317 0-4.9316 2.2-4.9316 4.9316v6.9844c0 2.7317 2.2 4.9316 4.9316 4.9316 2.7317 0 4.9316-2.2 4.9316-4.9316v-6.9844c0-2.7317-2.2-4.9316-4.9316-4.9316z" color="#000000" color-rendering="auto" dominant-baseline="auto" fill="#f4e3d7" image-rendering="auto" shape-rendering="auto" solid-color="#000000" stop-color="#000000" style="font-feature-settings:normal;font-variant-alternates:normal;font-variant-caps:normal;font-variant-east-asian:normal;font-variant-ligatures:normal;font-variant-numeric:normal;font-variant-position:normal;font-variation-settings:normal;inline-size:0;isolation:auto;mix-blend-mode:normal;paint-order:stroke fill markers;shape-margin:0;shape-padding:0;text-decoration-color:#000000;text-decoration-line:none;text-decoration-style:solid;text-indent:0;text-orientation:mixed;text-transform:none;white-space:normal"/></g></g></g><g shape-rendering="auto"><path d="m20.826 2.2751 4.1176-0.041835c10.102-0.10264 18.318 7.9475 18.42 18.05l0.28388 27.941c0.10264 10.102-7.9475 18.318-18.05 18.42l-4.1176 0.04184c-10.102 0.10264-18.318-7.9476-18.42-18.05l-0.28388-27.941c-0.10264-10.102 7.9475-18.318 18.05-18.42z" color="#000000" color-rendering="auto" dominant-baseline="auto" fill="#f4e3d7" fill-rule="evenodd" image-rendering="auto" solid-color="#000000" stop-color="#000000" style="font-feature-settings:normal;font-variant-alternates:normal;font-variant-caps:normal;font-variant-east-asian:normal;font-variant-ligatures:normal;font-variant-numeric:normal;font-variant-position:normal;font-variation-settings:normal;inline-size:0;isolation:auto;mix-blend-mode:normal;shape-margin:0;shape-padding:0;text-decoration-color:#000000;text-decoration-line:none;text-decoration-style:solid;text-indent:0;text-orientation:mixed;text-transform:none;white-space:normal"/><path d="m17.533 12.217c-1.0322 0-1.9862 0.24743-2.7718 0.7421-0.78566 0.49468-1.4741 1.3447-1.4741 2.4206a1.3229 1.3229 0 0 0 1.3226 1.3234 1.3229 1.3229 0 0 0 1.3234-1.3234c0 0.05954-0.03441-0.01046 0.23778-0.18184s0.78016-0.33492 1.3622-0.33492 1.0892 0.16354 1.3614 0.33492c0.27219 0.17138 0.23856 0.24138 0.23856 0.18184a1.3229 1.3229 0 0 0 1.3226 1.3234 1.3229 1.3229 0 0 0 1.3226-1.3234c0-1.0759-0.68844-1.9259-1.4741-2.4206-0.78566-0.49468-1.7389-0.7421-2.771-0.7421z" color="#000000" color-rendering="auto" dominant-baseline="auto" fill="#4d4d4d" image-rendering="auto" solid-color="#000000" stop-color="#000000" style="font-feature-settings:normal;font-variant-alternates:normal;font-variant-caps:normal;font-variant-east-asian:normal;font-variant-ligatures:normal;font-variant-numeric:normal;font-variant-position:normal;font-variation-settings:normal;inline-size:0;isolation:auto;mix-blend-mode:normal;paint-order:stroke fill markers;shape-margin:0;shape-padding:0;text-decoration-color:#000000;text-decoration-line:none;text-decoration-style:solid;text-indent:0;text-orientation:mixed;text-transform:none;white-space:normal"/><path d="m28.826 12.217c-1.0322 0-1.9862 0.24743-2.7718 0.7421-0.78566 0.49468-1.4741 1.3447-1.4741 2.4206a1.3229 1.3229 0 0 0 1.3234 1.3234 1.3229 1.3229 0 0 0 1.3226-1.3234c0 0.05954-0.03362-0.01046 0.23856-0.18184 0.2722-0.17138 0.77939-0.33492 1.3614-0.33492 0.58205 0 1.09 0.16354 1.3622 0.33492 0.27219 0.17138 0.23778 0.24138 0.23778 0.18184a1.3229 1.3229 0 0 0 1.3226 1.3234 1.3229 1.3229 0 0 0 1.3234-1.3234c0-1.0759-0.68844-1.9259-1.4741-2.4206-0.78566-0.49468-1.7396-0.7421-2.7718-0.7421z" color="#000000" color-rendering="auto" dominant-baseline="auto" fill="#4d4d4d" image-rendering="auto" solid-color="#000000" stop-color="#000000" style="font-feature-settings:normal;font-variant-alternates:normal;font-variant-caps:normal;font-variant-east-asian:normal;font-variant-ligatures:normal;font-variant-numeric:normal;font-variant-position:normal;font-variation-settings:normal;inline-size:0;isolation:auto;mix-blend-mode:normal;paint-order:stroke fill markers;shape-margin:0;shape-padding:0;text-decoration-color:#000000;text-decoration-line:none;text-decoration-style:solid;text-indent:0;text-orientation:mixed;text-transform:none;white-space:normal"/></g><g fill-rule="evenodd"><path d="m43.506 34.253 0.14194 13.97c0.10264 10.102-7.9475 18.318-18.05 18.42l-4.1176 0.04184c-10.102 0.10264-18.318-7.9475-18.42-18.05l-0.14194-13.97 40.588-0.41238" color="#000000" color-rendering="auto" dominant-baseline="auto" fill="#73a9ad" image-rendering="auto" shape-rendering="auto" solid-color="#000000" stop-color="#000000" style="font-feature-settings:normal;font-variant-alternates:normal;font-variant-caps:normal;font-variant-east-asian:normal;font-variant-ligatures:normal;font-variant-numeric:normal;font-variant-position:normal;font-variation-settings:normal;inline-size:0;isolation:auto;mix-blend-mode:normal;shape-margin:0;shape-padding:0;text-decoration-color:#000000;text-decoration-line:none;text-decoration-style:solid;text-indent:0;text-orientation:mixed;text-transform:none;white-space:normal"/><path d="m2.9303 36.018 0.01268 1.8309 40.588-0.60501-0.01269-1.8309z" color="#000000" color-rendering="auto" dominant-baseline="auto" fill="#5a8387" image-rendering="auto" shape-rendering="auto" solid-color="#000000" stop-color="#000000" style="font-feature-settings:normal;font-variant-alternates:normal;font-variant-caps:normal;font-variant-east-asian:normal;font-variant-ligatures:normal;font-variant-numeric:normal;font-variant-position:normal;font-variation-settings:normal;inline-size:0;isolation:auto;mix-blend-mode:normal;shape-margin:0;shape-padding:0;text-decoration-color:#000000;text-decoration-line:none;text-decoration-style:solid;text-indent:0;text-orientation:mixed;text-transform:none;white-space:normal"/><path d="m29.576 37.598a6.344 6.344 0 0 1-6.2793 6.4082 6.344 6.344 0 0 1-6.4082-6.2793 6.344 6.344 0 0 1 6.2793-6.4082 6.344 6.344 0 0 1 6.4082 6.2793z" fill="#5a8387" style="paint-order:stroke fill markers"/><path d="m27.783 37.616a4.5508 4.5508 0 0 1-4.5043 4.5968 4.5508 4.5508 0 0 1-4.5968-4.5043 4.5508 4.5508 0 0 1 4.5043-4.5968 4.5508 4.5508 0 0 1 4.5968 4.5043z" fill="#7bb0ad" style="paint-order:stroke fill markers"/><path d="m25.867 37.636a2.6348 2.6348 0 0 1-2.6079 2.6615 2.6348 2.6348 0 0 1-2.6615-2.6079 2.6348 2.6348 0 0 1 2.6079-2.6615 2.6348 2.6348 0 0 1 2.6615 2.6079z" fill="#fdffff" style="paint-order:stroke fill markers"/></g><path d="m20.165 23.448a1.3995 1.3995 0 0 0-1.3995 1.3995c1e-6 1.1805 0.81432 2.0394 1.6715 2.5216s1.8833 0.71879 2.9995 0.71879 2.1423-0.23663 2.9995-0.71879c0.85716-0.48216 1.6715-1.3411 1.6715-2.5216a1.3995 1.3995 0 0 0-1.3995-1.3995 1.3995 1.3995 0 0 0-1.3995 1.3972c2e-3 -0.15619 0.07787-0.09757-0.24478 0.08393-0.32692 0.1839-0.9365 0.35979-1.6272 0.35979s-1.3003-0.17589-1.6272-0.35979c-0.32692-0.1839-0.24478-0.24572-0.24478-0.08159a1.3995 1.3995 0 0 0-1.3995-1.3995z" color="#000000" color-rendering="auto" dominant-baseline="auto" fill="#4d4d4d" image-rendering="auto" shape-rendering="auto" solid-color="#000000" stop-color="#000000" style="font-feature-settings:normal;font-variant-alternates:normal;font-variant-caps:normal;font-variant-east-asian:normal;font-variant-ligatures:normal;font-variant-numeric:normal;font-variant-position:normal;font-variation-settings:normal;inline-size:0;isolation:auto;mix-blend-mode:normal;paint-order:stroke fill markers;shape-margin:0;shape-padding:0;text-decoration-color:#000000;text-decoration-line:none;text-decoration-style:solid;text-indent:0;text-orientation:mixed;text-transform:none;white-space:normal"/><g fill-rule="evenodd"><path d="m97.873 58.556c0.16424 0 0.29744 0.12068 0.29744 0.27095v6.0472c0 0.1502-0.13306 0.27092-0.29744 0.27092h-20.189c-0.16424 0-0.29644-0.12068-0.29644-0.27092v-6.0472c0-0.1502 0.13211-0.27095 0.29644-0.27095z" fill="#e6e6e6" stroke-width=".53086"/><g stroke-width=".53084"><rect transform="scale(-1,1)" x="-126.22" y="3.2915" width="74.338" height="54.66" rx="3.7269" ry="3.7269" fill="#666"/><path d="m126.22 51.678v2.5588c0 2.657-1.6614 4.7968-3.7261 4.7968h-66.886c-2.0647 0-3.7274-2.1397-3.7274-4.7968v-2.5588z" fill="#e6e6e6"/><rect transform="scale(-1,1)" x="-122.94" y="7.1162" width="67.731" height="41.543" rx="2.8323" ry="2.8323" fill="#1a1a1a"/></g><circle transform="scale(-1,1)" cx="-87.975" cy="54.655" r="2.1864" fill="#666" stroke-width="2.0063" style="paint-order:stroke fill markers"/><g transform="matrix(-2.3803 0 0 2.3803 643.05 -594.67)" fill="#b7c8c4" stroke-width=".22302"><rect x="219.97" y="256.54" width="12.351" height=".42589" rx=".14893" ry=".14893"/><rect x="222.53" y="258.46" width="16.184" height=".42589" rx=".14893" ry=".14893"/><rect transform="scale(1,-1)" x="222.53" y="-260.16" width="13.415" height=".42589" rx=".14893" ry=".14893"/></g><g stroke-width=".53086"><rect transform="scale(-1)" x="-113.37" y="-27.636" width="31.932" height="1.0137" rx=".3545" ry=".3545" fill="#de8787"/><rect transform="scale(-1,1)" x="-119.46" y="30.682" width="29.399" height="1.0137" rx=".3545" ry=".3545" fill="#c8beb7"/><rect transform="scale(-1,1)" x="-113.37" y="35.229" width="38.523" height="1.0137" rx=".3545" ry=".3545" fill="#ffb380"/><rect transform="scale(-1)" x="-113.37" y="-39.299" width="31.932" height="1.0137" rx=".3545" ry=".3545" fill="#ffb380"/><rect transform="scale(-1)" x="-113.37" y="-42.322" width="31.932" height="1.0137" rx=".3545" ry=".3545" fill="#caf"/><rect transform="scale(-1,1)" x="-113.37" y="20.542" width="38.523" height="1.0137" rx=".3545" ry=".3545" fill="#b7c8c4"/><rect transform="scale(-1,1)" x="-113.37" y="20.542" width="38.523" height="1.0137" rx=".3545" ry=".3545" fill="#87de87"/><rect transform="scale(-1,1)" x="-119.46" y="11.402" width="23.316" height="1.0137" rx=".3545" ry=".3545" fill="#f55"/><path d="m101.25 61.603c0.21899 0 0.39661 0.07426 0.39661 0.16662v3.7214c0 0.09236-0.17733 0.16662-0.39661 0.16662h-26.919c-0.21899 0-0.39527-0.07426-0.39527-0.16662v-3.7214c0-0.09236 0.17614-0.16662 0.39527-0.16662z" fill="#e6e6e6"/></g></g><g transform="matrix(-.37987 -.11829 -.11829 .37987 54.386 -24.162)" stroke-width="2.5134"><g transform="translate(-72.041,-5.3583)"><path d="m23.885 123.7c-0.67082 5.6017 1.4782 9.5326 4.0898 14.012 2.6116 4.4792 6.2116 9.1193 10.512 13.477 8.6003 8.7146 19.885 16.867 32.902 16.42l-0.49609-14.459c-5.8139 0.19965-15.108-4.5015-22.107-11.594-3.4997-3.5462-6.4545-7.9442-8.3125-11.131s-2.094-6.0784-2.2227-5.0039z" color="#000000" color-rendering="auto" dominant-baseline="auto" fill="#4d4d4d" image-rendering="auto" shape-rendering="auto" solid-color="#000000" stop-color="#000000" style="font-feature-settings:normal;font-variant-alternates:normal;font-variant-caps:normal;font-variant-east-asian:normal;font-variant-ligatures:normal;font-variant-numeric:normal;font-variant-position:normal;font-variation-settings:normal;inline-size:0;isolation:auto;mix-blend-mode:normal;shape-margin:0;shape-padding:0;text-decoration-color:#000000;text-decoration-line:none;text-decoration-style:solid;text-indent:0;text-orientation:mixed;text-transform:none;white-space:normal"/></g><g fill="#f4e3d7"><g transform="rotate(-15.682,-55.475,258.88)" shape-rendering="auto" stroke-width="2.5134"><path d="m-5.1836 113.52c-6.6161-6.7e-4 -11.983 4.7786-11.984 10.676-0.0015 5.8972 5.3624 10.678 11.979 10.68 6.6161 2e-3 11.983-4.7747 11.986-10.672 3.783e-4 -2e-3 3.783e-4 -4e-3 0-6e-3 -2.454e-4 -2e-3 -9.083e-4 -4e-3 -0.00195-6e-3 -0.00386-5.8942-5.3648-10.671-11.979-10.672z" color="#000000" color-rendering="auto" dominant-baseline="auto" image-rendering="auto" solid-color="#000000" stop-color="#000000" style="font-feature-settings:normal;font-variant-alternates:normal;font-variant-caps:normal;font-variant-east-asian:normal;font-variant-ligatures:normal;font-variant-numeric:normal;font-variant-position:normal;font-variation-settings:normal;inline-size:0;isolation:auto;mix-blend-mode:normal;paint-order:stroke fill markers;shape-margin:0;shape-padding:0;text-decoration-color:#000000;text-decoration-line:none;text-decoration-style:solid;text-indent:0;text-orientation:mixed;text-transform:none;white-space:normal"/><path d="m6.7817 124.2c-0.00304 5.8875 5.7e-6 -5.8924 1.3e-6 -5e-3z" color="#000000" color-rendering="auto" dominant-baseline="auto" image-rendering="auto" solid-color="#000000" stop-color="#000000" style="font-feature-settings:normal;font-variant-alternates:normal;font-variant-caps:normal;font-variant-east-asian:normal;font-variant-ligatures:normal;font-variant-numeric:normal;font-variant-position:normal;font-variation-settings:normal;inline-size:0;isolation:auto;mix-blend-mode:normal;paint-order:stroke fill markers;shape-margin:0;shape-padding:0;text-decoration-color:#000000;text-decoration-line:none;text-decoration-style:solid;text-indent:0;text-orientation:mixed;text-transform:none;white-space:normal"/></g><g transform="rotate(-77.743,-39.344,42.007)" stroke-width="2.5134"><path d="m-116.78 34.967c-2.7317 0-4.9316 2.198-4.9316 4.9297v6.9863c0 2.7317 2.2 4.9316 4.9316 4.9316s4.9316-2.2 4.9316-4.9316v-6.9863c0-2.7317-2.2-4.9297-4.9316-4.9297z" color="#000000" color-rendering="auto" dominant-baseline="auto" fill="#f4e3d7" image-rendering="auto" shape-rendering="auto" solid-color="#000000" stop-color="#000000" style="font-feature-settings:normal;font-variant-alternates:normal;font-variant-caps:normal;font-variant-east-asian:normal;font-variant-ligatures:normal;font-variant-numeric:normal;font-variant-position:normal;font-variation-settings:normal;inline-size:0;isolation:auto;mix-blend-mode:normal;paint-order:stroke fill markers;shape-margin:0;shape-padding:0;text-decoration-color:#000000;text-decoration-line:none;text-decoration-style:solid;text-indent:0;text-orientation:mixed;text-transform:none;white-space:normal"/></g><g transform="rotate(-48.52,-41.965,77.247)"><path d="m-72.047 80.547c-2.7317 0-4.9316 2.2-4.9316 4.9316v6.9863c0 2.7317 2.2 4.9297 4.9316 4.9297s4.9316-2.198 4.9316-4.9297v-6.9863c0-2.7317-2.2-4.9316-4.9316-4.9316z" color="#000000" color-rendering="auto" dominant-baseline="auto" fill="#f4e3d7" image-rendering="auto" shape-rendering="auto" solid-color="#000000" stop-color="#000000" style="font-feature-settings:normal;font-variant-alternates:normal;font-variant-caps:normal;font-variant-east-asian:normal;font-variant-ligatures:normal;font-variant-numeric:normal;font-variant-position:normal;font-variation-settings:normal;inline-size:0;isolation:auto;mix-blend-mode:normal;paint-order:stroke fill markers;shape-margin:0;shape-padding:0;text-decoration-color:#000000;text-decoration-line:none;text-decoration-style:solid;text-indent:0;text-orientation:mixed;text-transform:none;white-space:normal"/></g><g transform="rotate(-5.6363,-90.447,729.07)" stroke-width="2.5134"><path d="m18.326 101.36c-2.7317 0-4.9316 2.198-4.9316 4.9297v6.9863c0 2.7317 2.2 4.9316 4.9316 4.9316s4.9316-2.2 4.9316-4.9316v-6.9863c1e-6 -2.7317-2.2-4.9297-4.9316-4.9297z" color="#000000" color-rendering="auto" dominant-baseline="auto" fill="#f4e3d7" image-rendering="auto" shape-rendering="auto" solid-color="#000000" stop-color="#000000" style="font-feature-settings:normal;font-variant-alternates:normal;font-variant-caps:normal;font-variant-east-asian:normal;font-variant-ligatures:normal;font-variant-numeric:normal;font-variant-position:normal;font-variation-settings:normal;inline-size:0;isolation:auto;mix-blend-mode:normal;paint-order:stroke fill markers;shape-margin:0;shape-padding:0;text-decoration-color:#000000;text-decoration-line:none;text-decoration-style:solid;text-indent:0;text-orientation:mixed;text-transform:none;white-space:normal"/></g><g transform="rotate(23.642,-23.22,-174.78)" stroke-width="2.5134"><path d="m80.041 80.461c-2.7317 0-4.9316 2.2-4.9316 4.9316v6.9844c0 2.7317 2.2 4.9316 4.9316 4.9316 2.7317 0 4.9316-2.2 4.9316-4.9316v-6.9844c0-2.7317-2.2-4.9316-4.9316-4.9316z" color="#000000" color-rendering="auto" dominant-baseline="auto" fill="#f4e3d7" image-rendering="auto" shape-rendering="auto" solid-color="#000000" stop-color="#000000" style="font-feature-settings:normal;font-variant-alternates:normal;font-variant-caps:normal;font-variant-east-asian:normal;font-variant-ligatures:normal;font-variant-numeric:normal;font-variant-position:normal;font-variation-settings:normal;inline-size:0;isolation:auto;mix-blend-mode:normal;paint-order:stroke fill markers;shape-margin:0;shape-padding:0;text-decoration-color:#000000;text-decoration-line:none;text-decoration-style:solid;text-indent:0;text-orientation:mixed;text-transform:none;white-space:normal"/></g></g></g></svg>
