<svg width="290" height="345" version="1.1" viewBox="0 0 76.729 91.281" xmlns="http://www.w3.org/2000/svg"><g transform="matrix(1.2864 0 0 1.2864 58.646 -304.45)" stroke-width=".77737"><g transform="matrix(.24512 -.1055 .1055 .24512 159.73 143.36)" stroke-width="2.9131"><path d="m23.885 123.7c-0.67082 5.6017 1.4782 9.5326 4.0898 14.012 2.6116 4.4792 6.2116 9.1193 10.512 13.477 8.6003 8.7146 19.885 16.867 32.902 16.42l-0.49609-14.459c-5.8139 0.19965-15.108-4.5015-22.107-11.594-3.4997-3.5462-6.4545-7.9442-8.3125-11.131s-2.094-6.0784-2.2227-5.0039z" color="#000000" color-rendering="auto" dominant-baseline="auto" fill="#4d4d4d" image-rendering="auto" shape-rendering="auto" solid-color="#000000" stop-color="#000000" stroke-width="5.5672" style="font-feature-settings:normal;font-variant-alternates:normal;font-variant-caps:normal;font-variant-east-asian:normal;font-variant-ligatures:normal;font-variant-numeric:normal;font-variant-position:normal;font-variation-settings:normal;inline-size:0;isolation:auto;mix-blend-mode:normal;shape-margin:0;shape-padding:0;text-decoration-color:#000000;text-decoration-line:none;text-decoration-style:solid;text-indent:0;text-orientation:mixed;text-transform:none;white-space:normal"/></g><g fill="#f4e3d7"><g transform="matrix(.20748 -.16783 .16783 .20748 159.73 143.36)" shape-rendering="auto" stroke-width="5.5672"><path d="m-5.1836 113.52c-6.6161-6.7e-4 -11.983 4.7786-11.984 10.676-0.0015 5.8972 5.3624 10.678 11.979 10.68 6.6161 2e-3 11.983-4.7747 11.986-10.672 3.783e-4 -2e-3 3.783e-4 -4e-3 0-6e-3 -2.454e-4 -2e-3 -9.083e-4 -4e-3 -0.00195-6e-3 -0.00386-5.8942-5.3648-10.671-11.979-10.672z" color="#000000" color-rendering="auto" dominant-baseline="auto" image-rendering="auto" solid-color="#000000" stop-color="#000000" style="font-feature-settings:normal;font-variant-alternates:normal;font-variant-caps:normal;font-variant-east-asian:normal;font-variant-ligatures:normal;font-variant-numeric:normal;font-variant-position:normal;font-variation-settings:normal;inline-size:0;isolation:auto;mix-blend-mode:normal;paint-order:stroke fill markers;shape-margin:0;shape-padding:0;text-decoration-color:#000000;text-decoration-line:none;text-decoration-style:solid;text-indent:0;text-orientation:mixed;text-transform:none;white-space:normal"/><path d="m6.7817 124.2c-0.00304 5.8875 5.7e-6 -5.8924 1.3e-6 -5e-3z" color="#000000" color-rendering="auto" dominant-baseline="auto" image-rendering="auto" solid-color="#000000" stop-color="#000000" style="font-feature-settings:normal;font-variant-alternates:normal;font-variant-caps:normal;font-variant-east-asian:normal;font-variant-ligatures:normal;font-variant-numeric:normal;font-variant-position:normal;font-variation-settings:normal;inline-size:0;isolation:auto;mix-blend-mode:normal;paint-order:stroke fill markers;shape-margin:0;shape-padding:0;text-decoration-color:#000000;text-decoration-line:none;text-decoration-style:solid;text-indent:0;text-orientation:mixed;text-transform:none;white-space:normal"/></g><g transform="matrix(-.051057 -.26192 .26192 -.051057 159.73 143.36)" stroke-width="2.9131"><path d="m-116.78 34.967c-2.7317 0-4.9316 2.198-4.9316 4.9297v6.9863c0 2.7317 2.2 4.9316 4.9316 4.9316s4.9316-2.2 4.9316-4.9316v-6.9863c0-2.7317-2.2-4.9297-4.9316-4.9297z" color="#000000" color-rendering="auto" dominant-baseline="auto" fill="#f4e3d7" image-rendering="auto" shape-rendering="auto" solid-color="#000000" stop-color="#000000" stroke-width="5.5672" style="font-feature-settings:normal;font-variant-alternates:normal;font-variant-caps:normal;font-variant-east-asian:normal;font-variant-ligatures:normal;font-variant-numeric:normal;font-variant-position:normal;font-variation-settings:normal;inline-size:0;isolation:auto;mix-blend-mode:normal;paint-order:stroke fill markers;shape-margin:0;shape-padding:0;text-decoration-color:#000000;text-decoration-line:none;text-decoration-style:solid;text-indent:0;text-orientation:mixed;text-transform:none;white-space:normal"/></g><g transform="matrix(.083316 -.25352 .25352 .083316 159.73 143.36)" stroke-width="2.9131"><path d="m-72.047 80.547c-2.7317 0-4.9316 2.2-4.9316 4.9316v6.9863c0 2.7317 2.2 4.9297 4.9316 4.9297s4.9316-2.198 4.9316-4.9297v-6.9863c0-2.7317-2.2-4.9316-4.9316-4.9316z" color="#000000" color-rendering="auto" dominant-baseline="auto" fill="#f4e3d7" image-rendering="auto" shape-rendering="auto" solid-color="#000000" stop-color="#000000" stroke-width="5.5672" style="font-feature-settings:normal;font-variant-alternates:normal;font-variant-caps:normal;font-variant-east-asian:normal;font-variant-ligatures:normal;font-variant-numeric:normal;font-variant-position:normal;font-variation-settings:normal;inline-size:0;isolation:auto;mix-blend-mode:normal;paint-order:stroke fill markers;shape-margin:0;shape-padding:0;text-decoration-color:#000000;text-decoration-line:none;text-decoration-style:solid;text-indent:0;text-orientation:mixed;text-transform:none;white-space:normal"/></g><g transform="matrix(.23357 -.12906 .12906 .23357 159.73 143.36)" stroke-width="2.9131"><path d="m18.326 101.36c-2.7317 0-4.9316 2.198-4.9316 4.9297v6.9863c0 2.7317 2.2 4.9316 4.9316 4.9316s4.9316-2.2 4.9316-4.9316v-6.9863c1e-6 -2.7317-2.2-4.9297-4.9316-4.9297z" color="#000000" color-rendering="auto" dominant-baseline="auto" fill="#f4e3d7" image-rendering="auto" shape-rendering="auto" solid-color="#000000" stop-color="#000000" stroke-width="5.5672" style="font-feature-settings:normal;font-variant-alternates:normal;font-variant-caps:normal;font-variant-east-asian:normal;font-variant-ligatures:normal;font-variant-numeric:normal;font-variant-position:normal;font-variation-settings:normal;inline-size:0;isolation:auto;mix-blend-mode:normal;paint-order:stroke fill markers;shape-margin:0;shape-padding:0;text-decoration-color:#000000;text-decoration-line:none;text-decoration-style:solid;text-indent:0;text-orientation:mixed;text-transform:none;white-space:normal"/></g></g><g transform="matrix(-1.8395 .61553 .61553 1.8395 129.18 86.92)" stroke-width=".93926"><g stroke-width="0"><rect x="-11.359" y="43.966" width="3.8754" height="18.174" ry="0" fill="#f95" style="paint-order:markers fill stroke"/><rect x="-11.359" y="61.06" width="3.8754" height="2.1382" ry="0" fill="#ffe680" style="paint-order:markers fill stroke"/><path d="m-9.4213 43.966h1.9377v18.174h-1.9377z" fill="#ff7f2a" style="paint-order:markers fill stroke"/><path d="m-9.4213 61.06h1.9377v2.1382h-1.9377z" fill="#ffd42a" style="paint-order:markers fill stroke"/><path transform="matrix(1.0536 -.043189 -.040957 -.99916 19.408 82.05)" d="m-24.001 39.121-0.84994 1.6308-0.86113 1.6249-0.98735-1.5515-0.97667-1.5582 1.8373-0.07933z" fill="#fca" style="paint-order:markers fill stroke"/><path transform="matrix(.40121 -.016446 -.015596 -.38048 1.5575 56.521)" d="m-24.001 39.121-0.84994 1.6308-0.86113 1.6249-0.98735-1.5515-0.97667-1.5582 1.8373-0.07933z" fill="#2b1100" style="paint-order:markers fill stroke"/></g></g><g transform="rotate(188.34 202.17 177.49)" stroke-width=".77737"><g transform="matrix(.25261 -.086033 .086033 .25261 184.02 143.41)" stroke-width="2.9131"><g transform="translate(-72.041,-5.3583)" stroke-width="2.9131"><path d="m23.885 123.7c-0.67082 5.6017 1.4782 9.5326 4.0898 14.012 2.6116 4.4792 6.2116 9.1193 10.512 13.477 8.6003 8.7146 19.885 16.867 32.902 16.42l-0.49609-14.459c-5.8139 0.19965-15.108-4.5015-22.107-11.594-3.4997-3.5462-6.4545-7.9442-8.3125-11.131s-2.094-6.0784-2.2227-5.0039z" color="#000000" color-rendering="auto" dominant-baseline="auto" fill="#4d4d4d" image-rendering="auto" shape-rendering="auto" solid-color="#000000" stop-color="#000000" stroke-width="5.5672" style="font-feature-settings:normal;font-variant-alternates:normal;font-variant-caps:normal;font-variant-east-asian:normal;font-variant-ligatures:normal;font-variant-numeric:normal;font-variant-position:normal;font-variation-settings:normal;inline-size:0;isolation:auto;mix-blend-mode:normal;shape-margin:0;shape-padding:0;text-decoration-color:#000000;text-decoration-line:none;text-decoration-style:solid;text-indent:0;text-orientation:mixed;text-transform:none;white-space:normal"/></g><g fill="#f4e3d7"><g transform="rotate(-15.682,-55.475,258.88)" shape-rendering="auto" stroke-width="5.5672"><path d="m-5.1836 113.52c-6.6161-6.7e-4 -11.983 4.7786-11.984 10.676-0.0015 5.8972 5.3624 10.678 11.979 10.68 6.6161 2e-3 11.983-4.7747 11.986-10.672 3.783e-4 -2e-3 3.783e-4 -4e-3 0-6e-3 -2.454e-4 -2e-3 -9.083e-4 -4e-3 -0.00195-6e-3 -0.00386-5.8942-5.3648-10.671-11.979-10.672z" color="#000000" color-rendering="auto" dominant-baseline="auto" image-rendering="auto" solid-color="#000000" stop-color="#000000" style="font-feature-settings:normal;font-variant-alternates:normal;font-variant-caps:normal;font-variant-east-asian:normal;font-variant-ligatures:normal;font-variant-numeric:normal;font-variant-position:normal;font-variation-settings:normal;inline-size:0;isolation:auto;mix-blend-mode:normal;paint-order:stroke fill markers;shape-margin:0;shape-padding:0;text-decoration-color:#000000;text-decoration-line:none;text-decoration-style:solid;text-indent:0;text-orientation:mixed;text-transform:none;white-space:normal"/><path d="m6.7817 124.2c-0.00304 5.8875 5.7e-6 -5.8924 1.3e-6 -5e-3z" color="#000000" color-rendering="auto" dominant-baseline="auto" image-rendering="auto" solid-color="#000000" stop-color="#000000" style="font-feature-settings:normal;font-variant-alternates:normal;font-variant-caps:normal;font-variant-east-asian:normal;font-variant-ligatures:normal;font-variant-numeric:normal;font-variant-position:normal;font-variation-settings:normal;inline-size:0;isolation:auto;mix-blend-mode:normal;paint-order:stroke fill markers;shape-margin:0;shape-padding:0;text-decoration-color:#000000;text-decoration-line:none;text-decoration-style:solid;text-indent:0;text-orientation:mixed;text-transform:none;white-space:normal"/></g><g transform="rotate(-77.743,-39.344,42.007)" stroke-width="2.9131"><path d="m-116.78 34.967c-2.7317 0-4.9316 2.198-4.9316 4.9297v6.9863c0 2.7317 2.2 4.9316 4.9316 4.9316s4.9316-2.2 4.9316-4.9316v-6.9863c0-2.7317-2.2-4.9297-4.9316-4.9297z" color="#000000" color-rendering="auto" dominant-baseline="auto" fill="#f4e3d7" image-rendering="auto" shape-rendering="auto" solid-color="#000000" stop-color="#000000" stroke-width="5.5672" style="font-feature-settings:normal;font-variant-alternates:normal;font-variant-caps:normal;font-variant-east-asian:normal;font-variant-ligatures:normal;font-variant-numeric:normal;font-variant-position:normal;font-variation-settings:normal;inline-size:0;isolation:auto;mix-blend-mode:normal;paint-order:stroke fill markers;shape-margin:0;shape-padding:0;text-decoration-color:#000000;text-decoration-line:none;text-decoration-style:solid;text-indent:0;text-orientation:mixed;text-transform:none;white-space:normal"/></g><g transform="rotate(-48.52,-41.965,77.247)" stroke-width="2.9131"><path d="m-72.047 80.547c-2.7317 0-4.9316 2.2-4.9316 4.9316v6.9863c0 2.7317 2.2 4.9297 4.9316 4.9297s4.9316-2.198 4.9316-4.9297v-6.9863c0-2.7317-2.2-4.9316-4.9316-4.9316z" color="#000000" color-rendering="auto" dominant-baseline="auto" fill="#f4e3d7" image-rendering="auto" shape-rendering="auto" solid-color="#000000" stop-color="#000000" stroke-width="5.5672" style="font-feature-settings:normal;font-variant-alternates:normal;font-variant-caps:normal;font-variant-east-asian:normal;font-variant-ligatures:normal;font-variant-numeric:normal;font-variant-position:normal;font-variation-settings:normal;inline-size:0;isolation:auto;mix-blend-mode:normal;paint-order:stroke fill markers;shape-margin:0;shape-padding:0;text-decoration-color:#000000;text-decoration-line:none;text-decoration-style:solid;text-indent:0;text-orientation:mixed;text-transform:none;white-space:normal"/></g><g transform="rotate(-5.6363,-90.447,729.07)" stroke-width="2.9131"><path d="m18.326 101.36c-2.7317 0-4.9316 2.198-4.9316 4.9297v6.9863c0 2.7317 2.2 4.9316 4.9316 4.9316s4.9316-2.2 4.9316-4.9316v-6.9863c1e-6 -2.7317-2.2-4.9297-4.9316-4.9297z" color="#000000" color-rendering="auto" dominant-baseline="auto" fill="#f4e3d7" image-rendering="auto" shape-rendering="auto" solid-color="#000000" stop-color="#000000" stroke-width="5.5672" style="font-feature-settings:normal;font-variant-alternates:normal;font-variant-caps:normal;font-variant-east-asian:normal;font-variant-ligatures:normal;font-variant-numeric:normal;font-variant-position:normal;font-variation-settings:normal;inline-size:0;isolation:auto;mix-blend-mode:normal;paint-order:stroke fill markers;shape-margin:0;shape-padding:0;text-decoration-color:#000000;text-decoration-line:none;text-decoration-style:solid;text-indent:0;text-orientation:mixed;text-transform:none;white-space:normal"/></g><g transform="rotate(23.642,-23.22,-174.78)" stroke-width="2.9131"><path d="m80.041 80.461c-2.7317 0-4.9316 2.2-4.9316 4.9316v6.9844c0 2.7317 2.2 4.9316 4.9316 4.9316 2.7317 0 4.9316-2.2 4.9316-4.9316v-6.9844c0-2.7317-2.2-4.9316-4.9316-4.9316z" color="#000000" color-rendering="auto" dominant-baseline="auto" fill="#f4e3d7" image-rendering="auto" shape-rendering="auto" solid-color="#000000" stop-color="#000000" stroke-width="5.5672" style="font-feature-settings:normal;font-variant-alternates:normal;font-variant-caps:normal;font-variant-east-asian:normal;font-variant-ligatures:normal;font-variant-numeric:normal;font-variant-position:normal;font-variation-settings:normal;inline-size:0;isolation:auto;mix-blend-mode:normal;paint-order:stroke fill markers;shape-margin:0;shape-padding:0;text-decoration-color:#000000;text-decoration-line:none;text-decoration-style:solid;text-indent:0;text-orientation:mixed;text-transform:none;white-space:normal"/></g></g></g></g><g transform="matrix(.44831 0 0 .44831 165.79 135.48)" stroke-width="1.7341"><g shape-rendering="auto"><path d="m73.994 44.436 6.1602-0.06259c15.114-0.15356 27.405 11.891 27.559 27.005l0.42472 41.802c0.15356 15.114-11.891 27.405-27.005 27.559l-6.1602 0.0626c-15.114 0.15356-27.405-11.891-27.559-27.005l-0.42472-41.802c-0.15356-15.114 11.891-27.405 27.005-27.559z" color="#000000" color-rendering="auto" dominant-baseline="auto" fill="#f4e3d7" fill-rule="evenodd" image-rendering="auto" solid-color="#000000" stop-color="#000000" style="font-feature-settings:normal;font-variant-alternates:normal;font-variant-caps:normal;font-variant-east-asian:normal;font-variant-ligatures:normal;font-variant-numeric:normal;font-variant-position:normal;font-variation-settings:normal;inline-size:0;isolation:auto;mix-blend-mode:normal;shape-margin:0;shape-padding:0;text-decoration-color:#000000;text-decoration-line:none;text-decoration-style:solid;text-indent:0;text-orientation:mixed;text-transform:none;white-space:normal"/><path d="m69.067 59.312c-1.5442 0-2.9715 0.37018-4.147 1.1103-1.1754 0.74013-2.2054 2.0118-2.2054 3.6215a1.9791 1.9791 0 0 0 1.9787 1.9799 1.9791 1.9791 0 0 0 1.9799-1.9799c0 0.08908-0.0515-0.01565 0.35575-0.27205 0.40724-0.25641 1.1672-0.50108 2.038-0.50108 0.87079 0 1.6296 0.24467 2.0369 0.50108s0.35692 0.36113 0.35692 0.27205a1.9791 1.9791 0 0 0 1.9787 1.9799 1.9791 1.9791 0 0 0 1.9787-1.9799c0-1.6097-1.03-2.8814-2.2054-3.6215-1.1754-0.74007-2.6015-1.1103-4.1458-1.1103z" color="#000000" color-rendering="auto" dominant-baseline="auto" fill="#4d4d4d" image-rendering="auto" solid-color="#000000" stop-color="#000000" style="font-feature-settings:normal;font-variant-alternates:normal;font-variant-caps:normal;font-variant-east-asian:normal;font-variant-ligatures:normal;font-variant-numeric:normal;font-variant-position:normal;font-variation-settings:normal;inline-size:0;isolation:auto;mix-blend-mode:normal;paint-order:stroke fill markers;shape-margin:0;shape-padding:0;text-decoration-color:#000000;text-decoration-line:none;text-decoration-style:solid;text-indent:0;text-orientation:mixed;text-transform:none;white-space:normal"/><path d="m85.962 59.312c-1.5442 0-2.9715 0.37018-4.147 1.1103-1.1754 0.74013-2.2055 2.0118-2.2055 3.6215a1.9791 1.9791 0 0 0 1.9799 1.9799 1.9791 1.9791 0 0 0 1.9787-1.9799c0 0.08908-0.0503-0.01565 0.35692-0.27205 0.40723-0.25641 1.166-0.50108 2.0369-0.50108 0.87085 0 1.6308 0.24467 2.038 0.50108 0.40723 0.25641 0.35575 0.36113 0.35575 0.27205a1.9791 1.9791 0 0 0 1.9787 1.9799 1.9791 1.9791 0 0 0 1.9799-1.9799c0-1.6097-1.03-2.8814-2.2054-3.6215-1.1754-0.74007-2.6027-1.1103-4.147-1.1103z" color="#000000" color-rendering="auto" dominant-baseline="auto" fill="#4d4d4d" image-rendering="auto" solid-color="#000000" stop-color="#000000" style="font-feature-settings:normal;font-variant-alternates:normal;font-variant-caps:normal;font-variant-east-asian:normal;font-variant-ligatures:normal;font-variant-numeric:normal;font-variant-position:normal;font-variation-settings:normal;inline-size:0;isolation:auto;mix-blend-mode:normal;paint-order:stroke fill markers;shape-margin:0;shape-padding:0;text-decoration-color:#000000;text-decoration-line:none;text-decoration-style:solid;text-indent:0;text-orientation:mixed;text-transform:none;white-space:normal"/></g><g fill-rule="evenodd"><path d="m107.93 92.277 0.21235 20.902c0.15357 15.114-11.891 27.405-27.005 27.559l-6.1602 0.0626c-15.114 0.15356-27.405-11.891-27.559-27.005l-0.21236-20.902 60.721-0.61697" color="#000000" color-rendering="auto" dominant-baseline="auto" fill="#73a9ad" image-rendering="auto" shape-rendering="auto" solid-color="#000000" stop-color="#000000" style="font-feature-settings:normal;font-variant-alternates:normal;font-variant-caps:normal;font-variant-east-asian:normal;font-variant-ligatures:normal;font-variant-numeric:normal;font-variant-position:normal;font-variation-settings:normal;inline-size:0;isolation:auto;mix-blend-mode:normal;shape-margin:0;shape-padding:0;text-decoration-color:#000000;text-decoration-line:none;text-decoration-style:solid;text-indent:0;text-orientation:mixed;text-transform:none;white-space:normal"/><path d="m47.219 94.92 0.019 2.7392 60.721-0.90513-0.019-2.7392z" color="#000000" color-rendering="auto" dominant-baseline="auto" fill="#5a8387" image-rendering="auto" shape-rendering="auto" solid-color="#000000" stop-color="#000000" style="font-feature-settings:normal;font-variant-alternates:normal;font-variant-caps:normal;font-variant-east-asian:normal;font-variant-ligatures:normal;font-variant-numeric:normal;font-variant-position:normal;font-variation-settings:normal;inline-size:0;isolation:auto;mix-blend-mode:normal;shape-margin:0;shape-padding:0;text-decoration-color:#000000;text-decoration-line:none;text-decoration-style:solid;text-indent:0;text-orientation:mixed;text-transform:none;white-space:normal"/><path d="m87.084 97.283a9.4912 9.4912 0 0 1-9.3948 9.5877 9.4912 9.4912 0 0 1-9.5876-9.3948 9.4912 9.4912 0 0 1 9.3948-9.5877 9.4912 9.4912 0 0 1 9.5876 9.3948z" fill="#5a8387" style="paint-order:stroke fill markers"/><path d="m84.401 97.313a6.8084 6.8084 0 0 1-6.7388 6.8775 6.8084 6.8084 0 0 1-6.8775-6.7388 6.8084 6.8084 0 0 1 6.7388-6.8775 6.8084 6.8084 0 0 1 6.8775 6.7388z" fill="#7bb0ad" style="paint-order:stroke fill markers"/><path d="m81.535 97.337a3.942 3.942 0 0 1-3.9017 3.9818 3.942 3.942 0 0 1-3.9818-3.9017 3.942 3.942 0 0 1 3.9017-3.9818 3.942 3.942 0 0 1 3.9818 3.9017z" fill="#fdffff" style="paint-order:stroke fill markers"/></g><path d="m73.005 76.116a2.0939 2.0939 0 0 0-2.0938 2.0938c0 1.7662 1.2184 3.0512 2.5008 3.7726s2.8177 1.0754 4.4876 1.0754 3.2052-0.35402 4.4876-1.0754c1.2824-0.72138 2.5008-2.0065 2.5008-3.7726a2.0939 2.0939 0 0 0-2.0938-2.0938 2.0939 2.0939 0 0 0-2.0938 2.0903c3e-3 -0.23368 0.11651-0.14598-0.36622 0.12556-0.48911 0.27513-1.4011 0.53828-2.4344 0.53828s-1.9454-0.26315-2.4344-0.53828c-0.4891-0.27513-0.36621-0.36762-0.36621-0.12207a2.0939 2.0939 0 0 0-2.0938-2.0938z" color="#000000" color-rendering="auto" dominant-baseline="auto" fill="#4d4d4d" image-rendering="auto" shape-rendering="auto" solid-color="#000000" stop-color="#000000" style="font-feature-settings:normal;font-variant-alternates:normal;font-variant-caps:normal;font-variant-east-asian:normal;font-variant-ligatures:normal;font-variant-numeric:normal;font-variant-position:normal;font-variation-settings:normal;inline-size:0;isolation:auto;mix-blend-mode:normal;paint-order:stroke fill markers;shape-margin:0;shape-padding:0;text-decoration-color:#000000;text-decoration-line:none;text-decoration-style:solid;text-indent:0;text-orientation:mixed;text-transform:none;white-space:normal"/></g><g transform="matrix(.23594 .12468 -.12468 .23594 172.08 136.26)" fill="#f4e3d7" stroke-width="2.9131"><path d="m80.041 80.461c-2.7317 0-4.9316 2.2-4.9316 4.9316v6.9844c0 2.7317 2.2 4.9316 4.9316 4.9316 2.7317 0 4.9316-2.2 4.9316-4.9316v-6.9844c0-2.7317-2.2-4.9316-4.9316-4.9316z" color="#000000" color-rendering="auto" dominant-baseline="auto" fill="#f4e3d7" image-rendering="auto" shape-rendering="auto" solid-color="#000000" stop-color="#000000" stroke-width="5.5672" style="font-feature-settings:normal;font-variant-alternates:normal;font-variant-caps:normal;font-variant-east-asian:normal;font-variant-ligatures:normal;font-variant-numeric:normal;font-variant-position:normal;font-variation-settings:normal;inline-size:0;isolation:auto;mix-blend-mode:normal;paint-order:stroke fill markers;shape-margin:0;shape-padding:0;text-decoration-color:#000000;text-decoration-line:none;text-decoration-style:solid;text-indent:0;text-orientation:mixed;text-transform:none;white-space:normal"/></g></g><g transform="translate(-119.58 -100.76)"><g transform="matrix(.2201 .14913 .14913 -.2201 120.35 152.15)" stroke-width="3.7613"><path d="m23.885 123.7c-0.67082 5.6017 1.4782 9.5326 4.0898 14.012 2.6116 4.4792 6.2116 9.1193 10.512 13.477 8.6003 8.7146 19.885 16.867 32.902 16.42l-0.49609-14.459c-5.8139 0.19965-15.108-4.5015-22.107-11.594-3.4997-3.5462-6.4545-7.9442-8.3125-11.131s-2.094-6.0784-2.2227-5.0039z" color="#000000" color-rendering="auto" dominant-baseline="auto" fill="#4d4d4d" image-rendering="auto" shape-rendering="auto" solid-color="#000000" stop-color="#000000" stroke-width="5.6287" style="font-feature-settings:normal;font-variant-alternates:normal;font-variant-caps:normal;font-variant-east-asian:normal;font-variant-ligatures:normal;font-variant-numeric:normal;font-variant-position:normal;font-variation-settings:normal;inline-size:0;isolation:auto;mix-blend-mode:normal;shape-margin:0;shape-padding:0;text-decoration-color:#000000;text-decoration-line:none;text-decoration-style:solid;text-indent:0;text-orientation:mixed;text-transform:none;white-space:normal"/></g><g transform="translate(.30422 26.467)"><g transform="matrix(-.23697 .12053 .12053 .23697 154.74 57.7)" stroke-width="3.7613"><g transform="translate(-72.041,-5.3583)" stroke-width="3.7613"><path d="m23.885 123.7c-0.67082 5.6017 1.4782 9.5326 4.0898 14.012 2.6116 4.4792 6.2116 9.1193 10.512 13.477 8.6003 8.7146 19.885 16.867 32.902 16.42l-0.49609-14.459c-5.8139 0.19965-15.108-4.5015-22.107-11.594-3.4997-3.5462-6.4545-7.9442-8.3125-11.131s-2.094-6.0784-2.2227-5.0039z" color="#000000" color-rendering="auto" dominant-baseline="auto" fill="#4d4d4d" image-rendering="auto" shape-rendering="auto" solid-color="#000000" stop-color="#000000" stroke-width="5.6287" style="font-feature-settings:normal;font-variant-alternates:normal;font-variant-caps:normal;font-variant-east-asian:normal;font-variant-ligatures:normal;font-variant-numeric:normal;font-variant-position:normal;font-variation-settings:normal;inline-size:0;isolation:auto;mix-blend-mode:normal;shape-margin:0;shape-padding:0;text-decoration-color:#000000;text-decoration-line:none;text-decoration-style:solid;text-indent:0;text-orientation:mixed;text-transform:none;white-space:normal"/></g><g fill="#f4e3d7"><g transform="rotate(-15.682,-55.475,258.88)" shape-rendering="auto" stroke-width="5.6287"><path d="m-5.1836 113.52c-6.6161-6.7e-4 -11.983 4.7786-11.984 10.676-0.0015 5.8972 5.3624 10.678 11.979 10.68 6.6161 2e-3 11.983-4.7747 11.986-10.672 3.783e-4 -2e-3 3.783e-4 -4e-3 0-6e-3 -2.454e-4 -2e-3 -9.083e-4 -4e-3 -0.00195-6e-3 -0.00386-5.8942-5.3648-10.671-11.979-10.672z" color="#000000" color-rendering="auto" dominant-baseline="auto" image-rendering="auto" solid-color="#000000" stop-color="#000000" style="font-feature-settings:normal;font-variant-alternates:normal;font-variant-caps:normal;font-variant-east-asian:normal;font-variant-ligatures:normal;font-variant-numeric:normal;font-variant-position:normal;font-variation-settings:normal;inline-size:0;isolation:auto;mix-blend-mode:normal;paint-order:stroke fill markers;shape-margin:0;shape-padding:0;text-decoration-color:#000000;text-decoration-line:none;text-decoration-style:solid;text-indent:0;text-orientation:mixed;text-transform:none;white-space:normal"/><path d="m6.7817 124.2c-0.00304 5.8875 5.7e-6 -5.8924 1.3e-6 -5e-3z" color="#000000" color-rendering="auto" dominant-baseline="auto" image-rendering="auto" solid-color="#000000" stop-color="#000000" style="font-feature-settings:normal;font-variant-alternates:normal;font-variant-caps:normal;font-variant-east-asian:normal;font-variant-ligatures:normal;font-variant-numeric:normal;font-variant-position:normal;font-variation-settings:normal;inline-size:0;isolation:auto;mix-blend-mode:normal;paint-order:stroke fill markers;shape-margin:0;shape-padding:0;text-decoration-color:#000000;text-decoration-line:none;text-decoration-style:solid;text-indent:0;text-orientation:mixed;text-transform:none;white-space:normal"/></g><g transform="rotate(-77.743,-39.344,42.007)" stroke-width="3.7613"><path d="m-116.78 34.967c-2.7317 0-4.9316 2.198-4.9316 4.9297v6.9863c0 2.7317 2.2 4.9316 4.9316 4.9316s4.9316-2.2 4.9316-4.9316v-6.9863c0-2.7317-2.2-4.9297-4.9316-4.9297z" color="#000000" color-rendering="auto" dominant-baseline="auto" fill="#f4e3d7" image-rendering="auto" shape-rendering="auto" solid-color="#000000" stop-color="#000000" stroke-width="5.6287" style="font-feature-settings:normal;font-variant-alternates:normal;font-variant-caps:normal;font-variant-east-asian:normal;font-variant-ligatures:normal;font-variant-numeric:normal;font-variant-position:normal;font-variation-settings:normal;inline-size:0;isolation:auto;mix-blend-mode:normal;paint-order:stroke fill markers;shape-margin:0;shape-padding:0;text-decoration-color:#000000;text-decoration-line:none;text-decoration-style:solid;text-indent:0;text-orientation:mixed;text-transform:none;white-space:normal"/></g><g transform="rotate(-48.52,-41.965,77.247)" stroke-width="3.7613"><path d="m-72.047 80.547c-2.7317 0-4.9316 2.2-4.9316 4.9316v6.9863c0 2.7317 2.2 4.9297 4.9316 4.9297s4.9316-2.198 4.9316-4.9297v-6.9863c0-2.7317-2.2-4.9316-4.9316-4.9316z" color="#000000" color-rendering="auto" dominant-baseline="auto" fill="#f4e3d7" image-rendering="auto" shape-rendering="auto" solid-color="#000000" stop-color="#000000" stroke-width="5.6287" style="font-feature-settings:normal;font-variant-alternates:normal;font-variant-caps:normal;font-variant-east-asian:normal;font-variant-ligatures:normal;font-variant-numeric:normal;font-variant-position:normal;font-variation-settings:normal;inline-size:0;isolation:auto;mix-blend-mode:normal;paint-order:stroke fill markers;shape-margin:0;shape-padding:0;text-decoration-color:#000000;text-decoration-line:none;text-decoration-style:solid;text-indent:0;text-orientation:mixed;text-transform:none;white-space:normal"/></g><g transform="rotate(-5.6363,-90.447,729.07)" stroke-width="3.7613"><path d="m18.326 101.36c-2.7317 0-4.9316 2.198-4.9316 4.9297v6.9863c0 2.7317 2.2 4.9316 4.9316 4.9316s4.9316-2.2 4.9316-4.9316v-6.9863c1e-6 -2.7317-2.2-4.9297-4.9316-4.9297z" color="#000000" color-rendering="auto" dominant-baseline="auto" fill="#f4e3d7" image-rendering="auto" shape-rendering="auto" solid-color="#000000" stop-color="#000000" stroke-width="5.6287" style="font-feature-settings:normal;font-variant-alternates:normal;font-variant-caps:normal;font-variant-east-asian:normal;font-variant-ligatures:normal;font-variant-numeric:normal;font-variant-position:normal;font-variation-settings:normal;inline-size:0;isolation:auto;mix-blend-mode:normal;paint-order:stroke fill markers;shape-margin:0;shape-padding:0;text-decoration-color:#000000;text-decoration-line:none;text-decoration-style:solid;text-indent:0;text-orientation:mixed;text-transform:none;white-space:normal"/></g><g transform="rotate(23.642,-23.22,-174.78)" stroke-width="3.7613"><path d="m80.041 80.461c-2.7317 0-4.9316 2.2-4.9316 4.9316v6.9844c0 2.7317 2.2 4.9316 4.9316 4.9316 2.7317 0 4.9316-2.2 4.9316-4.9316v-6.9844c0-2.7317-2.2-4.9316-4.9316-4.9316z" color="#000000" color-rendering="auto" dominant-baseline="auto" fill="#f4e3d7" image-rendering="auto" shape-rendering="auto" solid-color="#000000" stop-color="#000000" stroke-width="5.6287" style="font-feature-settings:normal;font-variant-alternates:normal;font-variant-caps:normal;font-variant-east-asian:normal;font-variant-ligatures:normal;font-variant-numeric:normal;font-variant-position:normal;font-variation-settings:normal;inline-size:0;isolation:auto;mix-blend-mode:normal;paint-order:stroke fill markers;shape-margin:0;shape-padding:0;text-decoration-color:#000000;text-decoration-line:none;text-decoration-style:solid;text-indent:0;text-orientation:mixed;text-transform:none;white-space:normal"/></g></g></g><g transform="matrix(.59561 -.30295 .30295 .59561 101.45 60.563)" stroke-width="1.4965"><g shape-rendering="auto"><path d="m58.953 62.678 4.1176-0.04183c10.102-0.10264 18.318 7.9475 18.42 18.05l0.28388 27.941c0.10264 10.102-7.9475 18.318-18.05 18.42l-4.1176 0.0418c-10.102 0.10268-18.318-7.9475-18.42-18.05l-0.28388-27.941c-0.10264-10.102 7.9475-18.318 18.05-18.42z" color="#000000" color-rendering="auto" dominant-baseline="auto" fill="#f4e3d7" fill-rule="evenodd" image-rendering="auto" solid-color="#000000" stop-color="#000000" style="font-feature-settings:normal;font-variant-alternates:normal;font-variant-caps:normal;font-variant-east-asian:normal;font-variant-ligatures:normal;font-variant-numeric:normal;font-variant-position:normal;font-variation-settings:normal;inline-size:0;isolation:auto;mix-blend-mode:normal;shape-margin:0;shape-padding:0;text-decoration-color:#000000;text-decoration-line:none;text-decoration-style:solid;text-indent:0;text-orientation:mixed;text-transform:none;white-space:normal"/><path d="m55.66 72.62c-1.0322 0-1.9862 0.24743-2.7718 0.7421-0.78566 0.49468-1.4741 1.3447-1.4741 2.4206a1.3229 1.3229 0 0 0 1.3226 1.3234 1.3229 1.3229 0 0 0 1.3234-1.3234c0 0.05954-0.03441-0.01046 0.23778-0.18184 0.27219-0.17138 0.78016-0.33492 1.3622-0.33492s1.0892 0.16354 1.3614 0.33492c0.27219 0.17138 0.23856 0.24138 0.23856 0.18184a1.3229 1.3229 0 0 0 1.3226 1.3234 1.3229 1.3229 0 0 0 1.3226-1.3234c0-1.0759-0.68844-1.9259-1.4741-2.4206-0.78566-0.49468-1.7389-0.7421-2.771-0.7421z" color="#000000" color-rendering="auto" dominant-baseline="auto" fill="#4d4d4d" image-rendering="auto" solid-color="#000000" stop-color="#000000" style="font-feature-settings:normal;font-variant-alternates:normal;font-variant-caps:normal;font-variant-east-asian:normal;font-variant-ligatures:normal;font-variant-numeric:normal;font-variant-position:normal;font-variation-settings:normal;inline-size:0;isolation:auto;mix-blend-mode:normal;paint-order:stroke fill markers;shape-margin:0;shape-padding:0;text-decoration-color:#000000;text-decoration-line:none;text-decoration-style:solid;text-indent:0;text-orientation:mixed;text-transform:none;white-space:normal"/><path d="m66.953 72.62c-1.0322 0-1.9862 0.24743-2.7718 0.7421-0.78566 0.49468-1.4741 1.3447-1.4741 2.4206a1.3229 1.3229 0 0 0 1.3234 1.3234 1.3229 1.3229 0 0 0 1.3226-1.3234c0 0.05954-0.03362-0.01046 0.23856-0.18184 0.2722-0.17138 0.77939-0.33492 1.3614-0.33492 0.58205 0 1.09 0.16354 1.3622 0.33492 0.27219 0.17138 0.23778 0.24138 0.23778 0.18184a1.3229 1.3229 0 0 0 1.3226 1.3234 1.3229 1.3229 0 0 0 1.3234-1.3234c0-1.0759-0.68844-1.9259-1.4741-2.4206-0.78566-0.49468-1.7396-0.7421-2.7718-0.7421z" color="#000000" color-rendering="auto" dominant-baseline="auto" fill="#4d4d4d" image-rendering="auto" solid-color="#000000" stop-color="#000000" style="font-feature-settings:normal;font-variant-alternates:normal;font-variant-caps:normal;font-variant-east-asian:normal;font-variant-ligatures:normal;font-variant-numeric:normal;font-variant-position:normal;font-variation-settings:normal;inline-size:0;isolation:auto;mix-blend-mode:normal;paint-order:stroke fill markers;shape-margin:0;shape-padding:0;text-decoration-color:#000000;text-decoration-line:none;text-decoration-style:solid;text-indent:0;text-orientation:mixed;text-transform:none;white-space:normal"/></g><g fill-rule="evenodd"><path d="m81.632 94.656 0.14194 13.97c0.10264 10.102-7.9475 18.318-18.05 18.42l-4.1176 0.0418c-10.102 0.10268-18.318-7.9474-18.42-18.05l-0.14194-13.97 40.588-0.41238" color="#000000" color-rendering="auto" dominant-baseline="auto" fill="#73a9ad" image-rendering="auto" shape-rendering="auto" solid-color="#000000" stop-color="#000000" style="font-feature-settings:normal;font-variant-alternates:normal;font-variant-caps:normal;font-variant-east-asian:normal;font-variant-ligatures:normal;font-variant-numeric:normal;font-variant-position:normal;font-variation-settings:normal;inline-size:0;isolation:auto;mix-blend-mode:normal;shape-margin:0;shape-padding:0;text-decoration-color:#000000;text-decoration-line:none;text-decoration-style:solid;text-indent:0;text-orientation:mixed;text-transform:none;white-space:normal"/><path d="m41.057 96.421 0.01268 1.8309 40.588-0.60501-0.01269-1.8309z" color="#000000" color-rendering="auto" dominant-baseline="auto" fill="#5a8387" image-rendering="auto" shape-rendering="auto" solid-color="#000000" stop-color="#000000" style="font-feature-settings:normal;font-variant-alternates:normal;font-variant-caps:normal;font-variant-east-asian:normal;font-variant-ligatures:normal;font-variant-numeric:normal;font-variant-position:normal;font-variation-settings:normal;inline-size:0;isolation:auto;mix-blend-mode:normal;shape-margin:0;shape-padding:0;text-decoration-color:#000000;text-decoration-line:none;text-decoration-style:solid;text-indent:0;text-orientation:mixed;text-transform:none;white-space:normal"/><path d="m67.703 98.001a6.344 6.344 0 0 1-6.2793 6.4082 6.344 6.344 0 0 1-6.4082-6.2793 6.344 6.344 0 0 1 6.2793-6.4082 6.344 6.344 0 0 1 6.4082 6.2793z" fill="#5a8387" style="paint-order:stroke fill markers"/><path d="m65.91 98.019a4.5508 4.5508 0 0 1-4.5043 4.5968 4.5508 4.5508 0 0 1-4.5968-4.5043 4.5508 4.5508 0 0 1 4.5043-4.5968 4.5508 4.5508 0 0 1 4.5968 4.5043z" fill="#7bb0ad" style="paint-order:stroke fill markers"/><path d="m63.994 98.039a2.6348 2.6348 0 0 1-2.6079 2.6615 2.6348 2.6348 0 0 1-2.6615-2.6079 2.6348 2.6348 0 0 1 2.6079-2.6615 2.6348 2.6348 0 0 1 2.6615 2.6079z" fill="#fdffff" style="paint-order:stroke fill markers"/></g><path d="m58.292 83.851a1.3995 1.3995 0 0 0-1.3995 1.3995c1e-6 1.1805 0.81432 2.0394 1.6715 2.5216 0.85718 0.4822 1.8833 0.71879 2.9995 0.71879 1.1162 0 2.1423-0.23663 2.9995-0.71879 0.85716-0.48216 1.6715-1.3411 1.6715-2.5216a1.3995 1.3995 0 0 0-1.3995-1.3995 1.3995 1.3995 0 0 0-1.3995 1.3972c2e-3 -0.15619 0.07787-0.09757-0.24478 0.08393-0.32692 0.1839-0.9365 0.35979-1.6272 0.35979-0.6907 0-1.3003-0.17589-1.6272-0.35979-0.32692-0.1839-0.24478-0.24572-0.24478-0.08159a1.3995 1.3995 0 0 0-1.3995-1.3995z" color="#000000" color-rendering="auto" dominant-baseline="auto" fill="#4d4d4d" image-rendering="auto" shape-rendering="auto" solid-color="#000000" stop-color="#000000" style="font-feature-settings:normal;font-variant-alternates:normal;font-variant-caps:normal;font-variant-east-asian:normal;font-variant-ligatures:normal;font-variant-numeric:normal;font-variant-position:normal;font-variation-settings:normal;inline-size:0;isolation:auto;mix-blend-mode:normal;paint-order:stroke fill markers;shape-margin:0;shape-padding:0;text-decoration-color:#000000;text-decoration-line:none;text-decoration-style:solid;text-indent:0;text-orientation:mixed;text-transform:none;white-space:normal"/></g></g><g transform="translate(.85855)" fill-rule="evenodd"><path d="m165.91 184.69c0.16424 0 0.29744 0.12068 0.29744 0.27095v6.0471c0 0.1502-0.13305 0.27092-0.29744 0.27092h-20.188c-0.16424 0-0.29645-0.12068-0.29645-0.27092v-6.0471c0-0.1502 0.13211-0.27095 0.29645-0.27095z" fill="#e6e6e6" stroke-width=".53085"/><g stroke-width=".53084"><rect transform="scale(-1,1)" x="-194.25" y="129.43" width="74.338" height="54.66" rx="3.7269" ry="3.7269" fill="#666"/><path d="m194.25 177.82v2.5588c0 2.657-1.6614 4.7968-3.7261 4.7968h-66.886c-2.0647 0-3.7274-2.1397-3.7274-4.7968v-2.5588z" fill="#e6e6e6"/><rect transform="scale(-1,1)" x="-190.97" y="133.25" width="67.73" height="41.543" rx="2.8323" ry="2.8323" fill="#fff"/></g><circle transform="scale(-1,1)" cx="-156.01" cy="180.79" r="2.1864" fill="#666" stroke-width="2.0063" style="paint-order:stroke fill markers"/><path d="m169.29 187.74c0.21899 0 0.39661 0.0743 0.39661 0.16662v3.7214c0 0.0924-0.17733 0.16662-0.39661 0.16662h-26.919c-0.21899 0-0.39527-0.0743-0.39527-0.16662v-3.7214c0-0.0924 0.17614-0.16662 0.39527-0.16662z" fill="#e6e6e6" stroke-width=".53085"/></g><rect x="128.22" y="156.2" width="59.445" height="5.1445" rx="1.8972" ry="1.8972" fill="#ececec" stroke="#ccc" stroke-linecap="round" stroke-linejoin="round" stroke-width=".26458" style="paint-order:fill markers stroke"/><rect x="175.88" y="163.8" width="10.802" height="4.1638" rx="1.8972" ry="1.8972" fill="#666" stroke-linecap="round" stroke-linejoin="round" stroke-opacity=".3792" stroke-width="1.8521" style="paint-order:fill markers stroke"/><rect x="129.27" y="149.65" width="57.352" height=".67792" fill="#999" style="paint-order:fill markers stroke"/><rect x="129.27" y="151.8" width="19.631" height=".67792" fill="#999" style="paint-order:fill markers stroke"/><g transform="matrix(.053039 0 0 .053039 172.37 160.27)" fill="#fff" stroke-linecap="round" stroke-linejoin="round" stroke-width="24.943"><path d="m144.58 90.076c-1.1524 0-2.2003 0.46596-2.9551 1.2207-0.75474 0.75474-1.2207 1.8026-1.2207 2.9551v25.73c0 1.1524 0.46598 2.2003 1.2207 2.9551 0.75474 0.75474 1.8026 1.2207 2.9551 1.2207h48.234c1.1524 0 2.2003-0.46596 2.9551-1.2207 0.75473-0.75475 1.2207-1.8026 1.2207-2.9551v-25.73c0-1.1524-0.46597-2.2003-1.2207-2.9551-0.75475-0.75475-1.8027-1.2207-2.9551-1.2207zm0 1h48.234c0.88404 0 1.6739 0.35362 2.248 0.92773 0.5741 0.5741 0.92773 1.364 0.92773 2.248v25.73c0 0.88404-0.35362 1.6739-0.92773 2.248-0.57412 0.57411-1.364 0.92773-2.248 0.92773h-48.234c-0.88403 0-1.6739-0.35362-2.248-0.92773-0.57411-0.57413-0.92774-1.364-0.92774-2.248v-25.73c0-0.88405 0.35363-1.6739 0.92774-2.248 0.57411-0.57412 1.364-0.92773 2.248-0.92773z" color="#000000" style="paint-order:fill markers stroke"/><path d="m180.06 106.72a0.50007 0.50007 0 0 0-0.33985 0.17578 0.50007 0.50007 0 0 0 0.0606 0.70508c0.65963 0.5552 1.2397 1.0304 1.916 1.6016 0.67937 0.57378 1.3669 1.1536 2.0527 1.7344s1.3711 1.1628 2.0469 1.7363c0.67577 0.57349 1.3411 1.1395 1.9902 1.6914 0.64916 0.5519 1.2807 1.0895 1.8867 1.6055 0.606 0.51596 1.188 1.0108 1.7344 1.4766 0.54634 0.46574 1.0572 0.90154 1.5274 1.3027 0.47012 0.40119 0.898 0.76749 1.2754 1.0898 0.37738 0.32236 0.70454 0.60088 0.97265 0.83008 0.22989 0.19653 0.393 0.33681 0.53125 0.45508-0.16043 0.40899-0.34951 0.80849-0.65429 1.1133-0.57409 0.57408-1.364 0.92773-2.248 0.92773h-48.234c-0.88403 0-1.6739-0.35358-2.248-0.92773-0.29399-0.294-0.47636-0.67888-0.63672-1.0703 0.13854-0.11515 0.29752-0.25008 0.52539-0.43946 0.26988-0.22429 0.59876-0.49689 0.97852-0.8125 0.37976-0.3156 0.81027-0.67338 1.2832-1.0664 0.47294-0.39304 0.9877-0.82078 1.5371-1.2774s1.133-0.943 1.7422-1.4492c0.60916-0.50622 1.2442-1.0322 1.8965-1.5742 0.65223-0.54198 1.3214-1.0983 2-1.6621 0.67859-0.56386 1.3664-1.1352 2.0547-1.707 0.68823-0.57183 1.3774-1.145 2.0586-1.7109 0.67942-0.56449 1.6084-1.3274 2.2676-1.875a0.50007 0.50007 0 0 0 0.0644-0.70508 0.50007 0.50007 0 0 0-0.70312-0.0644c-0.65563 0.54466-1.5846 1.3076-2.2676 1.875-0.6812 0.56594-1.3704 1.1391-2.0586 1.7109-0.68825 0.57185-1.3761 1.1432-2.0547 1.707-0.6786 0.56387-1.3478 1.1201-2 1.6621-0.65224 0.54199-1.2873 1.0699-1.8965 1.5762-0.60917 0.50622-1.1928 0.99069-1.7422 1.4473-0.54942 0.45658-1.0642 0.88432-1.5371 1.2774-0.47294 0.39303-0.90345 0.75081-1.2832 1.0664-0.37976 0.31561-0.70863 0.59015-0.97851 0.81445s-0.48171 0.39849-0.625 0.51758l-0.21875 0.18164a0.50012 0.50012 0 0 0-0.16016 0.52735c0.20004 0.67333 0.56391 1.2748 1.0469 1.7578 0.7547 0.75469 1.8026 1.2207 2.9551 1.2207h48.234c1.1524 0 2.2003-0.46594 2.9551-1.2207 0.49352-0.49352 0.86353-1.1098 1.0605-1.8008a0.50012 0.50012 0 0 0-0.15625-0.51758s-0.0764-0.0657-0.21875-0.1875c-0.14238-0.12181-0.35094-0.30002-0.61914-0.5293s-0.59517-0.50959-0.97265-0.83203c-0.37749-0.32243-0.80514-0.68658-1.2754-1.0879-0.47025-0.4013-0.98282-0.83883-1.5293-1.3047-0.54648-0.46584-1.1282-0.96046-1.7344-1.4766-0.60619-0.51611-1.2374-1.0534-1.8867-1.6055-0.64936-0.55205-1.3162-1.1196-1.9922-1.6934-0.67601-0.5737-1.3607-1.1533-2.0469-1.7344-0.68614-0.58106-1.373-1.1622-2.0527-1.7363-0.68285-0.57673-1.2644-1.0534-1.918-1.6035a0.50007 0.50007 0 0 0-0.36523-0.11523z" color="#000000" style="paint-order:fill markers stroke"/><path d="m144.58 90.076c-1.1524 0-2.2004 0.46601-2.9551 1.2207-0.48297 0.48298-0.84684 1.0845-1.0469 1.7578a0.50012 0.50012 0 0 0 0.16016 0.52734s19.409 16.132 24.02 19.955c1.5885 1.4272 2.6776 2.2401 3.9141 2.2852 1.2413 0.0453 2.363-0.69382 4.0059-1.9863a0.50012 0.50012 0 0 0 2e-3 0c4.7463-3.7413 23.994-20.221 23.994-20.221a0.50012 0.50012 0 0 0 0.15625-0.51758c-0.19701-0.69093-0.56702-1.3073-1.0605-1.8008-0.75477-0.75476-1.8026-1.2207-2.9551-1.2207zm0 1h48.234c0.88402 0 1.674 0.35365 2.248 0.92773 0.30415 0.30415 0.4919 0.70335 0.65234 1.1113-0.48507 0.41512-19.058 16.312-23.654 19.936-1.6082 1.2653-2.5506 1.8026-3.3516 1.7734-0.80098-0.0292-1.7323-0.63788-3.2969-2.0449a0.50012 0.50012 0 0 0-0.0156-0.0137c-4.5471-3.7708-23.204-19.274-23.703-19.689 0.16038-0.39245 0.34405-0.77763 0.63867-1.0723 0.57416-0.57415 1.364-0.92773 2.248-0.92773z" color="#000000" style="paint-order:fill markers stroke"/></g><g transform="matrix(.27741 0 0 .27741 17.384 112.49)" stroke-width="0"><path d="m445.19 99.97h-40.08c-0.8461 0-1.6097 0.34058-2.1618 0.89269-0.5521 0.5521-0.89268 1.3157-0.89268 2.1618v21.382c0 0.8461 0.34058 1.6097 0.89268 2.1618 0.55211 0.55211 1.3157 0.89269 2.1618 0.89269h40.08c0.8461 0 1.6097-0.34058 2.1618-0.89269 0.5521-0.55211 0.89268-1.3157 0.89268-2.1618v-21.382c0-0.84611-0.34058-1.6097-0.89268-2.1618-0.55211-0.55211-1.3157-0.89269-2.1618-0.89269z" fill="#c4b7c8" style="paint-order:fill markers stroke"/><path d="m405.11 127.31c-0.84611 0-1.6096-0.34061-2.1617-0.89271-0.35313-0.35314-0.61911-0.7929-0.76541-1.2854 0 0 16.129-13.405 19.959-16.581 2.6284-2.3637 3.3575-2.3683 6.059-0.24295 3.9067 3.0795 19.926 16.792 19.926 16.792-0.14412 0.50542-0.41377 0.95671-0.77455 1.3175-0.55211 0.5521-1.3159 0.89271-2.162 0.89271z" fill="#8a6f91" fill-opacity=".10703" style="paint-order:fill markers stroke"/><path d="m405.11 99.97c-0.84611 0-1.6096 0.34061-2.1617 0.89271-0.35313 0.35314-0.61911 0.7929-0.76541 1.2854 0 0 16.129 13.405 19.959 16.581 2.6284 2.3637 3.3575 2.3683 6.059 0.24295 3.9067-3.0795 19.926-16.792 19.926-16.792-0.14412-0.50542-0.41377-0.95671-0.77455-1.3175-0.55211-0.5521-1.3159-0.89271-2.162-0.89271z" fill="#a793ac" style="paint-order:fill markers stroke"/></g><g transform="matrix(.21765 -.15267 -.15267 -.21765 173.64 148.65)" fill="#f4e3d7"><g transform="rotate(-15.682,-55.475,258.88)" shape-rendering="auto" stroke-width="5.6287"><path d="m-5.1836 113.52c-6.6161-6.7e-4 -11.983 4.7786-11.984 10.676-0.0015 5.8972 5.3624 10.678 11.979 10.68 6.6161 2e-3 11.983-4.7747 11.986-10.672 3.783e-4 -2e-3 3.783e-4 -4e-3 0-6e-3 -2.454e-4 -2e-3 -9.083e-4 -4e-3 -0.00195-6e-3 -0.00386-5.8942-5.3648-10.671-11.979-10.672z" color="#000000" color-rendering="auto" dominant-baseline="auto" image-rendering="auto" solid-color="#000000" stop-color="#000000" style="font-feature-settings:normal;font-variant-alternates:normal;font-variant-caps:normal;font-variant-east-asian:normal;font-variant-ligatures:normal;font-variant-numeric:normal;font-variant-position:normal;font-variation-settings:normal;inline-size:0;isolation:auto;mix-blend-mode:normal;paint-order:stroke fill markers;shape-margin:0;shape-padding:0;text-decoration-color:#000000;text-decoration-line:none;text-decoration-style:solid;text-indent:0;text-orientation:mixed;text-transform:none;white-space:normal"/><path d="m6.7817 124.2c-0.00304 5.8875 5.7e-6 -5.8924 1.3e-6 -5e-3z" color="#000000" color-rendering="auto" dominant-baseline="auto" image-rendering="auto" solid-color="#000000" stop-color="#000000" style="font-feature-settings:normal;font-variant-alternates:normal;font-variant-caps:normal;font-variant-east-asian:normal;font-variant-ligatures:normal;font-variant-numeric:normal;font-variant-position:normal;font-variation-settings:normal;inline-size:0;isolation:auto;mix-blend-mode:normal;paint-order:stroke fill markers;shape-margin:0;shape-padding:0;text-decoration-color:#000000;text-decoration-line:none;text-decoration-style:solid;text-indent:0;text-orientation:mixed;text-transform:none;white-space:normal"/></g><g transform="rotate(-77.743,-39.344,42.007)" stroke-width="3.7613"><path d="m-116.78 34.967c-2.7317 0-4.9316 2.198-4.9316 4.9297v6.9863c0 2.7317 2.2 4.9316 4.9316 4.9316s4.9316-2.2 4.9316-4.9316v-6.9863c0-2.7317-2.2-4.9297-4.9316-4.9297z" color="#000000" color-rendering="auto" dominant-baseline="auto" fill="#f4e3d7" image-rendering="auto" shape-rendering="auto" solid-color="#000000" stop-color="#000000" stroke-width="5.6287" style="font-feature-settings:normal;font-variant-alternates:normal;font-variant-caps:normal;font-variant-east-asian:normal;font-variant-ligatures:normal;font-variant-numeric:normal;font-variant-position:normal;font-variation-settings:normal;inline-size:0;isolation:auto;mix-blend-mode:normal;paint-order:stroke fill markers;shape-margin:0;shape-padding:0;text-decoration-color:#000000;text-decoration-line:none;text-decoration-style:solid;text-indent:0;text-orientation:mixed;text-transform:none;white-space:normal"/></g><g transform="rotate(-48.52,-41.965,77.247)" stroke-width="3.7613"><path d="m-72.047 80.547c-2.7317 0-4.9316 2.2-4.9316 4.9316v6.9863c0 2.7317 2.2 4.9297 4.9316 4.9297s4.9316-2.198 4.9316-4.9297v-6.9863c0-2.7317-2.2-4.9316-4.9316-4.9316z" color="#000000" color-rendering="auto" dominant-baseline="auto" fill="#f4e3d7" image-rendering="auto" shape-rendering="auto" solid-color="#000000" stop-color="#000000" stroke-width="5.6287" style="font-feature-settings:normal;font-variant-alternates:normal;font-variant-caps:normal;font-variant-east-asian:normal;font-variant-ligatures:normal;font-variant-numeric:normal;font-variant-position:normal;font-variation-settings:normal;inline-size:0;isolation:auto;mix-blend-mode:normal;paint-order:stroke fill markers;shape-margin:0;shape-padding:0;text-decoration-color:#000000;text-decoration-line:none;text-decoration-style:solid;text-indent:0;text-orientation:mixed;text-transform:none;white-space:normal"/></g><g transform="rotate(-5.6363,-90.447,729.07)" stroke-width="3.7613"><path d="m18.326 101.36c-2.7317 0-4.9316 2.198-4.9316 4.9297v6.9863c0 2.7317 2.2 4.9316 4.9316 4.9316s4.9316-2.2 4.9316-4.9316v-6.9863c1e-6 -2.7317-2.2-4.9297-4.9316-4.9297z" color="#000000" color-rendering="auto" dominant-baseline="auto" fill="#f4e3d7" image-rendering="auto" shape-rendering="auto" solid-color="#000000" stop-color="#000000" stroke-width="5.6287" style="font-feature-settings:normal;font-variant-alternates:normal;font-variant-caps:normal;font-variant-east-asian:normal;font-variant-ligatures:normal;font-variant-numeric:normal;font-variant-position:normal;font-variation-settings:normal;inline-size:0;isolation:auto;mix-blend-mode:normal;paint-order:stroke fill markers;shape-margin:0;shape-padding:0;text-decoration-color:#000000;text-decoration-line:none;text-decoration-style:solid;text-indent:0;text-orientation:mixed;text-transform:none;white-space:normal"/></g><g transform="rotate(23.642,-23.22,-174.78)" stroke-width="3.7613"><path d="m80.041 80.461c-2.7317 0-4.9316 2.2-4.9316 4.9316v6.9844c0 2.7317 2.2 4.9316 4.9316 4.9316 2.7317 0 4.9316-2.2 4.9316-4.9316v-6.9844c0-2.7317-2.2-4.9316-4.9316-4.9316z" color="#000000" color-rendering="auto" dominant-baseline="auto" fill="#f4e3d7" image-rendering="auto" shape-rendering="auto" solid-color="#000000" stop-color="#000000" stroke-width="5.6287" style="font-feature-settings:normal;font-variant-alternates:normal;font-variant-caps:normal;font-variant-east-asian:normal;font-variant-ligatures:normal;font-variant-numeric:normal;font-variant-position:normal;font-variation-settings:normal;inline-size:0;isolation:auto;mix-blend-mode:normal;paint-order:stroke fill markers;shape-margin:0;shape-padding:0;text-decoration-color:#000000;text-decoration-line:none;text-decoration-style:solid;text-indent:0;text-orientation:mixed;text-transform:none;white-space:normal"/></g></g></g></svg>
