<?xml version="1.0" encoding="UTF-8" standalone="no"?>
<svg
   width="492"
   height="380"
   version="1.1"
   viewBox="0 0 130.17336 100.5404"
   id="svg26327"
   sodipodi:docname="api-webhooks.svg"
   inkscape:version="1.2 (dc2aeda, 2022-05-15)"
   xmlns:inkscape="http://www.inkscape.org/namespaces/inkscape"
   xmlns:sodipodi="http://sodipodi.sourceforge.net/DTD/sodipodi-0.dtd"
   xmlns="http://www.w3.org/2000/svg"
   xmlns:svg="http://www.w3.org/2000/svg">
  <defs
     id="defs26331" />
  <sodipodi:namedview
     id="namedview26329"
     pagecolor="#ffffff"
     bordercolor="#666666"
     borderopacity="1.0"
     inkscape:showpageshadow="2"
     inkscape:pageopacity="0.0"
     inkscape:pagecheckerboard="0"
     inkscape:deskcolor="#d1d1d1"
     showgrid="false"
     inkscape:zoom="0.7106721"
     inkscape:cx="493.1951"
     inkscape:cy="353.18679"
     inkscape:window-width="1470"
     inkscape:window-height="802"
     inkscape:window-x="0"
     inkscape:window-y="38"
     inkscape:window-maximized="0"
     inkscape:current-layer="svg26327" />
  <g
     id="g27728"
     transform="translate(-1.0608401,-15.875617)">
    <g
       transform="matrix(0.42137353,0,0,0.42137353,96.658715,13.054433)"
       stroke-width="2.3732"
       id="g26267">
      <g
         transform="translate(-72.041,-5.3583)"
         stroke-width="2.3732"
         id="g26241">
        <path
           d="m 23.885,123.7 c -0.67082,5.6017 1.4782,9.5326 4.0898,14.012 2.6116,4.4792 6.2116,9.1193 10.512,13.477 8.6003,8.7146 19.885,16.867 32.902,16.42 L 70.89271,153.15 c -5.8139,0.19965 -15.108,-4.5015 -22.107,-11.594 -3.4997,-3.5462 -6.4545,-7.9442 -8.3125,-11.131 -1.858,-3.1868 -2.094,-6.0784 -2.2227,-5.0039 z"
           color="#000000"
           color-rendering="auto"
           dominant-baseline="auto"
           fill="#4d4d4d"
           image-rendering="auto"
           shape-rendering="auto"
           solid-color="#000000"
           stop-color="#000000"
           stroke-width="2.3167"
           style="font-variant-ligatures:normal;font-variant-position:normal;font-variant-caps:normal;font-variant-numeric:normal;font-variant-alternates:normal;font-variant-east-asian:normal;font-feature-settings:normal;font-variation-settings:normal;text-indent:0;text-decoration-line:none;text-decoration-style:solid;text-decoration-color:#000000;text-transform:none;text-orientation:mixed;white-space:normal;shape-padding:0;shape-margin:0;inline-size:0;isolation:auto;mix-blend-mode:normal"
           id="path26239" />
      </g>
      <g
         fill="#f4e3d7"
         id="g26265">
        <g
           transform="rotate(-15.682,-55.475,258.88)"
           shape-rendering="auto"
           stroke-width="2.3167"
           id="g26247">
          <path
             d="m -5.1836,113.52 c -6.6161,-6.7e-4 -11.983,4.7786 -11.984,10.676 -0.0015,5.8972 5.3624,10.678 11.979,10.68 6.6161,0.002 11.983,-4.7747 11.986,-10.672 3.783e-4,-0.002 3.783e-4,-0.004 0,-0.006 -2.454e-4,-0.002 -9.083e-4,-0.004 -0.00195,-0.006 -0.00386,-5.8942 -5.3648,-10.671 -11.979,-10.672 z"
             color="#000000"
             color-rendering="auto"
             dominant-baseline="auto"
             image-rendering="auto"
             solid-color="#000000"
             stop-color="#000000"
             style="font-variant-ligatures:normal;font-variant-position:normal;font-variant-caps:normal;font-variant-numeric:normal;font-variant-alternates:normal;font-variant-east-asian:normal;font-feature-settings:normal;font-variation-settings:normal;text-indent:0;text-decoration-line:none;text-decoration-style:solid;text-decoration-color:#000000;text-transform:none;text-orientation:mixed;white-space:normal;shape-padding:0;shape-margin:0;inline-size:0;isolation:auto;mix-blend-mode:normal;paint-order:stroke fill markers"
             id="path26243" />
          <path
             d="m 6.7817,124.2 c -0.00304,5.8875 5.7e-6,-5.8924 1.3e-6,-0.005 z"
             color="#000000"
             color-rendering="auto"
             dominant-baseline="auto"
             image-rendering="auto"
             solid-color="#000000"
             stop-color="#000000"
             style="font-variant-ligatures:normal;font-variant-position:normal;font-variant-caps:normal;font-variant-numeric:normal;font-variant-alternates:normal;font-variant-east-asian:normal;font-feature-settings:normal;font-variation-settings:normal;text-indent:0;text-decoration-line:none;text-decoration-style:solid;text-decoration-color:#000000;text-transform:none;text-orientation:mixed;white-space:normal;shape-padding:0;shape-margin:0;inline-size:0;isolation:auto;mix-blend-mode:normal;paint-order:stroke fill markers"
             id="path26245" />
        </g>
        <g
           transform="rotate(-77.743,-39.344,42.007)"
           stroke-width="2.3732"
           id="g26251">
          <path
             d="m -116.78,34.967 c -2.7317,0 -4.9316,2.198 -4.9316,4.9297 v 6.9863 c 0,2.7317 2.2,4.9316 4.9316,4.9316 2.7316,0 4.9316,-2.2 4.9316,-4.9316 v -6.9863 c 0,-2.7317 -2.2,-4.9297 -4.9316,-4.9297 z"
             color="#000000"
             color-rendering="auto"
             dominant-baseline="auto"
             fill="#f4e3d7"
             image-rendering="auto"
             shape-rendering="auto"
             solid-color="#000000"
             stop-color="#000000"
             stroke-width="2.3167"
             style="font-variant-ligatures:normal;font-variant-position:normal;font-variant-caps:normal;font-variant-numeric:normal;font-variant-alternates:normal;font-variant-east-asian:normal;font-feature-settings:normal;font-variation-settings:normal;text-indent:0;text-decoration-line:none;text-decoration-style:solid;text-decoration-color:#000000;text-transform:none;text-orientation:mixed;white-space:normal;shape-padding:0;shape-margin:0;inline-size:0;isolation:auto;mix-blend-mode:normal;paint-order:stroke fill markers"
             id="path26249" />
        </g>
        <g
           transform="rotate(-48.52,-41.965,77.247)"
           stroke-width="2.3732"
           id="g26255">
          <path
             d="m -72.047,80.547 c -2.7317,0 -4.9316,2.2 -4.9316,4.9316 v 6.9863 c 0,2.7317 2.2,4.9297 4.9316,4.9297 2.7316,0 4.9316,-2.198 4.9316,-4.9297 v -6.9863 c 0,-2.7317 -2.2,-4.9316 -4.9316,-4.9316 z"
             color="#000000"
             color-rendering="auto"
             dominant-baseline="auto"
             fill="#f4e3d7"
             image-rendering="auto"
             shape-rendering="auto"
             solid-color="#000000"
             stop-color="#000000"
             stroke-width="2.3167"
             style="font-variant-ligatures:normal;font-variant-position:normal;font-variant-caps:normal;font-variant-numeric:normal;font-variant-alternates:normal;font-variant-east-asian:normal;font-feature-settings:normal;font-variation-settings:normal;text-indent:0;text-decoration-line:none;text-decoration-style:solid;text-decoration-color:#000000;text-transform:none;text-orientation:mixed;white-space:normal;shape-padding:0;shape-margin:0;inline-size:0;isolation:auto;mix-blend-mode:normal;paint-order:stroke fill markers"
             id="path26253" />
        </g>
        <g
           transform="rotate(-5.6363,-90.447,729.07)"
           stroke-width="2.3732"
           id="g26259">
          <path
             d="m 18.326,101.36 c -2.7317,0 -4.9316,2.198 -4.9316,4.9297 v 6.9863 c 0,2.7317 2.2,4.9316 4.9316,4.9316 2.7316,0 4.9316,-2.2 4.9316,-4.9316 v -6.9863 c 1e-6,-2.7317 -2.2,-4.9297 -4.9316,-4.9297 z"
             color="#000000"
             color-rendering="auto"
             dominant-baseline="auto"
             fill="#f4e3d7"
             image-rendering="auto"
             shape-rendering="auto"
             solid-color="#000000"
             stop-color="#000000"
             stroke-width="2.3167"
             style="font-variant-ligatures:normal;font-variant-position:normal;font-variant-caps:normal;font-variant-numeric:normal;font-variant-alternates:normal;font-variant-east-asian:normal;font-feature-settings:normal;font-variation-settings:normal;text-indent:0;text-decoration-line:none;text-decoration-style:solid;text-decoration-color:#000000;text-transform:none;text-orientation:mixed;white-space:normal;shape-padding:0;shape-margin:0;inline-size:0;isolation:auto;mix-blend-mode:normal;paint-order:stroke fill markers"
             id="path26257" />
        </g>
        <g
           transform="rotate(23.642,-23.22,-174.78)"
           stroke-width="2.3732"
           id="g26263">
          <path
             d="m 80.041,80.461 c -2.7317,0 -4.9316,2.2 -4.9316,4.9316 v 6.9844 c 0,2.7317 2.2,4.9316 4.9316,4.9316 2.7317,0 4.9316,-2.2 4.9316,-4.9316 v -6.9844 c 0,-2.7317 -2.2,-4.9316 -4.9316,-4.9316 z"
             color="#000000"
             color-rendering="auto"
             dominant-baseline="auto"
             fill="#f4e3d7"
             image-rendering="auto"
             shape-rendering="auto"
             solid-color="#000000"
             stop-color="#000000"
             stroke-width="2.3167"
             style="font-variant-ligatures:normal;font-variant-position:normal;font-variant-caps:normal;font-variant-numeric:normal;font-variant-alternates:normal;font-variant-east-asian:normal;font-feature-settings:normal;font-variation-settings:normal;text-indent:0;text-decoration-line:none;text-decoration-style:solid;text-decoration-color:#000000;text-transform:none;text-orientation:mixed;white-space:normal;shape-padding:0;shape-margin:0;inline-size:0;isolation:auto;mix-blend-mode:normal;paint-order:stroke fill markers"
             id="path26261" />
        </g>
      </g>
    </g>
    <path
       d="m 31.37791,99.376379 c -0.736551,-0.449101 -1.01914,-0.974425 -1.167446,-2.170414 -0.07204,-0.580927 -0.155211,-1.077846 -0.184824,-1.104217 -0.04648,-0.04152 -0.650075,-0.298423 -2.552113,-1.086425 -0.366014,-0.151642 -0.490607,-0.117242 -0.937452,0.258749 -0.906854,0.763071 -1.472678,0.968409 -2.531672,0.918843 -0.566905,-0.02648 -2.853004,-2.31138 -3.083994,-3.082405 -0.243444,-0.812573 0.0021,-1.612056 0.771343,-2.510596 0.560994,-0.655382 0.580196,-0.714808 0.384686,-1.190534 -0.113175,-0.275419 -0.369181,-0.931437 -0.568895,-1.457746 l -0.363124,-0.957002 -1.160455,-0.194303 c -1.961454,-0.328406 -2.492698,-1.178884 -2.348131,-3.759381 0.06695,-1.195724 0.13888,-1.475433 0.501759,-1.95118 0.426404,-0.559036 0.861599,-0.747714 2.317205,-1.004673 0.669563,-0.118206 0.71753,-0.163546 0.975495,-0.922561 0.149227,-0.439007 0.427135,-1.103688 0.617582,-1.476915 l 0.346262,-0.678724 -0.657097,-0.931722 c -0.789125,-1.118939 -0.902247,-2.065139 -0.34102,-2.853321 0.635068,-0.891847 2.371961,-2.388801 2.892402,-2.49291 0.644876,-0.128967 1.575835,0.191443 2.359357,0.812044 l 0.612266,0.48494 1.018791,-0.462477 c 0.560348,-0.254364 1.294855,-0.545193 1.632391,-0.646294 0.651727,-0.195256 0.694547,-0.267931 0.855403,-1.451921 0.124624,-0.917371 0.673111,-1.623812 1.463041,-1.884562 0.874721,-0.288679 3.538135,-0.134591 4.098717,0.237132 0.592185,0.392704 0.917657,1.05695 1.02434,2.090134 0.08633,0.836382 0.09637,0.850087 0.825039,1.123388 0.40572,0.152161 1.147217,0.480895 1.647748,0.730524 0.50052,0.24962 0.949801,0.389537 0.99835,0.310931 0.04858,-0.07861 0.423957,-0.365241 0.834189,-0.636953 1.351094,-0.894982 2.343471,-0.612859 3.950761,1.123175 1.4211,1.534954 1.517373,2.463255 0.39962,3.854171 -0.55445,0.68994 -0.552003,0.785757 0.05807,2.274417 0.215982,0.52703 0.434379,1.08007 0.485322,1.228874 0.0555,0.162169 0.336084,0.310539 0.699927,0.370113 0.334009,0.0547 0.809153,0.137154 1.055944,0.183277 0.246749,0.04612 0.688468,0.323704 0.981638,0.616873 0.6369,0.636901 0.818123,1.56715 0.651611,3.344214 -0.08905,0.950331 -0.191909,1.260117 -0.571151,1.720191 -0.474498,0.575652 -1.362956,0.921025 -2.369207,0.921025 -0.356038,0 -0.50553,0.09139 -0.587726,0.359331 -0.06062,0.197639 -0.36377,0.918134 -0.673641,1.601147 l -0.56342,1.241689 0.326711,0.355318 c 0.955467,1.039168 1.244654,2.212036 0.771046,3.127946 -0.362805,0.701569 -2.39992,2.533049 -2.952453,2.654422 -0.71198,0.156387 -1.369628,-0.03357 -2.135887,-0.616989 -0.369922,-0.281615 -0.752438,-0.560857 -0.850087,-0.620538 -0.09763,-0.05973 -0.780376,0.139802 -1.517266,0.443297 -0.73689,0.303496 -1.428197,0.553126 -1.536331,0.554725 -0.199629,0.0032 -0.278659,0.249958 -0.421161,1.316356 -0.1163,0.87022 -0.430133,1.422371 -1.042833,1.83489 -0.480746,0.323619 -0.735841,0.365231 -2.235866,0.364701 -1.396529,-5.93e-4 -1.782677,-0.05507 -2.203563,-0.311788 z m 4.662687,-10.616418 c 1.603054,-0.667435 2.773042,-1.955946 3.29306,-3.626677 0.654323,-2.102313 0.142438,-4.144999 -1.433068,-5.718928 -1.7562,-1.754399 -4.463153,-2.202292 -6.630072,-1.09691 -0.964745,0.492185 -2.0716,1.621377 -2.587805,2.640231 -0.419774,0.82847 -0.467783,1.079117 -0.467783,2.442814 0,1.395046 0.04304,1.607184 0.524911,2.586852 1.330018,2.703988 4.538667,3.922482 7.300482,2.772512 z m 26.32499,-5.374509 C 61.567365,83.149823 61.090748,82.440025 60.792612,81.043358 60.647218,80.362092 60.495704,79.685486 60.455913,79.539648 60.410372,79.372861 60.07505,79.202155 59.551304,79.079172 59.093551,78.971684 58.270852,78.70639 57.72298,78.489635 l -0.995988,-0.394112 -1.055235,0.966926 c -1.911146,1.751222 -2.561539,1.719873 -4.900773,-0.236105 -2.759909,-2.307779 -2.872173,-2.766263 -1.27145,-5.193721 l 0.699991,-1.061535 -0.429878,-0.68097 c -0.236433,-0.37453 -0.634295,-1.136626 -0.884168,-1.693395 L 48.43121,69.184255 h -1.281088 c -1.605384,0 -2.432223,-0.305963 -2.908288,-1.076363 -0.28493,-0.461026 -0.378682,-0.965031 -0.509491,-2.738939 -0.08817,-1.195618 -0.10841,-2.380751 -0.04497,-2.633452 0.202976,-0.808739 0.864373,-1.296338 2.176026,-1.604324 0.658348,-0.154566 1.31625,-0.313123 1.461982,-0.352363 0.166999,-0.04496 0.337514,-0.379211 0.460995,-0.903667 0.107774,-0.457753 0.372284,-1.325993 0.587789,-1.929574 l 0.391836,-1.097227 -0.629159,-0.659523 c -1.149017,-1.204409 -1.47575,-1.75387 -1.47575,-2.481789 0,-0.859237 0.118238,-1.072657 1.54671,-2.790729 1.485917,-1.787231 1.822711,-2.048935 2.742539,-2.13165 0.748488,-0.06727 0.927825,0.01049 2.84093,1.231839 0.309025,0.197279 0.450446,0.156344 1.437411,-0.416025 0.602045,-0.349154 1.462617,-0.800934 1.912523,-1.003963 l 0.817953,-0.36916 0.111936,-1.379584 c 0.149651,-1.844317 0.554503,-2.486343 1.765732,-2.800049 0.175683,-0.04549 1.199113,-0.161491 2.274311,-0.257763 1.827266,-0.16361 2.002229,-0.154057 2.681324,0.146314 0.813696,0.359936 1.236711,1.079329 1.436563,2.442709 0.146421,0.999239 0.30554,1.159926 1.433492,1.447366 0.527029,0.134347 1.401507,0.411322 1.943237,0.615517 l 0.985005,0.371214 0.882569,-0.834666 c 1.29422,-1.224108 2.008054,-1.417499 3.102845,-0.840989 0.778725,0.410094 3.406172,2.705259 3.6719,3.207591 0.370367,0.699863 0.154396,1.784477 -0.57973,2.911254 -0.364691,0.559755 -0.663071,1.076575 -0.663071,1.148594 0,0.072 0.213811,0.478384 0.475123,0.903073 0.261312,0.424689 0.649896,1.187251 0.863431,1.69456 l 0.38833,0.922444 1.459228,0.0938 c 2.381598,0.153093 2.751118,0.629158 3.048725,3.928096 0.176446,1.956052 0.168799,2.147961 -0.107816,2.704729 -0.419923,0.845183 -0.976554,1.190958 -2.406381,1.494708 l -1.245184,0.264479 -0.340628,1.187463 c -0.187344,0.653083 -0.456843,1.465582 -0.598921,1.805553 -0.142057,0.339982 -0.258283,0.717826 -0.258283,0.83957 0,0.121744 0.397904,0.65427 0.884222,1.183227 1.243701,1.352788 1.455839,2.054548 0.928947,3.073402 -0.446199,0.862849 -2.876304,3.566413 -3.400982,3.78374 -0.774414,0.32077 -1.622647,0.112117 -2.897909,-0.712806 l -1.16088,-0.750965 -0.570495,0.343911 c -0.313769,0.189155 -1.163421,0.623905 -1.888057,0.9661 l -1.317521,0.62219 -3.07e-4,1.324934 c -5.91e-4,2.21712 -0.584019,2.935084 -2.5698,3.161308 -2.208224,0.251599 -3.41761,0.296982 -3.924813,0.147267 z m 4.182386,-13.573426 c 4.413058,-2.075306 5.441338,-7.895379 2.003711,-11.340843 -1.253445,-1.256304 -2.687254,-1.916759 -4.392087,-2.023092 -2.380751,-0.148529 -3.916658,0.414732 -5.528185,2.027329 -1.482104,1.483163 -1.933069,2.496722 -2.028812,4.560167 -0.06264,1.348975 -0.02019,1.756305 0.273206,2.621908 0.595436,1.756729 1.885092,3.257262 3.505091,4.078064 1.186934,0.601452 1.835103,0.722253 3.531993,0.65822 1.316885,-0.04973 1.669777,-0.1276 2.635146,-0.581573 z M 22.306189,67.042162 c -1.079647,-0.479857 -1.357343,-1.13938 -1.60083,-3.802805 -0.06203,-0.678364 -0.194355,-1.294855 -0.294059,-1.369945 -0.0997,-0.07508 -0.540618,-0.264034 -0.979805,-0.41987 -0.439188,-0.155836 -1.361262,-0.54156 -2.048935,-0.857172 -0.856876,-0.393223 -1.316673,-0.52632 -1.460923,-0.422909 -0.115802,0.083 -0.837557,0.629158 -1.603901,1.213622 -2.288821,1.745715 -2.712778,1.665435 -5.4664385,-1.03438 C 6.636084,58.176701 6.2122321,57.59822 6.2122321,56.747021 c 0,-0.756102 0.2557303,-1.233004 1.5403551,-2.872279 L 8.7987873,52.539641 8.3781764,51.718679 C 8.1468477,51.267143 7.7313522,50.32268 7.4548424,49.620073 L 6.9520876,48.34248 5.4285723,48.164806 C 3.1301135,47.896779 2.8338832,47.816828 2.3812238,47.342309 1.7059841,46.63447 1.6244122,46.181112 1.6244122,43.136517 c 0,-4.399608 0.1344104,-4.583255 3.6591905,-4.997999 L 6.7867833,37.961627 7.2179005,36.684035 C 7.4550119,35.981333 7.8660274,34.930165 8.1313108,34.34819 L 8.6135931,33.289937 7.6663341,32.112324 C 6.5785325,30.759853 6.3029546,30.296179 6.2548715,29.736868 6.1531026,28.551841 6.1896204,28.492744 8.4308984,26.215573 c 1.1961475,-1.215424 2.4108296,-2.321759 2.6992226,-2.458489 1.05713,-0.501653 1.680368,-0.292386 3.546926,1.190958 l 1.154419,0.917424 1.341244,-0.673111 c 0.737674,-0.370219 1.848129,-0.836085 2.467597,-1.035334 1.259905,-0.405106 1.158232,-0.225069 1.403096,-2.48539 0.139017,-1.283205 0.402002,-1.87143 1.061535,-2.374502 l 0.551061,-0.420314 h 3.275267 c 3.147645,0 3.296342,0.01423 3.817843,0.365304 0.73886,0.497364 0.955234,1.022869 1.194135,2.900558 0.112339,0.882812 0.209353,1.617245 0.21558,1.632073 0.0061,0.01476 0.496432,0.185268 1.089285,0.378829 0.592894,0.193561 1.671895,0.638616 2.397696,0.989083 l 1.319745,0.637133 0.88098,-0.696559 c 2.113011,-1.670624 2.622438,-1.838174 3.822292,-1.257364 0.843351,0.408241 4.310431,3.910939 4.631233,4.678786 0.48296,1.155902 0.353707,1.527858 -1.229404,3.538771 l -0.872942,1.108772 0.600277,1.286807 c 0.330143,0.707722 0.724679,1.682062 0.87667,2.165224 0.152044,0.483119 0.329179,0.937917 0.393646,1.010699 0.06446,0.07277 0.882104,0.232769 1.816992,0.35555 1.927562,0.253157 2.159399,0.345637 2.724535,1.086531 0.404936,0.530906 0.405752,0.538775 0.405752,3.905113 v 3.373128 l -0.493933,0.562562 c -0.560581,0.638489 -1.042895,0.802353 -3.097126,1.052523 -0.789241,0.0961 -1.441753,0.187757 -1.450014,0.203707 -0.0083,0.01594 -0.180375,0.53205 -0.382483,1.1469 -0.202097,0.614871 -0.609671,1.601253 -0.905668,2.192019 -0.295997,0.590766 -0.538182,1.137897 -0.538182,1.216059 0,0.0781 0.423005,0.67848 0.939994,1.334148 2.127944,2.698799 2.070434,2.990581 -1.228768,6.232486 -2.87641,2.826632 -3.237033,2.894626 -5.578915,1.052226 -0.681616,-0.536222 -1.318792,-1.036329 -1.415911,-1.111313 -0.106789,-0.08245 -0.706483,0.109955 -1.517267,0.486762 -0.737324,0.342725 -1.771874,0.754217 -2.298882,0.914416 -0.527029,0.16021 -1.003667,0.355678 -1.059206,0.434401 -0.05556,0.07872 -0.147829,0.655625 -0.205052,1.28204 -0.340162,3.723584 -0.616111,3.937099 -5.078914,3.927461 -2.075307,-0.0048 -3.058363,-0.06784 -3.398864,-0.219202 z m 5.808316,-15.817659 c 2.972682,-0.79119 5.298889,-3.079862 6.181119,-6.081352 0.393149,-1.337749 0.358622,-3.510281 -0.07772,-4.890182 -0.877497,-2.77516 -3.427248,-5.131763 -6.280358,-5.804504 -4.907233,-1.156961 -9.749545,2.147431 -10.53349,7.187688 -0.639443,4.113121 2.112375,8.353122 6.179954,9.522157 1.187569,0.341252 3.376834,0.373184 4.530724,0.06609 z"
       fill="#333333"
       stroke-width="1.00002"
       id="path26269" />
    <path
       d="m 111.55284,45.196106 -4.36095,-0.04431 C 96.492863,45.043093 87.791298,53.568996 87.68327,64.268554 L 87.382612,93.860867 C 87.273906,104.5599 95.79981,113.26146 106.49937,113.36949 l 4.36095,0.0443 c 10.69903,0.10871 19.40059,-8.4173 19.50862,-19.116753 L 130.6696,64.704734 C 130.7783,54.005706 122.2524,45.30414 111.55284,45.196112 Z"
       color="#000000"
       color-rendering="auto"
       dominant-baseline="auto"
       fill="#f4e3d7"
       fill-rule="evenodd"
       image-rendering="auto"
       solid-color="#000000"
       stop-color="#000000"
       style="font-variant-ligatures:normal;font-variant-position:normal;font-variant-caps:normal;font-variant-numeric:normal;font-variant-alternates:normal;font-variant-east-asian:normal;font-feature-settings:normal;font-variation-settings:normal;text-indent:0;text-decoration-line:none;text-decoration-style:solid;text-decoration-color:#000000;text-transform:none;text-orientation:mixed;white-space:normal;shape-padding:0;shape-margin:0;inline-size:0;isolation:auto;mix-blend-mode:normal;stroke-width:0.952968;shape-rendering:auto"
       id="path26271" />
    <path
       d="m 115.04046,55.725573 c 1.0932,0 2.10358,0.262053 2.93561,0.785958 0.83209,0.523915 1.56122,1.424172 1.56122,2.563657 a 1.4010834,1.4010834 0 0 1 -1.40076,1.401613 1.4010834,1.4010834 0 0 1 -1.40162,-1.401613 c 0,0.06306 0.0365,-0.01108 -0.25183,-0.192586 -0.28828,-0.181509 -0.82627,-0.354714 -1.44271,-0.354714 -0.61644,0 -1.15357,0.173205 -1.44186,0.354714 -0.28827,0.181508 -0.25265,0.255645 -0.25265,0.192586 a 1.4010834,1.4010834 0 0 1 -1.40077,1.401613 1.4010834,1.4010834 0 0 1 -1.40077,-1.401613 c 0,-1.139485 0.72913,-2.03972 1.56122,-2.563657 0.8321,-0.523916 1.84167,-0.785958 2.93477,-0.785958 z"
       color="#000000"
       color-rendering="auto"
       dominant-baseline="auto"
       fill="#4d4d4d"
       image-rendering="auto"
       solid-color="#000000"
       stop-color="#000000"
       style="font-variant-ligatures:normal;font-variant-position:normal;font-variant-caps:normal;font-variant-numeric:normal;font-variant-alternates:normal;font-variant-east-asian:normal;font-feature-settings:normal;font-variation-settings:normal;text-indent:0;text-decoration-line:none;text-decoration-style:solid;text-decoration-color:#000000;text-transform:none;text-orientation:mixed;white-space:normal;shape-padding:0;shape-margin:0;inline-size:0;isolation:auto;mix-blend-mode:normal;stroke-width:0.952968;paint-order:stroke fill markers;shape-rendering:auto"
       id="path26273" />
    <path
       d="m 103.08004,55.725573 c 1.0932,0 2.10359,0.262053 2.93562,0.785958 0.83209,0.523915 1.56121,1.424172 1.56121,2.563657 a 1.4010834,1.4010834 0 0 1 -1.40161,1.401613 1.4010834,1.4010834 0 0 1 -1.40076,-1.401613 c 0,0.06306 0.0356,-0.01108 -0.25266,-0.192586 -0.28829,-0.181509 -0.82545,-0.354714 -1.44186,-0.354714 -0.61645,0 -1.15442,0.173205 -1.44271,0.354714 -0.28827,0.181508 -0.25183,0.255645 -0.25183,0.192586 a 1.4010834,1.4010834 0 0 1 -1.400766,1.401613 1.4010834,1.4010834 0 0 1 -1.401613,-1.401613 c 0,-1.139485 0.729127,-2.03972 1.561219,-2.563657 0.83209,-0.523916 1.84241,-0.785958 2.93561,-0.785958 z"
       color="#000000"
       color-rendering="auto"
       dominant-baseline="auto"
       fill="#4d4d4d"
       image-rendering="auto"
       solid-color="#000000"
       stop-color="#000000"
       style="font-variant-ligatures:normal;font-variant-position:normal;font-variant-caps:normal;font-variant-numeric:normal;font-variant-alternates:normal;font-variant-east-asian:normal;font-feature-settings:normal;font-variation-settings:normal;text-indent:0;text-decoration-line:none;text-decoration-style:solid;text-decoration-color:#000000;text-transform:none;text-orientation:mixed;white-space:normal;shape-padding:0;shape-margin:0;inline-size:0;isolation:auto;mix-blend-mode:normal;stroke-width:0.952968;paint-order:stroke fill markers;shape-rendering:auto"
       id="path26275" />
    <path
       d="m 87.532454,79.0639 -0.150329,14.795627 c -0.108706,10.699033 8.417197,19.400593 19.116755,19.508623 l 4.36095,0.0443 c 10.69903,0.10871 19.40059,-8.4172 19.50862,-19.116753 L 130.51878,79.50008 87.53203,79.063328"
       color="#000000"
       color-rendering="auto"
       dominant-baseline="auto"
       fill="#ffd969"
       fill-rule="evenodd"
       image-rendering="auto"
       solid-color="#000000"
       stop-color="#000000"
       style="font-variant-ligatures:normal;font-variant-position:normal;font-variant-caps:normal;font-variant-numeric:normal;font-variant-alternates:normal;font-variant-east-asian:normal;font-feature-settings:normal;font-variation-settings:normal;text-indent:0;text-decoration-line:none;text-decoration-style:solid;text-decoration-color:#000000;text-transform:none;text-orientation:mixed;white-space:normal;shape-padding:0;shape-margin:0;inline-size:0;isolation:auto;mix-blend-mode:normal;fill:#73a9ad;fill-opacity:1;stroke-width:0.952968;shape-rendering:auto"
       id="path26277" />
    <path
       d="m 130.50628,80.933212 -0.0134,1.939106 -42.986747,-0.640766 0.01344,-1.939106 z"
       color="#000000"
       color-rendering="auto"
       dominant-baseline="auto"
       fill="#d4aa00"
       fill-rule="evenodd"
       image-rendering="auto"
       solid-color="#000000"
       stop-color="#000000"
       style="font-variant-ligatures:normal;font-variant-position:normal;font-variant-caps:normal;font-variant-numeric:normal;font-variant-alternates:normal;font-variant-east-asian:normal;font-feature-settings:normal;font-variation-settings:normal;text-indent:0;text-decoration-line:none;text-decoration-style:solid;text-decoration-color:#000000;text-transform:none;text-orientation:mixed;white-space:normal;shape-padding:0;shape-margin:0;inline-size:0;isolation:auto;mix-blend-mode:normal;fill:#5a8387;fill-opacity:1;stroke-width:0.952968;shape-rendering:auto"
       id="path26279" />
    <path
       d="m 102.28572,82.60659 a 6.7189304,6.7189304 0 0 0 6.6504,6.786924 6.7189304,6.7189304 0 0 0 6.78693,-6.650406 6.7189304,6.7189304 0 0 0 -6.65041,-6.786925 6.7189304,6.7189304 0 0 0 -6.78692,6.650407 z"
       fill="#d4aa00"
       style="fill:#5a8387;fill-opacity:1;fill-rule:evenodd;stroke-width:0.952968;paint-order:stroke fill markers"
       id="path26283" />
    <path
       d="m 104.18468,82.625654 a 4.8197523,4.8197523 0 0 0 4.77051,4.86847 4.8197523,4.8197523 0 0 0 4.86847,-4.770504 4.8197523,4.8197523 0 0 0 -4.77051,-4.868471 4.8197523,4.8197523 0 0 0 -4.86847,4.770505 z"
       fill="#ffdd55"
       style="fill:#7bb0ad;fill-opacity:1;fill-rule:evenodd;stroke-width:0.952968;paint-order:stroke fill markers"
       id="path26285" />
    <path
       d="m 106.21392,82.646836 a 2.7905167,2.7905167 0 0 0 2.76203,2.818794 2.7905167,2.7905167 0 0 0 2.81879,-2.762027 2.7905167,2.7905167 0 0 0 -2.76203,-2.818794 2.7905167,2.7905167 0 0 0 -2.81879,2.762027 z"
       fill="#fff6d5"
       style="fill:#fdffff;fill-opacity:1;fill-rule:evenodd;stroke-width:0.952968;paint-order:stroke fill markers"
       id="path26287" />
    <path
       d="m 112.25291,67.620325 a 1.4822104,1.4822104 0 0 1 1.48221,1.48221 c 0,1.250268 -0.86245,2.159929 -1.77029,2.670627 -0.90784,0.510698 -1.9946,0.76127 -3.17677,0.76127 -1.18217,0 -2.26891,-0.250615 -3.17677,-0.76127 -0.90782,-0.510656 -1.77028,-1.420359 -1.77028,-2.670627 a 1.4822104,1.4822104 0 0 1 1.48221,-1.48221 1.4822104,1.4822104 0 0 1 1.48221,1.479774 c -0.002,-0.165421 -0.0825,-0.103336 0.25924,0.08889 0.34624,0.194768 0.99185,0.381053 1.72337,0.381053 0.73152,0 1.37715,-0.186285 1.72337,-0.381053 0.34624,-0.194769 0.25924,-0.260242 0.25924,-0.08641 a 1.4822104,1.4822104 0 0 1 1.48221,-1.482211 z"
       color="#000000"
       color-rendering="auto"
       dominant-baseline="auto"
       fill="#4d4d4d"
       image-rendering="auto"
       shape-rendering="auto"
       solid-color="#000000"
       stop-color="#000000"
       stroke-width="0.976204"
       style="font-variant-ligatures:normal;font-variant-position:normal;font-variant-caps:normal;font-variant-numeric:normal;font-variant-alternates:normal;font-variant-east-asian:normal;font-feature-settings:normal;font-variation-settings:normal;text-indent:0;text-decoration-line:none;text-decoration-style:solid;text-decoration-color:#000000;text-transform:none;text-orientation:mixed;white-space:normal;shape-padding:0;shape-margin:0;inline-size:0;isolation:auto;mix-blend-mode:normal;paint-order:stroke fill markers"
       id="path26291" />
    <g
       transform="matrix(0.40232032,-0.12528094,0.12528094,0.40232032,76.008384,17.196574)"
       stroke-width="2.3732"
       id="g26323">
      <g
         transform="translate(-72.041,-5.3583)"
         stroke-width="2.3732"
         id="g26297">
        <path
           d="m 23.885,123.7 c -0.67082,5.6017 1.4782,9.5326 4.0898,14.012 2.6116,4.4792 6.2116,9.1193 10.512,13.477 8.6003,8.7146 19.885,16.867 32.902,16.42 L 70.89271,153.15 c -5.8139,0.19965 -15.108,-4.5015 -22.107,-11.594 -3.4997,-3.5462 -6.4545,-7.9442 -8.3125,-11.131 -1.858,-3.1868 -2.094,-6.0784 -2.2227,-5.0039 z"
           color="#000000"
           color-rendering="auto"
           dominant-baseline="auto"
           fill="#4d4d4d"
           image-rendering="auto"
           shape-rendering="auto"
           solid-color="#000000"
           stop-color="#000000"
           stroke-width="2.3167"
           style="font-variant-ligatures:normal;font-variant-position:normal;font-variant-caps:normal;font-variant-numeric:normal;font-variant-alternates:normal;font-variant-east-asian:normal;font-feature-settings:normal;font-variation-settings:normal;text-indent:0;text-decoration-line:none;text-decoration-style:solid;text-decoration-color:#000000;text-transform:none;text-orientation:mixed;white-space:normal;shape-padding:0;shape-margin:0;inline-size:0;isolation:auto;mix-blend-mode:normal"
           id="path26295" />
      </g>
      <g
         fill="#f4e3d7"
         id="g26321">
        <g
           transform="rotate(-15.682,-55.475,258.88)"
           shape-rendering="auto"
           stroke-width="2.3167"
           id="g26303">
          <path
             d="m -5.1836,113.52 c -6.6161,-6.7e-4 -11.983,4.7786 -11.984,10.676 -0.0015,5.8972 5.3624,10.678 11.979,10.68 6.6161,0.002 11.983,-4.7747 11.986,-10.672 3.783e-4,-0.002 3.783e-4,-0.004 0,-0.006 -2.454e-4,-0.002 -9.083e-4,-0.004 -0.00195,-0.006 -0.00386,-5.8942 -5.3648,-10.671 -11.979,-10.672 z"
             color="#000000"
             color-rendering="auto"
             dominant-baseline="auto"
             image-rendering="auto"
             solid-color="#000000"
             stop-color="#000000"
             style="font-variant-ligatures:normal;font-variant-position:normal;font-variant-caps:normal;font-variant-numeric:normal;font-variant-alternates:normal;font-variant-east-asian:normal;font-feature-settings:normal;font-variation-settings:normal;text-indent:0;text-decoration-line:none;text-decoration-style:solid;text-decoration-color:#000000;text-transform:none;text-orientation:mixed;white-space:normal;shape-padding:0;shape-margin:0;inline-size:0;isolation:auto;mix-blend-mode:normal;paint-order:stroke fill markers"
             id="path26299" />
          <path
             d="m 6.7817,124.2 c -0.00304,5.8875 5.7e-6,-5.8924 1.3e-6,-0.005 z"
             color="#000000"
             color-rendering="auto"
             dominant-baseline="auto"
             image-rendering="auto"
             solid-color="#000000"
             stop-color="#000000"
             style="font-variant-ligatures:normal;font-variant-position:normal;font-variant-caps:normal;font-variant-numeric:normal;font-variant-alternates:normal;font-variant-east-asian:normal;font-feature-settings:normal;font-variation-settings:normal;text-indent:0;text-decoration-line:none;text-decoration-style:solid;text-decoration-color:#000000;text-transform:none;text-orientation:mixed;white-space:normal;shape-padding:0;shape-margin:0;inline-size:0;isolation:auto;mix-blend-mode:normal;paint-order:stroke fill markers"
             id="path26301" />
        </g>
        <g
           transform="rotate(-77.743,-39.344,42.007)"
           stroke-width="2.3732"
           id="g26307">
          <path
             d="m -116.78,34.967 c -2.7317,0 -4.9316,2.198 -4.9316,4.9297 v 6.9863 c 0,2.7317 2.2,4.9316 4.9316,4.9316 2.7316,0 4.9316,-2.2 4.9316,-4.9316 v -6.9863 c 0,-2.7317 -2.2,-4.9297 -4.9316,-4.9297 z"
             color="#000000"
             color-rendering="auto"
             dominant-baseline="auto"
             fill="#f4e3d7"
             image-rendering="auto"
             shape-rendering="auto"
             solid-color="#000000"
             stop-color="#000000"
             stroke-width="2.3167"
             style="font-variant-ligatures:normal;font-variant-position:normal;font-variant-caps:normal;font-variant-numeric:normal;font-variant-alternates:normal;font-variant-east-asian:normal;font-feature-settings:normal;font-variation-settings:normal;text-indent:0;text-decoration-line:none;text-decoration-style:solid;text-decoration-color:#000000;text-transform:none;text-orientation:mixed;white-space:normal;shape-padding:0;shape-margin:0;inline-size:0;isolation:auto;mix-blend-mode:normal;paint-order:stroke fill markers"
             id="path26305" />
        </g>
        <g
           transform="rotate(-48.52,-41.965,77.247)"
           stroke-width="2.3732"
           id="g26311">
          <path
             d="m -72.047,80.547 c -2.7317,0 -4.9316,2.2 -4.9316,4.9316 v 6.9863 c 0,2.7317 2.2,4.9297 4.9316,4.9297 2.7316,0 4.9316,-2.198 4.9316,-4.9297 v -6.9863 c 0,-2.7317 -2.2,-4.9316 -4.9316,-4.9316 z"
             color="#000000"
             color-rendering="auto"
             dominant-baseline="auto"
             fill="#f4e3d7"
             image-rendering="auto"
             shape-rendering="auto"
             solid-color="#000000"
             stop-color="#000000"
             stroke-width="2.3167"
             style="font-variant-ligatures:normal;font-variant-position:normal;font-variant-caps:normal;font-variant-numeric:normal;font-variant-alternates:normal;font-variant-east-asian:normal;font-feature-settings:normal;font-variation-settings:normal;text-indent:0;text-decoration-line:none;text-decoration-style:solid;text-decoration-color:#000000;text-transform:none;text-orientation:mixed;white-space:normal;shape-padding:0;shape-margin:0;inline-size:0;isolation:auto;mix-blend-mode:normal;paint-order:stroke fill markers"
             id="path26309" />
        </g>
        <g
           transform="rotate(-5.6363,-90.447,729.07)"
           stroke-width="2.3732"
           id="g26315">
          <path
             d="m 18.326,101.36 c -2.7317,0 -4.9316,2.198 -4.9316,4.9297 v 6.9863 c 0,2.7317 2.2,4.9316 4.9316,4.9316 2.7316,0 4.9316,-2.2 4.9316,-4.9316 v -6.9863 c 1e-6,-2.7317 -2.2,-4.9297 -4.9316,-4.9297 z"
             color="#000000"
             color-rendering="auto"
             dominant-baseline="auto"
             fill="#f4e3d7"
             image-rendering="auto"
             shape-rendering="auto"
             solid-color="#000000"
             stop-color="#000000"
             stroke-width="2.3167"
             style="font-variant-ligatures:normal;font-variant-position:normal;font-variant-caps:normal;font-variant-numeric:normal;font-variant-alternates:normal;font-variant-east-asian:normal;font-feature-settings:normal;font-variation-settings:normal;text-indent:0;text-decoration-line:none;text-decoration-style:solid;text-decoration-color:#000000;text-transform:none;text-orientation:mixed;white-space:normal;shape-padding:0;shape-margin:0;inline-size:0;isolation:auto;mix-blend-mode:normal;paint-order:stroke fill markers"
             id="path26313" />
        </g>
        <g
           transform="rotate(23.642,-23.22,-174.78)"
           stroke-width="2.3732"
           id="g26319">
          <path
             d="m 80.041,80.461 c -2.7317,0 -4.9316,2.2 -4.9316,4.9316 v 6.9844 c 0,2.7317 2.2,4.9316 4.9316,4.9316 2.7317,0 4.9316,-2.2 4.9316,-4.9316 v -6.9844 c 0,-2.7317 -2.2,-4.9316 -4.9316,-4.9316 z"
             color="#000000"
             color-rendering="auto"
             dominant-baseline="auto"
             fill="#f4e3d7"
             image-rendering="auto"
             shape-rendering="auto"
             solid-color="#000000"
             stop-color="#000000"
             stroke-width="2.3167"
             style="font-variant-ligatures:normal;font-variant-position:normal;font-variant-caps:normal;font-variant-numeric:normal;font-variant-alternates:normal;font-variant-east-asian:normal;font-feature-settings:normal;font-variation-settings:normal;text-indent:0;text-decoration-line:none;text-decoration-style:solid;text-decoration-color:#000000;text-transform:none;text-orientation:mixed;white-space:normal;shape-padding:0;shape-margin:0;inline-size:0;isolation:auto;mix-blend-mode:normal;paint-order:stroke fill markers"
             id="path26317" />
        </g>
      </g>
    </g>
  </g>
</svg>
