<?xml version="1.0" encoding="UTF-8" standalone="no"?>
<!-- Created with Inkscape (http://www.inkscape.org/) -->

<svg
   width="492"
   height="380"
   viewBox="0 0 130.175 100.54167"
   version="1.1"
   id="svg33005"
   xml:space="preserve"
   inkscape:version="1.2 (dc2aeda, 2022-05-15)"
   sodipodi:docname="migration.svg"
   xmlns:inkscape="http://www.inkscape.org/namespaces/inkscape"
   xmlns:sodipodi="http://sodipodi.sourceforge.net/DTD/sodipodi-0.dtd"
   xmlns="http://www.w3.org/2000/svg"
   xmlns:svg="http://www.w3.org/2000/svg"><sodipodi:namedview
     id="namedview33007"
     pagecolor="#ffffff"
     bordercolor="#666666"
     borderopacity="1.0"
     inkscape:showpageshadow="2"
     inkscape:pageopacity="0.0"
     inkscape:pagecheckerboard="0"
     inkscape:deskcolor="#d1d1d1"
     inkscape:document-units="mm"
     showgrid="false"
     inkscape:zoom="1.166371"
     inkscape:cx="291.50245"
     inkscape:cy="194.19207"
     inkscape:window-width="1470"
     inkscape:window-height="891"
     inkscape:window-x="0"
     inkscape:window-y="65"
     inkscape:window-maximized="0"
     inkscape:current-layer="layer1" /><defs
     id="defs33002" /><g
     inkscape:label="Layer 1"
     inkscape:groupmode="layer"
     id="layer1"><g
       id="g34737"
       transform="matrix(0.93948521,0,0,0.93948521,1.9141555,1.7847957)"
       style="stroke-width:1.06441"><g
         id="g34047"
         transform="translate(-3.4572501,5.6466532)"
         style="fill:#4d4d4d;stroke-width:1.06441"><path
           style="fill:#4d4d4d;stroke-width:1.06441"
           d="m 27.807647,45.987108 c -1.00699,-1.19673 -1.09418,-2.1855 -0.35881,-4.06906 0.28559,-0.73153 0.67001,-2.02442 0.85426,-2.87308 0.3023,-1.39241 0.25319,-1.62483 -0.50323,-2.38125 -0.81689,-0.81689 -0.99134,-0.83823 -6.85149,-0.83823 h -6.01326 v -6.34187 c 0,-6.32952 -0.002,-6.34296 -0.85866,-6.90448 -0.78764,-0.51608 -1.02836,-0.51389 -2.91041,0.0265 -1.12847,0.32401 -2.798227,0.66771 -3.710577,0.76378 -1.434848,0.15108 -1.780178,0.0533 -2.557638,-0.72416 -1.14603,-1.14603 -1.24863,-3.4033 -0.20224,-4.44969 1.12453,-1.12453 2.31158,-1.21952 5.060055,-0.4049 5.0253,1.48944 5.17947,1.32196 5.17947,-5.62649 0,-7.0125898 -0.33501,-6.6775798 6.67758,-6.6775798 4.31733,0 5.36638,-0.0999 5.82084,-0.55436 0.7284,-0.7284 0.68422,-2.00961 -0.15119,-4.38452001 -0.94423,-2.68425999 -0.90092,-4.07003999 0.16035,-5.13131999 1.21975,-1.21975 3.41451,-1.20367 4.65227,0.0341 1.04567,1.04567 1.0315,2.27453 -0.0717,6.22038 -0.64389,2.30295 -0.64388,2.37484 3.5e-4,3.0868 0.62115,0.68628 1.0386,0.72895 7.13148,0.72895 h 6.47171 v 5.6444398 c 0,4.48977 -0.097,5.64445 -0.47394,5.64445 -0.26067,0 -1.39677,-0.3175 -2.52467,-0.70556 -2.52009,-0.86704 -3.87181,-0.88881 -5.44298,-0.0876 -1.86744,0.95223 -2.64571,2.26211 -2.64571,4.45291 0,2.1599 0.67728,3.4344 2.37522,4.46971 1.43851,0.87711 3.13235,0.87251 5.71347,-0.0155 1.1279,-0.38806 2.264,-0.70556 2.52467,-0.70556 0.37786,0 0.47404,1.19801 0.47441,5.90903 l 3.5e-4,5.90903 -5.73311,-0.0917 c -7.91655,-0.12662 -8.50876,0.28003 -6.98688,4.79765 1.25727,3.73215 0.78203,5.74447 -1.49604,6.33478 -1.6237,0.42074 -2.60327,0.13386 -3.60405,-1.0555 z"
           id="path34031" /><g
           id="g34041"
           style="fill:#4d4d4d;stroke-width:1.06441"><path
             style="fill:#4d4d4d;stroke-width:1.06441"
             d="m 66.793457,35.552088 c 0,-0.24738 0.3175,-1.35313 0.70555,-2.45721 1.54768,-4.40342 0.43966,-7.26607 -3.18792,-8.2363 -1.40799,-0.37658 -1.77997,-0.34217 -3.22888,0.29876 -2.9166,1.29014 -3.74105,3.88444 -2.42689,7.63657 1.20328,3.43552 1.56256,3.21785 -5.17919,3.13784 l -5.90906,-0.0701 -0.0966,-6.25384 c -0.06,-3.88351 -0.24349,-6.43083 -0.48417,-6.72084 -0.54216,-0.65327 -2.25547,-0.56314 -4.53452,0.23855 -2.63754,0.9278 -3.97951,0.89004 -5.1838,-0.14584 -0.8219,-0.70697 -0.98981,-1.13107 -0.98981,-2.49999 0,-1.36892 0.16791,-1.79302 0.98981,-2.49999 1.19842,-1.03084 2.20113,-1.05847 5.12704,-0.14129 2.55569,0.80112 3.96338,0.88661 4.57232,0.27767 0.29663,-0.29663 0.42333,-2.24994 0.42333,-6.52639 V 5.4866282 h 5.99722 c 4.75858,0 5.99723,0.097 5.99723,0.46976 0,0.25837 -0.33409,1.53412 -0.74243,2.835 -0.83547,2.6616998 -0.71846,4.2022198 0.43007,5.6623398 2.68715,3.41616 8.05147,2.16166 8.92807,-2.08793 0.13758,-0.66695 -0.0927,-2.10203 -0.62274,-3.8805598 l -0.84106,-2.82222 5.1553,-0.10148 5.15529,-0.10148 0.79375,0.9149 c 0.74589,0.85974 0.79375,1.22853 0.79375,6.1163398 0,3.5752 0.13235,5.3338 0.42333,5.62478 0.61303,0.61303 2.00317,0.5226 4.681,-0.30449 2.74375,-0.84747 4.09251,-0.68259 5.12192,0.62609 1.03973,1.3218 0.91159,2.77649 -0.35624,4.04433 -0.93448,0.93447 -1.25026,1.04458 -2.55764,0.89179 -0.82035,-0.0959 -2.40348,-0.45495 -3.51807,-0.79797 -1.61059,-0.49566 -2.20794,-0.54101 -2.91042,-0.22094 l -0.88388,0.40273 v 6.47515 c 0,3.56134 -0.0661,6.54131 -0.147,6.62215 -0.0808,0.0809 -2.70021,0.14699 -5.82083,0.14699 -4.36318,0 -5.67384,-0.1039 -5.67384,-0.44978 z"
             id="path34033" /><path
             style="fill:#4d4d4d;stroke-width:1.06441"
             d="m 33.985117,67.919458 c 0,-0.19888 0.3175,-1.26494 0.70556,-2.36903 0.89102,-2.53512 0.90601,-4.87383 0.0403,-6.29345 -1.30067,-2.13296 -4.7853,-2.91818 -6.98853,-1.57479 -2.42175,1.47664 -3.05662,3.89397 -1.89477,7.2145 1.24904,3.56974 1.4893,3.38436 -4.3862,3.38436 -6.83336,0 -6.52639,0.31209 -6.52639,-6.63536 0,-5.88556 -0.212,-6.54886 -2.07621,-6.49585 -0.61768,0.0176 -2.09277,0.36752 -3.27799,0.77769 -2.519675,0.87199 -3.843865,0.70958 -4.872045,-0.59753 -1.41624,-1.80046 -0.46798,-4.72776 1.68466,-5.20055 0.58142,-0.1277 1.896558,0.083 3.258885,0.52218 1.25625,0.40496 2.74432,0.75207 3.30681,0.77137 1.80149,0.0618 1.97589,-0.60473 1.97589,-7.55105 v -6.28257 h 5.82084 c 6.68838,0 6.3228,-0.25212 5.11527,3.52778 -0.86648,2.71232 -0.86878,3.3105 -0.02,5.18007 0.79704,1.75554 2.28091,2.63984 4.42969,2.63984 2.9609,0 5.1158,-2.0334 5.10941,-4.8213 -0.002,-0.77611 -0.31889,-2.41812 -0.7047,-3.64891 -0.38581,-1.23078 -0.61252,-2.38172 -0.5038,-2.55764 0.10872,-0.17591 2.7283,-0.31984 5.8213,-0.31984 h 5.62362 l 0.005,5.90903 c 0.003,3.24996 0.101,6.26795 0.21855,6.70663 0.38058,1.4203 1.72872,1.43129 6.32434,0.0515 2.73957,-0.82249 4.74117,0.46361 4.74117,3.04641 0,1.07084 -0.23467,1.72268 -0.8651,2.40292 -1.06727,1.1516 -2.45105,1.21101 -5.30851,0.2279 -4.73598,-1.62941 -5.11528,-1.13966 -5.11528,6.60489 v 5.74233 h -5.82083 c -3.73996,0 -5.82084,-0.12926 -5.82084,-0.36159 z"
             id="path34029" /></g></g><g
         id="g34683"
         style="stroke-width:1.06441"><g
           shape-rendering="auto"
           stroke-width="1.09097"
           id="g33164"
           transform="matrix(0.92759258,0,0,0.92759258,13.068337,27.949782)"><path
             d="m 111.83,17.139 -4.2225,-0.0429 c -10.359,-0.10526 -18.785,8.1499 -18.889,18.51 l -0.29111,28.653 c -0.10525,10.359 8.1499,18.785 18.51,18.889 l 4.2225,0.04291 c 10.359,0.10525 18.785,-8.15 18.889,-18.51 l 0.29112,-28.653 c 0.10525,-10.359 -8.1499,-18.785 -18.51,-18.889 z"
             color="#000000"
             color-rendering="auto"
             dominant-baseline="auto"
             fill="#f4e3d7"
             fill-rule="evenodd"
             image-rendering="auto"
             solid-color="#000000"
             stop-color="#000000"
             style="font-variant-ligatures:normal;font-variant-position:normal;font-variant-caps:normal;font-variant-numeric:normal;font-variant-alternates:normal;font-variant-east-asian:normal;font-feature-settings:normal;font-variation-settings:normal;text-indent:0;text-decoration-line:none;text-decoration-style:solid;text-decoration-color:#000000;text-transform:none;text-orientation:mixed;white-space:normal;shape-padding:0;shape-margin:0;inline-size:0;isolation:auto;mix-blend-mode:normal;stroke-width:1.45464"
             id="path33158" /><path
             d="m 115.21,27.334 c 1.0585,0 2.0368,0.25373 2.8424,0.761 0.80567,0.50728 1.5116,1.3789 1.5116,2.4823 a 1.3566,1.3566 0 0 1 -1.3563,1.3571 1.3566,1.3566 0 0 1 -1.3571,-1.3571 c 0,0.06106 0.0353,-0.01073 -0.24383,-0.18647 -0.27912,-0.17574 -0.80003,-0.34345 -1.3969,-0.34345 -0.59686,0 -1.1169,0.1677 -1.3961,0.34345 -0.27912,0.17574 -0.24464,0.24753 -0.24464,0.18647 a 1.3566,1.3566 0 0 1 -1.3563,1.3571 1.3566,1.3566 0 0 1 -1.3563,-1.3571 c 0,-1.1033 0.70598,-1.975 1.5116,-2.4823 0.80567,-0.50728 1.7832,-0.761 2.8416,-0.761 z"
             color="#000000"
             color-rendering="auto"
             dominant-baseline="auto"
             fill="#4d4d4d"
             image-rendering="auto"
             solid-color="#000000"
             stop-color="#000000"
             style="font-variant-ligatures:normal;font-variant-position:normal;font-variant-caps:normal;font-variant-numeric:normal;font-variant-alternates:normal;font-variant-east-asian:normal;font-feature-settings:normal;font-variation-settings:normal;text-indent:0;text-decoration-line:none;text-decoration-style:solid;text-decoration-color:#000000;text-transform:none;text-orientation:mixed;white-space:normal;shape-padding:0;shape-margin:0;inline-size:0;isolation:auto;mix-blend-mode:normal;stroke-width:1.45464;paint-order:stroke fill markers"
             id="path33160" /><path
             d="m 103.63,27.334 c 1.0585,0 2.0368,0.25373 2.8424,0.761 0.80567,0.50728 1.5116,1.3789 1.5116,2.4823 a 1.3566,1.3566 0 0 1 -1.3571,1.3571 1.3566,1.3566 0 0 1 -1.3563,-1.3571 c 0,0.06106 0.0345,-0.01073 -0.24464,-0.18647 -0.27913,-0.17574 -0.79924,-0.34345 -1.3961,-0.34345 -0.59687,0 -1.1178,0.1677 -1.3969,0.34345 -0.2791,0.17575 -0.24384,0.24753 -0.24384,0.18647 a 1.3566,1.3566 0 0 1 -1.3563,1.3571 1.3566,1.3566 0 0 1 -1.3571,-1.3571 c 0,-1.1033 0.70597,-1.975 1.5116,-2.4823 0.80567,-0.50728 1.7839,-0.761 2.8424,-0.761 z"
             color="#000000"
             color-rendering="auto"
             dominant-baseline="auto"
             fill="#4d4d4d"
             image-rendering="auto"
             solid-color="#000000"
             stop-color="#000000"
             style="font-variant-ligatures:normal;font-variant-position:normal;font-variant-caps:normal;font-variant-numeric:normal;font-variant-alternates:normal;font-variant-east-asian:normal;font-feature-settings:normal;font-variation-settings:normal;text-indent:0;text-decoration-line:none;text-decoration-style:solid;text-decoration-color:#000000;text-transform:none;text-orientation:mixed;white-space:normal;shape-padding:0;shape-margin:0;inline-size:0;isolation:auto;mix-blend-mode:normal;stroke-width:1.45464;paint-order:stroke fill markers"
             id="path33162" /></g><g
           fill-rule="evenodd"
           stroke-width="1.09097"
           id="g33176"
           transform="matrix(0.92759258,0,0,0.92759258,13.068337,27.949782)"><path
             d="m 88.574,49.931 -0.14556,14.326 c -0.10525,10.359 8.1499,18.785 18.51,18.889 l 4.2225,0.04291 c 10.359,0.10525 18.785,-8.1499 18.889,-18.51 l 0.14556,-14.326 -41.622,-0.42288"
             color="#000000"
             color-rendering="auto"
             dominant-baseline="auto"
             fill="#73a9ad"
             image-rendering="auto"
             shape-rendering="auto"
             solid-color="#000000"
             stop-color="#000000"
             style="font-variant-ligatures:normal;font-variant-position:normal;font-variant-caps:normal;font-variant-numeric:normal;font-variant-alternates:normal;font-variant-east-asian:normal;font-feature-settings:normal;font-variation-settings:normal;text-indent:0;text-decoration-line:none;text-decoration-style:solid;text-decoration-color:#000000;text-transform:none;text-orientation:mixed;white-space:normal;shape-padding:0;shape-margin:0;inline-size:0;isolation:auto;mix-blend-mode:normal;stroke-width:1.45464"
             id="path33166" /><path
             d="m 130.18,51.741 -0.013,1.8775 -41.622,-0.62042 0.01301,-1.8775 z"
             color="#000000"
             color-rendering="auto"
             dominant-baseline="auto"
             fill="#5a8387"
             image-rendering="auto"
             shape-rendering="auto"
             solid-color="#000000"
             stop-color="#000000"
             style="font-variant-ligatures:normal;font-variant-position:normal;font-variant-caps:normal;font-variant-numeric:normal;font-variant-alternates:normal;font-variant-east-asian:normal;font-feature-settings:normal;font-variation-settings:normal;text-indent:0;text-decoration-line:none;text-decoration-style:solid;text-decoration-color:#000000;text-transform:none;text-orientation:mixed;white-space:normal;shape-padding:0;shape-margin:0;inline-size:0;isolation:auto;mix-blend-mode:normal;stroke-width:1.45464"
             id="path33168" /><path
             d="m 102.86,53.362 a 6.5056,6.5056 0 0 0 6.4392,6.5714 6.5056,6.5056 0 0 0 6.5714,-6.4392 6.5056,6.5056 0 0 0 -6.4392,-6.5714 6.5056,6.5056 0 0 0 -6.5714,6.4392 z"
             fill="#5a8387"
             style="stroke-width:1.45464;paint-order:stroke fill markers"
             id="path33170" /><path
             d="m 104.7,53.38 a 4.6667,4.6667 0 0 0 4.619,4.7139 4.6667,4.6667 0 0 0 4.7139,-4.619 4.6667,4.6667 0 0 0 -4.619,-4.7139 4.6667,4.6667 0 0 0 -4.7139,4.619 z"
             fill="#7bb0ad"
             style="stroke-width:1.45464;paint-order:stroke fill markers"
             id="path33172" /><path
             d="m 106.66,53.401 a 2.7019,2.7019 0 0 0 2.6743,2.7293 2.7019,2.7019 0 0 0 2.7293,-2.6743 2.7019,2.7019 0 0 0 -2.6743,-2.7293 2.7019,2.7019 0 0 0 -2.7293,2.6743 z"
             fill="#fdffff"
             style="stroke-width:1.45464;paint-order:stroke fill markers"
             id="path33174" /></g><g
           id="g34635"
           style="stroke-width:1.06441"><g
             transform="matrix(0.37845777,0,0,0.37845777,103.42977,14.979255)"
             stroke-width="2.81234"
             id="g33156"><g
               transform="translate(-72.041,-5.3583)"
               stroke-width="2.81234"
               id="g33128"><path
                 d="m 23.885,123.7 c -0.67082,5.6017 1.4782,9.5326 4.0898,14.012 2.6116,4.4792 6.2116,9.1193 10.512,13.477 8.6003,8.7146 19.885,16.867 32.902,16.42 L 70.89271,153.15 c -5.8139,0.19965 -15.108,-4.5015 -22.107,-11.594 -3.4997,-3.5462 -6.4545,-7.9442 -8.3125,-11.131 -1.858,-3.1868 -2.094,-6.0784 -2.2227,-5.0039 z"
                 color="#000000"
                 color-rendering="auto"
                 dominant-baseline="auto"
                 fill="#4d4d4d"
                 image-rendering="auto"
                 shape-rendering="auto"
                 solid-color="#000000"
                 stop-color="#000000"
                 stroke-width="2.74222"
                 style="font-variant-ligatures:normal;font-variant-position:normal;font-variant-caps:normal;font-variant-numeric:normal;font-variant-alternates:normal;font-variant-east-asian:normal;font-feature-settings:normal;font-variation-settings:normal;text-indent:0;text-decoration-line:none;text-decoration-style:solid;text-decoration-color:#000000;text-transform:none;text-orientation:mixed;white-space:normal;shape-padding:0;shape-margin:0;inline-size:0;isolation:auto;mix-blend-mode:normal"
                 id="path33126" /></g><g
               fill="#f4e3d7"
               id="g33154"
               style="stroke-width:3.74984"><g
                 transform="rotate(-15.682,-55.475,258.88)"
                 shape-rendering="auto"
                 stroke-width="2.74222"
                 id="g33134"><path
                   d="m -5.1836,113.52 c -6.6161,-6.7e-4 -11.983,4.7786 -11.984,10.676 -0.0015,5.8972 5.3624,10.678 11.979,10.68 6.6161,0.002 11.983,-4.7747 11.986,-10.672 3.783e-4,-0.002 3.783e-4,-0.004 0,-0.006 -2.454e-4,-0.002 -9.083e-4,-0.004 -0.00195,-0.006 -0.00386,-5.8942 -5.3648,-10.671 -11.979,-10.672 z"
                   color="#000000"
                   color-rendering="auto"
                   dominant-baseline="auto"
                   image-rendering="auto"
                   solid-color="#000000"
                   stop-color="#000000"
                   style="font-variant-ligatures:normal;font-variant-position:normal;font-variant-caps:normal;font-variant-numeric:normal;font-variant-alternates:normal;font-variant-east-asian:normal;font-feature-settings:normal;font-variation-settings:normal;text-indent:0;text-decoration-line:none;text-decoration-style:solid;text-decoration-color:#000000;text-transform:none;text-orientation:mixed;white-space:normal;shape-padding:0;shape-margin:0;inline-size:0;isolation:auto;mix-blend-mode:normal;stroke-width:3.65635;paint-order:stroke fill markers"
                   id="path33130" /><path
                   d="m 6.7817,124.2 c -0.00304,5.8875 5.7e-6,-5.8924 1.3e-6,-0.005 z"
                   color="#000000"
                   color-rendering="auto"
                   dominant-baseline="auto"
                   image-rendering="auto"
                   solid-color="#000000"
                   stop-color="#000000"
                   style="font-variant-ligatures:normal;font-variant-position:normal;font-variant-caps:normal;font-variant-numeric:normal;font-variant-alternates:normal;font-variant-east-asian:normal;font-feature-settings:normal;font-variation-settings:normal;text-indent:0;text-decoration-line:none;text-decoration-style:solid;text-decoration-color:#000000;text-transform:none;text-orientation:mixed;white-space:normal;shape-padding:0;shape-margin:0;inline-size:0;isolation:auto;mix-blend-mode:normal;stroke-width:3.65635;paint-order:stroke fill markers"
                   id="path33132" /></g><g
                 stroke-width="2.81234"
                 id="g33152"><g
                   transform="rotate(-77.743,-39.344,42.007)"
                   id="g33138"
                   style="stroke-width:2.81234"><path
                     d="m -116.78,34.967 c -2.7317,0 -4.9316,2.198 -4.9316,4.9297 v 6.9863 c 0,2.7317 2.2,4.9316 4.9316,4.9316 2.7316,0 4.9316,-2.2 4.9316,-4.9316 v -6.9863 c 0,-2.7317 -2.2,-4.9297 -4.9316,-4.9297 z"
                     color="#000000"
                     color-rendering="auto"
                     dominant-baseline="auto"
                     fill="#f4e3d7"
                     image-rendering="auto"
                     shape-rendering="auto"
                     solid-color="#000000"
                     stop-color="#000000"
                     stroke-width="2.74222"
                     style="font-variant-ligatures:normal;font-variant-position:normal;font-variant-caps:normal;font-variant-numeric:normal;font-variant-alternates:normal;font-variant-east-asian:normal;font-feature-settings:normal;font-variation-settings:normal;text-indent:0;text-decoration-line:none;text-decoration-style:solid;text-decoration-color:#000000;text-transform:none;text-orientation:mixed;white-space:normal;shape-padding:0;shape-margin:0;inline-size:0;isolation:auto;mix-blend-mode:normal;paint-order:stroke fill markers"
                     id="path33136" /></g><g
                   transform="rotate(-48.52,-41.965,77.247)"
                   id="g33142"
                   style="stroke-width:2.81234"><path
                     d="m -72.047,80.547 c -2.7317,0 -4.9316,2.2 -4.9316,4.9316 v 6.9863 c 0,2.7317 2.2,4.9297 4.9316,4.9297 2.7316,0 4.9316,-2.198 4.9316,-4.9297 v -6.9863 c 0,-2.7317 -2.2,-4.9316 -4.9316,-4.9316 z"
                     color="#000000"
                     color-rendering="auto"
                     dominant-baseline="auto"
                     fill="#f4e3d7"
                     image-rendering="auto"
                     shape-rendering="auto"
                     solid-color="#000000"
                     stop-color="#000000"
                     stroke-width="2.74222"
                     style="font-variant-ligatures:normal;font-variant-position:normal;font-variant-caps:normal;font-variant-numeric:normal;font-variant-alternates:normal;font-variant-east-asian:normal;font-feature-settings:normal;font-variation-settings:normal;text-indent:0;text-decoration-line:none;text-decoration-style:solid;text-decoration-color:#000000;text-transform:none;text-orientation:mixed;white-space:normal;shape-padding:0;shape-margin:0;inline-size:0;isolation:auto;mix-blend-mode:normal;paint-order:stroke fill markers"
                     id="path33140" /></g><g
                   transform="rotate(-5.6363,-90.447,729.07)"
                   id="g33146"
                   style="stroke-width:2.81234"><path
                     d="m 18.326,101.36 c -2.7317,0 -4.9316,2.198 -4.9316,4.9297 v 6.9863 c 0,2.7317 2.2,4.9316 4.9316,4.9316 2.7316,0 4.9316,-2.2 4.9316,-4.9316 v -6.9863 c 1e-6,-2.7317 -2.2,-4.9297 -4.9316,-4.9297 z"
                     color="#000000"
                     color-rendering="auto"
                     dominant-baseline="auto"
                     fill="#f4e3d7"
                     image-rendering="auto"
                     shape-rendering="auto"
                     solid-color="#000000"
                     stop-color="#000000"
                     stroke-width="2.74222"
                     style="font-variant-ligatures:normal;font-variant-position:normal;font-variant-caps:normal;font-variant-numeric:normal;font-variant-alternates:normal;font-variant-east-asian:normal;font-feature-settings:normal;font-variation-settings:normal;text-indent:0;text-decoration-line:none;text-decoration-style:solid;text-decoration-color:#000000;text-transform:none;text-orientation:mixed;white-space:normal;shape-padding:0;shape-margin:0;inline-size:0;isolation:auto;mix-blend-mode:normal;paint-order:stroke fill markers"
                     id="path33144" /></g><g
                   transform="rotate(23.642,-23.22,-174.78)"
                   id="g33150"
                   style="stroke-width:2.81234"><path
                     d="m 80.041,80.461 c -2.7317,0 -4.9316,2.2 -4.9316,4.9316 v 6.9844 c 0,2.7317 2.2,4.9316 4.9316,4.9316 2.7317,0 4.9316,-2.2 4.9316,-4.9316 v -6.9844 c 0,-2.7317 -2.2,-4.9316 -4.9316,-4.9316 z"
                     color="#000000"
                     color-rendering="auto"
                     dominant-baseline="auto"
                     fill="#f4e3d7"
                     image-rendering="auto"
                     shape-rendering="auto"
                     solid-color="#000000"
                     stop-color="#000000"
                     stroke-width="2.74222"
                     style="font-variant-ligatures:normal;font-variant-position:normal;font-variant-caps:normal;font-variant-numeric:normal;font-variant-alternates:normal;font-variant-east-asian:normal;font-feature-settings:normal;font-variation-settings:normal;text-indent:0;text-decoration-line:none;text-decoration-style:solid;text-decoration-color:#000000;text-transform:none;text-orientation:mixed;white-space:normal;shape-padding:0;shape-margin:0;inline-size:0;isolation:auto;mix-blend-mode:normal;paint-order:stroke fill markers"
                     id="path33148" /></g></g></g></g><g
             id="g34037"
             transform="matrix(0.74390196,0.09537304,-0.09537304,0.74390196,73.498465,-43.642655)"
             style="fill:#666666;stroke-width:1.41924"><path
               style="fill:#666666;stroke-width:1.41924"
               d="m 19.761824,157.84483 c 2.777772,-1.20299 3.583282,-4.07575 2.318321,-8.268 -0.457693,-1.51682 -0.831719,-2.82544 -0.831182,-2.90802 5.2e-4,-0.0825 3.228667,-0.17874 7.173621,-0.2137 l 7.172653,-0.0635 0.248507,-7.1257 0.248512,-7.12571 2.41932,0.77322 c 4.633764,1.48007 7.364422,0.81377 8.72427,-2.13022 0.955835,-2.06935 0.9766,-2.64696 0.169068,-4.70399 -1.131262,-2.88164 -4.641387,-4.10274 -7.934584,-2.76029 -0.717044,0.29231 -1.800223,0.65128 -2.40707,0.79774 l -1.103365,0.26629 -0.06515,-6.97591 -0.06503,-6.97593 -6.969185,-0.15599 c -7.856045,-0.17587 -7.549498,-0.0132 -6.342144,-3.36539 0.339497,-0.94261 0.623083,-2.60278 0.630171,-3.68925 0.01093,-1.67571 -0.190107,-2.19981 -1.325139,-3.454694 -1.162817,-1.28558 -1.624369,-1.5024 -3.524815,-1.65581 -2.67384,-0.21588 -4.574314,0.78365 -5.463551,2.873454 -0.796657,1.87227 -0.753906,3.23417 0.187419,5.9693 0.436218,1.26745 0.791898,2.49084 0.790415,2.71861 -0.0017,0.26752 -2.580921,0.39734 -7.2841871,0.36666 l -7.28148462,-0.0475 0.057734,7.9371 c 0.068535,9.41211 -0.015263,9.24174 3.98893352,8.11259 4.2976628,-1.21191 5.3021531,-1.23631 6.4876546,-0.15753 1.0061786,0.91558 1.2336096,1.60531 1.1214256,3.40094 -0.149442,2.39189 -2.4859827,3.2204 -5.9387969,2.10582 -3.0077121,-0.97093 -4.98341232,-1.098 -5.46280602,-0.35146 -0.2011466,0.31325 -0.3901543,3.88779 -0.4200038,7.94344 l -0.053821,7.37391 7.27293762,0.0474 c 4.0001191,0.0261 7.2719551,0.19865 7.2707501,0.38345 -0.0012,0.1848 -0.392793,1.55257 -0.87019,3.03947 -1.037785,3.23227 -0.841593,4.98962 0.759759,6.80553 0.942221,1.06847 1.452567,1.28703 3.302681,1.41431 1.203546,0.0828 2.55296,-0.007 2.998687,-0.20043 z"
               id="path34017" /></g><path
             d="m 117.43178,63.98768 a 1.3311881,1.3311881 0 0 1 1.33128,1.331188 c 0,1.122944 -0.77459,1.939875 -1.58999,2.39857 -0.81536,0.458675 -1.79145,0.683728 -2.85317,0.683728 -1.06173,0 -2.03783,-0.22509 -2.85319,-0.683728 -0.81534,-0.45864 -1.58999,-1.275719 -1.58999,-2.39857 a 1.3311881,1.3311881 0 0 1 1.33129,-1.331188 1.3311881,1.3311881 0 0 1 1.33119,1.329054 c -10e-4,-0.148572 -0.0741,-0.09282 0.23284,0.07984 0.31096,0.174926 0.89082,0.342236 1.54777,0.342236 0.65696,0 1.23686,-0.16731 1.54779,-0.342236 0.31096,-0.174926 0.23283,-0.233735 0.23283,-0.07761 a 1.3311881,1.3311881 0 0 1 1.33119,-1.331188 z"
             color="#000000"
             color-rendering="auto"
             dominant-baseline="auto"
             fill="#4d4d4d"
             image-rendering="auto"
             shape-rendering="auto"
             solid-color="#000000"
             stop-color="#000000"
             stroke-width="1.03783"
             style="font-variant-ligatures:normal;font-variant-position:normal;font-variant-caps:normal;font-variant-numeric:normal;font-variant-alternates:normal;font-variant-east-asian:normal;font-feature-settings:normal;font-variation-settings:normal;text-indent:0;text-decoration-line:none;text-decoration-style:solid;text-decoration-color:#000000;text-transform:none;text-orientation:mixed;white-space:normal;shape-padding:0;shape-margin:0;inline-size:0;isolation:auto;mix-blend-mode:normal;paint-order:stroke fill markers"
             id="path33178" /><g
             transform="matrix(0.36134369,-0.11252626,0.11252626,0.36134369,84.889975,18.699736)"
             stroke-width="2.81234"
             id="g33210"><g
               transform="translate(-72.041,-5.3583)"
               stroke-width="2.81234"
               id="g33182"><path
                 d="m 23.885,123.7 c -0.67082,5.6017 1.4782,9.5326 4.0898,14.012 2.6116,4.4792 6.2116,9.1193 10.512,13.477 8.6003,8.7146 19.885,16.867 32.902,16.42 L 70.89271,153.15 c -5.8139,0.19965 -15.108,-4.5015 -22.107,-11.594 -3.4997,-3.5462 -6.4545,-7.9442 -8.3125,-11.131 -1.858,-3.1868 -2.094,-6.0784 -2.2227,-5.0039 z"
                 color="#000000"
                 color-rendering="auto"
                 dominant-baseline="auto"
                 fill="#4d4d4d"
                 image-rendering="auto"
                 shape-rendering="auto"
                 solid-color="#000000"
                 stop-color="#000000"
                 stroke-width="2.74222"
                 style="font-variant-ligatures:normal;font-variant-position:normal;font-variant-caps:normal;font-variant-numeric:normal;font-variant-alternates:normal;font-variant-east-asian:normal;font-feature-settings:normal;font-variation-settings:normal;text-indent:0;text-decoration-line:none;text-decoration-style:solid;text-decoration-color:#000000;text-transform:none;text-orientation:mixed;white-space:normal;shape-padding:0;shape-margin:0;inline-size:0;isolation:auto;mix-blend-mode:normal"
                 id="path33180" /></g><g
               fill="#f4e3d7"
               id="g33208"
               style="stroke-width:3.74984"><g
                 transform="rotate(-15.682,-55.475,258.88)"
                 shape-rendering="auto"
                 stroke-width="2.74222"
                 id="g33188"><path
                   d="m -5.1836,113.52 c -6.6161,-6.7e-4 -11.983,4.7786 -11.984,10.676 -0.0015,5.8972 5.3624,10.678 11.979,10.68 6.6161,0.002 11.983,-4.7747 11.986,-10.672 3.783e-4,-0.002 3.783e-4,-0.004 0,-0.006 -2.454e-4,-0.002 -9.083e-4,-0.004 -0.00195,-0.006 -0.00386,-5.8942 -5.3648,-10.671 -11.979,-10.672 z"
                   color="#000000"
                   color-rendering="auto"
                   dominant-baseline="auto"
                   image-rendering="auto"
                   solid-color="#000000"
                   stop-color="#000000"
                   style="font-variant-ligatures:normal;font-variant-position:normal;font-variant-caps:normal;font-variant-numeric:normal;font-variant-alternates:normal;font-variant-east-asian:normal;font-feature-settings:normal;font-variation-settings:normal;text-indent:0;text-decoration-line:none;text-decoration-style:solid;text-decoration-color:#000000;text-transform:none;text-orientation:mixed;white-space:normal;shape-padding:0;shape-margin:0;inline-size:0;isolation:auto;mix-blend-mode:normal;stroke-width:3.65635;paint-order:stroke fill markers"
                   id="path33184" /><path
                   d="m 6.7817,124.2 c -0.00304,5.8875 5.7e-6,-5.8924 1.3e-6,-0.005 z"
                   color="#000000"
                   color-rendering="auto"
                   dominant-baseline="auto"
                   image-rendering="auto"
                   solid-color="#000000"
                   stop-color="#000000"
                   style="font-variant-ligatures:normal;font-variant-position:normal;font-variant-caps:normal;font-variant-numeric:normal;font-variant-alternates:normal;font-variant-east-asian:normal;font-feature-settings:normal;font-variation-settings:normal;text-indent:0;text-decoration-line:none;text-decoration-style:solid;text-decoration-color:#000000;text-transform:none;text-orientation:mixed;white-space:normal;shape-padding:0;shape-margin:0;inline-size:0;isolation:auto;mix-blend-mode:normal;stroke-width:3.65635;paint-order:stroke fill markers"
                   id="path33186" /></g><g
                 stroke-width="2.81234"
                 id="g33206"><g
                   transform="rotate(-77.743,-39.344,42.007)"
                   id="g33192"
                   style="stroke-width:2.81234"><path
                     d="m -116.78,34.967 c -2.7317,0 -4.9316,2.198 -4.9316,4.9297 v 6.9863 c 0,2.7317 2.2,4.9316 4.9316,4.9316 2.7316,0 4.9316,-2.2 4.9316,-4.9316 v -6.9863 c 0,-2.7317 -2.2,-4.9297 -4.9316,-4.9297 z"
                     color="#000000"
                     color-rendering="auto"
                     dominant-baseline="auto"
                     fill="#f4e3d7"
                     image-rendering="auto"
                     shape-rendering="auto"
                     solid-color="#000000"
                     stop-color="#000000"
                     stroke-width="2.74222"
                     style="font-variant-ligatures:normal;font-variant-position:normal;font-variant-caps:normal;font-variant-numeric:normal;font-variant-alternates:normal;font-variant-east-asian:normal;font-feature-settings:normal;font-variation-settings:normal;text-indent:0;text-decoration-line:none;text-decoration-style:solid;text-decoration-color:#000000;text-transform:none;text-orientation:mixed;white-space:normal;shape-padding:0;shape-margin:0;inline-size:0;isolation:auto;mix-blend-mode:normal;paint-order:stroke fill markers"
                     id="path33190" /></g><g
                   transform="rotate(-48.52,-41.965,77.247)"
                   id="g33196"
                   style="stroke-width:2.81234"><path
                     d="m -72.047,80.547 c -2.7317,0 -4.9316,2.2 -4.9316,4.9316 v 6.9863 c 0,2.7317 2.2,4.9297 4.9316,4.9297 2.7316,0 4.9316,-2.198 4.9316,-4.9297 v -6.9863 c 0,-2.7317 -2.2,-4.9316 -4.9316,-4.9316 z"
                     color="#000000"
                     color-rendering="auto"
                     dominant-baseline="auto"
                     fill="#f4e3d7"
                     image-rendering="auto"
                     shape-rendering="auto"
                     solid-color="#000000"
                     stop-color="#000000"
                     stroke-width="2.74222"
                     style="font-variant-ligatures:normal;font-variant-position:normal;font-variant-caps:normal;font-variant-numeric:normal;font-variant-alternates:normal;font-variant-east-asian:normal;font-feature-settings:normal;font-variation-settings:normal;text-indent:0;text-decoration-line:none;text-decoration-style:solid;text-decoration-color:#000000;text-transform:none;text-orientation:mixed;white-space:normal;shape-padding:0;shape-margin:0;inline-size:0;isolation:auto;mix-blend-mode:normal;paint-order:stroke fill markers"
                     id="path33194" /></g><g
                   transform="rotate(-5.6363,-90.447,729.07)"
                   id="g33200"
                   style="stroke-width:2.81234"><path
                     d="m 18.326,101.36 c -2.7317,0 -4.9316,2.198 -4.9316,4.9297 v 6.9863 c 0,2.7317 2.2,4.9316 4.9316,4.9316 2.7316,0 4.9316,-2.2 4.9316,-4.9316 v -6.9863 c 1e-6,-2.7317 -2.2,-4.9297 -4.9316,-4.9297 z"
                     color="#000000"
                     color-rendering="auto"
                     dominant-baseline="auto"
                     fill="#f4e3d7"
                     image-rendering="auto"
                     shape-rendering="auto"
                     solid-color="#000000"
                     stop-color="#000000"
                     stroke-width="2.74222"
                     style="font-variant-ligatures:normal;font-variant-position:normal;font-variant-caps:normal;font-variant-numeric:normal;font-variant-alternates:normal;font-variant-east-asian:normal;font-feature-settings:normal;font-variation-settings:normal;text-indent:0;text-decoration-line:none;text-decoration-style:solid;text-decoration-color:#000000;text-transform:none;text-orientation:mixed;white-space:normal;shape-padding:0;shape-margin:0;inline-size:0;isolation:auto;mix-blend-mode:normal;paint-order:stroke fill markers"
                     id="path33198" /></g><g
                   transform="rotate(23.642,-23.22,-174.78)"
                   id="g33204"
                   style="stroke-width:2.81234"><path
                     d="m 80.041,80.461 c -2.7317,0 -4.9316,2.2 -4.9316,4.9316 v 6.9844 c 0,2.7317 2.2,4.9316 4.9316,4.9316 2.7317,0 4.9316,-2.2 4.9316,-4.9316 v -6.9844 c 0,-2.7317 -2.2,-4.9316 -4.9316,-4.9316 z"
                     color="#000000"
                     color-rendering="auto"
                     dominant-baseline="auto"
                     fill="#f4e3d7"
                     image-rendering="auto"
                     shape-rendering="auto"
                     solid-color="#000000"
                     stop-color="#000000"
                     stroke-width="2.74222"
                     style="font-variant-ligatures:normal;font-variant-position:normal;font-variant-caps:normal;font-variant-numeric:normal;font-variant-alternates:normal;font-variant-east-asian:normal;font-feature-settings:normal;font-variation-settings:normal;text-indent:0;text-decoration-line:none;text-decoration-style:solid;text-decoration-color:#000000;text-transform:none;text-orientation:mixed;white-space:normal;shape-padding:0;shape-margin:0;inline-size:0;isolation:auto;mix-blend-mode:normal;paint-order:stroke fill markers"
                     id="path33202" /></g></g></g></g></g></g></g></g></svg>
